G04 #@! TF.GenerationSoftware,KiCad,Pcbnew,(5.1.8-0-10_14)*
G04 #@! TF.CreationDate,2021-01-04T15:14:14-05:00*
G04 #@! TF.ProjectId,toaster,746f6173-7465-4722-9e6b-696361645f70,rev?*
G04 #@! TF.SameCoordinates,Original*
G04 #@! TF.FileFunction,Paste,Top*
G04 #@! TF.FilePolarity,Positive*
%FSLAX46Y46*%
G04 Gerber Fmt 4.6, Leading zero omitted, Abs format (unit mm)*
G04 Created by KiCad (PCBNEW (5.1.8-0-10_14)) date 2021-01-04 15:14:14*
%MOMM*%
%LPD*%
G01*
G04 APERTURE LIST*
%ADD10R,0.300000X1.250000*%
%ADD11R,2.000000X3.000000*%
%ADD12R,2.300000X2.300000*%
%ADD13R,0.450000X0.600000*%
%ADD14R,0.800000X0.900000*%
%ADD15R,1.200000X1.200000*%
%ADD16R,1.600000X1.500000*%
%ADD17R,3.800000X2.000000*%
%ADD18R,1.500000X2.000000*%
G04 APERTURE END LIST*
D10*
X167778000Y-95973000D03*
X167278000Y-95973000D03*
X166778000Y-95973000D03*
X166278000Y-95973000D03*
X165778000Y-95973000D03*
X165278000Y-95973000D03*
X164778000Y-95973000D03*
X164278000Y-95973000D03*
X163778000Y-95973000D03*
X163278000Y-95973000D03*
X162778000Y-95973000D03*
X162278000Y-95973000D03*
X161778000Y-95973000D03*
X161278000Y-95973000D03*
X160778000Y-95973000D03*
X160278000Y-95973000D03*
X159778000Y-95973000D03*
X159278000Y-95973000D03*
X158778000Y-95973000D03*
X158278000Y-95973000D03*
X157778000Y-95973000D03*
X157278000Y-95973000D03*
X156778000Y-95973000D03*
X156278000Y-95973000D03*
X155778000Y-95973000D03*
X155278000Y-95973000D03*
X154778000Y-95973000D03*
X154278000Y-95973000D03*
X153778000Y-95973000D03*
D11*
X169318000Y-98298000D03*
X151738000Y-98298000D03*
D10*
X153278000Y-95973000D03*
D12*
X136150000Y-92450000D03*
X136150000Y-85350000D03*
X143250000Y-85350000D03*
X143250000Y-92450000D03*
G36*
G01*
X137624400Y-98737400D02*
X137624400Y-99687400D01*
G75*
G02*
X137374400Y-99937400I-250000J0D01*
G01*
X136874400Y-99937400D01*
G75*
G02*
X136624400Y-99687400I0J250000D01*
G01*
X136624400Y-98737400D01*
G75*
G02*
X136874400Y-98487400I250000J0D01*
G01*
X137374400Y-98487400D01*
G75*
G02*
X137624400Y-98737400I0J-250000D01*
G01*
G37*
G36*
G01*
X139524400Y-98737400D02*
X139524400Y-99687400D01*
G75*
G02*
X139274400Y-99937400I-250000J0D01*
G01*
X138774400Y-99937400D01*
G75*
G02*
X138524400Y-99687400I0J250000D01*
G01*
X138524400Y-98737400D01*
G75*
G02*
X138774400Y-98487400I250000J0D01*
G01*
X139274400Y-98487400D01*
G75*
G02*
X139524400Y-98737400I0J-250000D01*
G01*
G37*
G36*
G01*
X163097001Y-93566000D02*
X163097001Y-92616000D01*
G75*
G02*
X163347001Y-92366000I250000J0D01*
G01*
X163847001Y-92366000D01*
G75*
G02*
X164097001Y-92616000I0J-250000D01*
G01*
X164097001Y-93566000D01*
G75*
G02*
X163847001Y-93816000I-250000J0D01*
G01*
X163347001Y-93816000D01*
G75*
G02*
X163097001Y-93566000I0J250000D01*
G01*
G37*
G36*
G01*
X164997001Y-93566000D02*
X164997001Y-92616000D01*
G75*
G02*
X165247001Y-92366000I250000J0D01*
G01*
X165747001Y-92366000D01*
G75*
G02*
X165997001Y-92616000I0J-250000D01*
G01*
X165997001Y-93566000D01*
G75*
G02*
X165747001Y-93816000I-250000J0D01*
G01*
X165247001Y-93816000D01*
G75*
G02*
X164997001Y-93566000I0J250000D01*
G01*
G37*
G36*
G01*
X163097001Y-91407000D02*
X163097001Y-90457000D01*
G75*
G02*
X163347001Y-90207000I250000J0D01*
G01*
X163847001Y-90207000D01*
G75*
G02*
X164097001Y-90457000I0J-250000D01*
G01*
X164097001Y-91407000D01*
G75*
G02*
X163847001Y-91657000I-250000J0D01*
G01*
X163347001Y-91657000D01*
G75*
G02*
X163097001Y-91407000I0J250000D01*
G01*
G37*
G36*
G01*
X164997001Y-91407000D02*
X164997001Y-90457000D01*
G75*
G02*
X165247001Y-90207000I250000J0D01*
G01*
X165747001Y-90207000D01*
G75*
G02*
X165997001Y-90457000I0J-250000D01*
G01*
X165997001Y-91407000D01*
G75*
G02*
X165747001Y-91657000I-250000J0D01*
G01*
X165247001Y-91657000D01*
G75*
G02*
X164997001Y-91407000I0J250000D01*
G01*
G37*
G36*
G01*
X156497000Y-81987500D02*
X157447000Y-81987500D01*
G75*
G02*
X157697000Y-82237500I0J-250000D01*
G01*
X157697000Y-82737500D01*
G75*
G02*
X157447000Y-82987500I-250000J0D01*
G01*
X156497000Y-82987500D01*
G75*
G02*
X156247000Y-82737500I0J250000D01*
G01*
X156247000Y-82237500D01*
G75*
G02*
X156497000Y-81987500I250000J0D01*
G01*
G37*
G36*
G01*
X156497000Y-83887500D02*
X157447000Y-83887500D01*
G75*
G02*
X157697000Y-84137500I0J-250000D01*
G01*
X157697000Y-84637500D01*
G75*
G02*
X157447000Y-84887500I-250000J0D01*
G01*
X156497000Y-84887500D01*
G75*
G02*
X156247000Y-84637500I0J250000D01*
G01*
X156247000Y-84137500D01*
G75*
G02*
X156497000Y-83887500I250000J0D01*
G01*
G37*
G36*
G01*
X178874000Y-104808000D02*
X178874000Y-105758000D01*
G75*
G02*
X178624000Y-106008000I-250000J0D01*
G01*
X178124000Y-106008000D01*
G75*
G02*
X177874000Y-105758000I0J250000D01*
G01*
X177874000Y-104808000D01*
G75*
G02*
X178124000Y-104558000I250000J0D01*
G01*
X178624000Y-104558000D01*
G75*
G02*
X178874000Y-104808000I0J-250000D01*
G01*
G37*
G36*
G01*
X180774000Y-104808000D02*
X180774000Y-105758000D01*
G75*
G02*
X180524000Y-106008000I-250000J0D01*
G01*
X180024000Y-106008000D01*
G75*
G02*
X179774000Y-105758000I0J250000D01*
G01*
X179774000Y-104808000D01*
G75*
G02*
X180024000Y-104558000I250000J0D01*
G01*
X180524000Y-104558000D01*
G75*
G02*
X180774000Y-104808000I0J-250000D01*
G01*
G37*
G36*
G01*
X149065000Y-91056000D02*
X148115000Y-91056000D01*
G75*
G02*
X147865000Y-90806000I0J250000D01*
G01*
X147865000Y-90306000D01*
G75*
G02*
X148115000Y-90056000I250000J0D01*
G01*
X149065000Y-90056000D01*
G75*
G02*
X149315000Y-90306000I0J-250000D01*
G01*
X149315000Y-90806000D01*
G75*
G02*
X149065000Y-91056000I-250000J0D01*
G01*
G37*
G36*
G01*
X149065000Y-92956000D02*
X148115000Y-92956000D01*
G75*
G02*
X147865000Y-92706000I0J250000D01*
G01*
X147865000Y-92206000D01*
G75*
G02*
X148115000Y-91956000I250000J0D01*
G01*
X149065000Y-91956000D01*
G75*
G02*
X149315000Y-92206000I0J-250000D01*
G01*
X149315000Y-92706000D01*
G75*
G02*
X149065000Y-92956000I-250000J0D01*
G01*
G37*
G36*
G01*
X149934000Y-94201000D02*
X149934000Y-93251000D01*
G75*
G02*
X150184000Y-93001000I250000J0D01*
G01*
X150684000Y-93001000D01*
G75*
G02*
X150934000Y-93251000I0J-250000D01*
G01*
X150934000Y-94201000D01*
G75*
G02*
X150684000Y-94451000I-250000J0D01*
G01*
X150184000Y-94451000D01*
G75*
G02*
X149934000Y-94201000I0J250000D01*
G01*
G37*
G36*
G01*
X151834000Y-94201000D02*
X151834000Y-93251000D01*
G75*
G02*
X152084000Y-93001000I250000J0D01*
G01*
X152584000Y-93001000D01*
G75*
G02*
X152834000Y-93251000I0J-250000D01*
G01*
X152834000Y-94201000D01*
G75*
G02*
X152584000Y-94451000I-250000J0D01*
G01*
X152084000Y-94451000D01*
G75*
G02*
X151834000Y-94201000I0J250000D01*
G01*
G37*
G36*
G01*
X176882000Y-104857999D02*
X176882000Y-105708001D01*
G75*
G02*
X176632001Y-105958000I-249999J0D01*
G01*
X175731999Y-105958000D01*
G75*
G02*
X175482000Y-105708001I0J249999D01*
G01*
X175482000Y-104857999D01*
G75*
G02*
X175731999Y-104608000I249999J0D01*
G01*
X176632001Y-104608000D01*
G75*
G02*
X176882000Y-104857999I0J-249999D01*
G01*
G37*
G36*
G01*
X174182000Y-104857999D02*
X174182000Y-105708001D01*
G75*
G02*
X173932001Y-105958000I-249999J0D01*
G01*
X173031999Y-105958000D01*
G75*
G02*
X172782000Y-105708001I0J249999D01*
G01*
X172782000Y-104857999D01*
G75*
G02*
X173031999Y-104608000I249999J0D01*
G01*
X173932001Y-104608000D01*
G75*
G02*
X174182000Y-104857999I0J-249999D01*
G01*
G37*
G36*
G01*
X145026000Y-105951000D02*
X145026000Y-106901000D01*
G75*
G02*
X144776000Y-107151000I-250000J0D01*
G01*
X144276000Y-107151000D01*
G75*
G02*
X144026000Y-106901000I0J250000D01*
G01*
X144026000Y-105951000D01*
G75*
G02*
X144276000Y-105701000I250000J0D01*
G01*
X144776000Y-105701000D01*
G75*
G02*
X145026000Y-105951000I0J-250000D01*
G01*
G37*
G36*
G01*
X146926000Y-105951000D02*
X146926000Y-106901000D01*
G75*
G02*
X146676000Y-107151000I-250000J0D01*
G01*
X146176000Y-107151000D01*
G75*
G02*
X145926000Y-106901000I0J250000D01*
G01*
X145926000Y-105951000D01*
G75*
G02*
X146176000Y-105701000I250000J0D01*
G01*
X146676000Y-105701000D01*
G75*
G02*
X146926000Y-105951000I0J-250000D01*
G01*
G37*
G36*
G01*
X141765000Y-101608000D02*
X142715000Y-101608000D01*
G75*
G02*
X142965000Y-101858000I0J-250000D01*
G01*
X142965000Y-102358000D01*
G75*
G02*
X142715000Y-102608000I-250000J0D01*
G01*
X141765000Y-102608000D01*
G75*
G02*
X141515000Y-102358000I0J250000D01*
G01*
X141515000Y-101858000D01*
G75*
G02*
X141765000Y-101608000I250000J0D01*
G01*
G37*
G36*
G01*
X141765000Y-103508000D02*
X142715000Y-103508000D01*
G75*
G02*
X142965000Y-103758000I0J-250000D01*
G01*
X142965000Y-104258000D01*
G75*
G02*
X142715000Y-104508000I-250000J0D01*
G01*
X141765000Y-104508000D01*
G75*
G02*
X141515000Y-104258000I0J250000D01*
G01*
X141515000Y-103758000D01*
G75*
G02*
X141765000Y-103508000I250000J0D01*
G01*
G37*
D13*
X146050000Y-88900000D03*
X146050000Y-86800000D03*
D14*
X167132000Y-114030000D03*
X166182000Y-112030000D03*
X168082000Y-112030000D03*
X152588000Y-112030000D03*
X150688000Y-112030000D03*
X151638000Y-114030000D03*
G36*
G01*
X166835500Y-109531999D02*
X166835500Y-110432001D01*
G75*
G02*
X166585501Y-110682000I-249999J0D01*
G01*
X166060499Y-110682000D01*
G75*
G02*
X165810500Y-110432001I0J249999D01*
G01*
X165810500Y-109531999D01*
G75*
G02*
X166060499Y-109282000I249999J0D01*
G01*
X166585501Y-109282000D01*
G75*
G02*
X166835500Y-109531999I0J-249999D01*
G01*
G37*
G36*
G01*
X168660500Y-109531999D02*
X168660500Y-110432001D01*
G75*
G02*
X168410501Y-110682000I-249999J0D01*
G01*
X167885499Y-110682000D01*
G75*
G02*
X167635500Y-110432001I0J249999D01*
G01*
X167635500Y-109531999D01*
G75*
G02*
X167885499Y-109282000I249999J0D01*
G01*
X168410501Y-109282000D01*
G75*
G02*
X168660500Y-109531999I0J-249999D01*
G01*
G37*
G36*
G01*
X151261500Y-109658999D02*
X151261500Y-110559001D01*
G75*
G02*
X151011501Y-110809000I-249999J0D01*
G01*
X150486499Y-110809000D01*
G75*
G02*
X150236500Y-110559001I0J249999D01*
G01*
X150236500Y-109658999D01*
G75*
G02*
X150486499Y-109409000I249999J0D01*
G01*
X151011501Y-109409000D01*
G75*
G02*
X151261500Y-109658999I0J-249999D01*
G01*
G37*
G36*
G01*
X153086500Y-109658999D02*
X153086500Y-110559001D01*
G75*
G02*
X152836501Y-110809000I-249999J0D01*
G01*
X152311499Y-110809000D01*
G75*
G02*
X152061500Y-110559001I0J249999D01*
G01*
X152061500Y-109658999D01*
G75*
G02*
X152311499Y-109409000I249999J0D01*
G01*
X152836501Y-109409000D01*
G75*
G02*
X153086500Y-109658999I0J-249999D01*
G01*
G37*
G36*
G01*
X139501300Y-95460399D02*
X139501300Y-96360401D01*
G75*
G02*
X139251301Y-96610400I-249999J0D01*
G01*
X138726299Y-96610400D01*
G75*
G02*
X138476300Y-96360401I0J249999D01*
G01*
X138476300Y-95460399D01*
G75*
G02*
X138726299Y-95210400I249999J0D01*
G01*
X139251301Y-95210400D01*
G75*
G02*
X139501300Y-95460399I0J-249999D01*
G01*
G37*
G36*
G01*
X137676300Y-95460399D02*
X137676300Y-96360401D01*
G75*
G02*
X137426301Y-96610400I-249999J0D01*
G01*
X136901299Y-96610400D01*
G75*
G02*
X136651300Y-96360401I0J249999D01*
G01*
X136651300Y-95460399D01*
G75*
G02*
X136901299Y-95210400I249999J0D01*
G01*
X137426301Y-95210400D01*
G75*
G02*
X137676300Y-95460399I0J-249999D01*
G01*
G37*
G36*
G01*
X155136001Y-84887500D02*
X154235999Y-84887500D01*
G75*
G02*
X153986000Y-84637501I0J249999D01*
G01*
X153986000Y-84112499D01*
G75*
G02*
X154235999Y-83862500I249999J0D01*
G01*
X155136001Y-83862500D01*
G75*
G02*
X155386000Y-84112499I0J-249999D01*
G01*
X155386000Y-84637501D01*
G75*
G02*
X155136001Y-84887500I-249999J0D01*
G01*
G37*
G36*
G01*
X155136001Y-83062500D02*
X154235999Y-83062500D01*
G75*
G02*
X153986000Y-82812501I0J249999D01*
G01*
X153986000Y-82287499D01*
G75*
G02*
X154235999Y-82037500I249999J0D01*
G01*
X155136001Y-82037500D01*
G75*
G02*
X155386000Y-82287499I0J-249999D01*
G01*
X155386000Y-82812501D01*
G75*
G02*
X155136001Y-83062500I-249999J0D01*
G01*
G37*
G36*
G01*
X177944100Y-88080001D02*
X177944100Y-87179999D01*
G75*
G02*
X178194099Y-86930000I249999J0D01*
G01*
X178719101Y-86930000D01*
G75*
G02*
X178969100Y-87179999I0J-249999D01*
G01*
X178969100Y-88080001D01*
G75*
G02*
X178719101Y-88330000I-249999J0D01*
G01*
X178194099Y-88330000D01*
G75*
G02*
X177944100Y-88080001I0J249999D01*
G01*
G37*
G36*
G01*
X176119100Y-88080001D02*
X176119100Y-87179999D01*
G75*
G02*
X176369099Y-86930000I249999J0D01*
G01*
X176894101Y-86930000D01*
G75*
G02*
X177144100Y-87179999I0J-249999D01*
G01*
X177144100Y-88080001D01*
G75*
G02*
X176894101Y-88330000I-249999J0D01*
G01*
X176369099Y-88330000D01*
G75*
G02*
X176119100Y-88080001I0J249999D01*
G01*
G37*
G36*
G01*
X176068300Y-92296401D02*
X176068300Y-91396399D01*
G75*
G02*
X176318299Y-91146400I249999J0D01*
G01*
X176843301Y-91146400D01*
G75*
G02*
X177093300Y-91396399I0J-249999D01*
G01*
X177093300Y-92296401D01*
G75*
G02*
X176843301Y-92546400I-249999J0D01*
G01*
X176318299Y-92546400D01*
G75*
G02*
X176068300Y-92296401I0J249999D01*
G01*
G37*
G36*
G01*
X177893300Y-92296401D02*
X177893300Y-91396399D01*
G75*
G02*
X178143299Y-91146400I249999J0D01*
G01*
X178668301Y-91146400D01*
G75*
G02*
X178918300Y-91396399I0J-249999D01*
G01*
X178918300Y-92296401D01*
G75*
G02*
X178668301Y-92546400I-249999J0D01*
G01*
X178143299Y-92546400D01*
G75*
G02*
X177893300Y-92296401I0J249999D01*
G01*
G37*
G36*
G01*
X166572500Y-93541001D02*
X166572500Y-92640999D01*
G75*
G02*
X166822499Y-92391000I249999J0D01*
G01*
X167347501Y-92391000D01*
G75*
G02*
X167597500Y-92640999I0J-249999D01*
G01*
X167597500Y-93541001D01*
G75*
G02*
X167347501Y-93791000I-249999J0D01*
G01*
X166822499Y-93791000D01*
G75*
G02*
X166572500Y-93541001I0J249999D01*
G01*
G37*
G36*
G01*
X168397500Y-93541001D02*
X168397500Y-92640999D01*
G75*
G02*
X168647499Y-92391000I249999J0D01*
G01*
X169172501Y-92391000D01*
G75*
G02*
X169422500Y-92640999I0J-249999D01*
G01*
X169422500Y-93541001D01*
G75*
G02*
X169172501Y-93791000I-249999J0D01*
G01*
X168647499Y-93791000D01*
G75*
G02*
X168397500Y-93541001I0J249999D01*
G01*
G37*
D15*
X169910000Y-87682000D03*
X167910000Y-87682000D03*
D16*
X168910000Y-90932000D03*
G36*
G01*
X150070000Y-86075000D02*
X150070000Y-85875000D01*
G75*
G02*
X150170000Y-85775000I100000J0D01*
G01*
X151445000Y-85775000D01*
G75*
G02*
X151545000Y-85875000I0J-100000D01*
G01*
X151545000Y-86075000D01*
G75*
G02*
X151445000Y-86175000I-100000J0D01*
G01*
X150170000Y-86175000D01*
G75*
G02*
X150070000Y-86075000I0J100000D01*
G01*
G37*
G36*
G01*
X150070000Y-86725000D02*
X150070000Y-86525000D01*
G75*
G02*
X150170000Y-86425000I100000J0D01*
G01*
X151445000Y-86425000D01*
G75*
G02*
X151545000Y-86525000I0J-100000D01*
G01*
X151545000Y-86725000D01*
G75*
G02*
X151445000Y-86825000I-100000J0D01*
G01*
X150170000Y-86825000D01*
G75*
G02*
X150070000Y-86725000I0J100000D01*
G01*
G37*
G36*
G01*
X150070000Y-87375000D02*
X150070000Y-87175000D01*
G75*
G02*
X150170000Y-87075000I100000J0D01*
G01*
X151445000Y-87075000D01*
G75*
G02*
X151545000Y-87175000I0J-100000D01*
G01*
X151545000Y-87375000D01*
G75*
G02*
X151445000Y-87475000I-100000J0D01*
G01*
X150170000Y-87475000D01*
G75*
G02*
X150070000Y-87375000I0J100000D01*
G01*
G37*
G36*
G01*
X150070000Y-88025000D02*
X150070000Y-87825000D01*
G75*
G02*
X150170000Y-87725000I100000J0D01*
G01*
X151445000Y-87725000D01*
G75*
G02*
X151545000Y-87825000I0J-100000D01*
G01*
X151545000Y-88025000D01*
G75*
G02*
X151445000Y-88125000I-100000J0D01*
G01*
X150170000Y-88125000D01*
G75*
G02*
X150070000Y-88025000I0J100000D01*
G01*
G37*
G36*
G01*
X150070000Y-88675000D02*
X150070000Y-88475000D01*
G75*
G02*
X150170000Y-88375000I100000J0D01*
G01*
X151445000Y-88375000D01*
G75*
G02*
X151545000Y-88475000I0J-100000D01*
G01*
X151545000Y-88675000D01*
G75*
G02*
X151445000Y-88775000I-100000J0D01*
G01*
X150170000Y-88775000D01*
G75*
G02*
X150070000Y-88675000I0J100000D01*
G01*
G37*
G36*
G01*
X150070000Y-89325000D02*
X150070000Y-89125000D01*
G75*
G02*
X150170000Y-89025000I100000J0D01*
G01*
X151445000Y-89025000D01*
G75*
G02*
X151545000Y-89125000I0J-100000D01*
G01*
X151545000Y-89325000D01*
G75*
G02*
X151445000Y-89425000I-100000J0D01*
G01*
X150170000Y-89425000D01*
G75*
G02*
X150070000Y-89325000I0J100000D01*
G01*
G37*
G36*
G01*
X150070000Y-89975000D02*
X150070000Y-89775000D01*
G75*
G02*
X150170000Y-89675000I100000J0D01*
G01*
X151445000Y-89675000D01*
G75*
G02*
X151545000Y-89775000I0J-100000D01*
G01*
X151545000Y-89975000D01*
G75*
G02*
X151445000Y-90075000I-100000J0D01*
G01*
X150170000Y-90075000D01*
G75*
G02*
X150070000Y-89975000I0J100000D01*
G01*
G37*
G36*
G01*
X150070000Y-90625000D02*
X150070000Y-90425000D01*
G75*
G02*
X150170000Y-90325000I100000J0D01*
G01*
X151445000Y-90325000D01*
G75*
G02*
X151545000Y-90425000I0J-100000D01*
G01*
X151545000Y-90625000D01*
G75*
G02*
X151445000Y-90725000I-100000J0D01*
G01*
X150170000Y-90725000D01*
G75*
G02*
X150070000Y-90625000I0J100000D01*
G01*
G37*
G36*
G01*
X150070000Y-91275000D02*
X150070000Y-91075000D01*
G75*
G02*
X150170000Y-90975000I100000J0D01*
G01*
X151445000Y-90975000D01*
G75*
G02*
X151545000Y-91075000I0J-100000D01*
G01*
X151545000Y-91275000D01*
G75*
G02*
X151445000Y-91375000I-100000J0D01*
G01*
X150170000Y-91375000D01*
G75*
G02*
X150070000Y-91275000I0J100000D01*
G01*
G37*
G36*
G01*
X150070000Y-91925000D02*
X150070000Y-91725000D01*
G75*
G02*
X150170000Y-91625000I100000J0D01*
G01*
X151445000Y-91625000D01*
G75*
G02*
X151545000Y-91725000I0J-100000D01*
G01*
X151545000Y-91925000D01*
G75*
G02*
X151445000Y-92025000I-100000J0D01*
G01*
X150170000Y-92025000D01*
G75*
G02*
X150070000Y-91925000I0J100000D01*
G01*
G37*
G36*
G01*
X155795000Y-91925000D02*
X155795000Y-91725000D01*
G75*
G02*
X155895000Y-91625000I100000J0D01*
G01*
X157170000Y-91625000D01*
G75*
G02*
X157270000Y-91725000I0J-100000D01*
G01*
X157270000Y-91925000D01*
G75*
G02*
X157170000Y-92025000I-100000J0D01*
G01*
X155895000Y-92025000D01*
G75*
G02*
X155795000Y-91925000I0J100000D01*
G01*
G37*
G36*
G01*
X155795000Y-91275000D02*
X155795000Y-91075000D01*
G75*
G02*
X155895000Y-90975000I100000J0D01*
G01*
X157170000Y-90975000D01*
G75*
G02*
X157270000Y-91075000I0J-100000D01*
G01*
X157270000Y-91275000D01*
G75*
G02*
X157170000Y-91375000I-100000J0D01*
G01*
X155895000Y-91375000D01*
G75*
G02*
X155795000Y-91275000I0J100000D01*
G01*
G37*
G36*
G01*
X155795000Y-90625000D02*
X155795000Y-90425000D01*
G75*
G02*
X155895000Y-90325000I100000J0D01*
G01*
X157170000Y-90325000D01*
G75*
G02*
X157270000Y-90425000I0J-100000D01*
G01*
X157270000Y-90625000D01*
G75*
G02*
X157170000Y-90725000I-100000J0D01*
G01*
X155895000Y-90725000D01*
G75*
G02*
X155795000Y-90625000I0J100000D01*
G01*
G37*
G36*
G01*
X155795000Y-89975000D02*
X155795000Y-89775000D01*
G75*
G02*
X155895000Y-89675000I100000J0D01*
G01*
X157170000Y-89675000D01*
G75*
G02*
X157270000Y-89775000I0J-100000D01*
G01*
X157270000Y-89975000D01*
G75*
G02*
X157170000Y-90075000I-100000J0D01*
G01*
X155895000Y-90075000D01*
G75*
G02*
X155795000Y-89975000I0J100000D01*
G01*
G37*
G36*
G01*
X155795000Y-89325000D02*
X155795000Y-89125000D01*
G75*
G02*
X155895000Y-89025000I100000J0D01*
G01*
X157170000Y-89025000D01*
G75*
G02*
X157270000Y-89125000I0J-100000D01*
G01*
X157270000Y-89325000D01*
G75*
G02*
X157170000Y-89425000I-100000J0D01*
G01*
X155895000Y-89425000D01*
G75*
G02*
X155795000Y-89325000I0J100000D01*
G01*
G37*
G36*
G01*
X155795000Y-88675000D02*
X155795000Y-88475000D01*
G75*
G02*
X155895000Y-88375000I100000J0D01*
G01*
X157170000Y-88375000D01*
G75*
G02*
X157270000Y-88475000I0J-100000D01*
G01*
X157270000Y-88675000D01*
G75*
G02*
X157170000Y-88775000I-100000J0D01*
G01*
X155895000Y-88775000D01*
G75*
G02*
X155795000Y-88675000I0J100000D01*
G01*
G37*
G36*
G01*
X155795000Y-88025000D02*
X155795000Y-87825000D01*
G75*
G02*
X155895000Y-87725000I100000J0D01*
G01*
X157170000Y-87725000D01*
G75*
G02*
X157270000Y-87825000I0J-100000D01*
G01*
X157270000Y-88025000D01*
G75*
G02*
X157170000Y-88125000I-100000J0D01*
G01*
X155895000Y-88125000D01*
G75*
G02*
X155795000Y-88025000I0J100000D01*
G01*
G37*
G36*
G01*
X155795000Y-87375000D02*
X155795000Y-87175000D01*
G75*
G02*
X155895000Y-87075000I100000J0D01*
G01*
X157170000Y-87075000D01*
G75*
G02*
X157270000Y-87175000I0J-100000D01*
G01*
X157270000Y-87375000D01*
G75*
G02*
X157170000Y-87475000I-100000J0D01*
G01*
X155895000Y-87475000D01*
G75*
G02*
X155795000Y-87375000I0J100000D01*
G01*
G37*
G36*
G01*
X155795000Y-86725000D02*
X155795000Y-86525000D01*
G75*
G02*
X155895000Y-86425000I100000J0D01*
G01*
X157170000Y-86425000D01*
G75*
G02*
X157270000Y-86525000I0J-100000D01*
G01*
X157270000Y-86725000D01*
G75*
G02*
X157170000Y-86825000I-100000J0D01*
G01*
X155895000Y-86825000D01*
G75*
G02*
X155795000Y-86725000I0J100000D01*
G01*
G37*
G36*
G01*
X155795000Y-86075000D02*
X155795000Y-85875000D01*
G75*
G02*
X155895000Y-85775000I100000J0D01*
G01*
X157170000Y-85775000D01*
G75*
G02*
X157270000Y-85875000I0J-100000D01*
G01*
X157270000Y-86075000D01*
G75*
G02*
X157170000Y-86175000I-100000J0D01*
G01*
X155895000Y-86175000D01*
G75*
G02*
X155795000Y-86075000I0J100000D01*
G01*
G37*
D17*
X176022000Y-95885000D03*
D18*
X176022000Y-102185000D03*
X178322000Y-102185000D03*
X173722000Y-102185000D03*
G36*
G01*
X144803000Y-104542000D02*
X144503000Y-104542000D01*
G75*
G02*
X144353000Y-104392000I0J150000D01*
G01*
X144353000Y-102742000D01*
G75*
G02*
X144503000Y-102592000I150000J0D01*
G01*
X144803000Y-102592000D01*
G75*
G02*
X144953000Y-102742000I0J-150000D01*
G01*
X144953000Y-104392000D01*
G75*
G02*
X144803000Y-104542000I-150000J0D01*
G01*
G37*
G36*
G01*
X146073000Y-104542000D02*
X145773000Y-104542000D01*
G75*
G02*
X145623000Y-104392000I0J150000D01*
G01*
X145623000Y-102742000D01*
G75*
G02*
X145773000Y-102592000I150000J0D01*
G01*
X146073000Y-102592000D01*
G75*
G02*
X146223000Y-102742000I0J-150000D01*
G01*
X146223000Y-104392000D01*
G75*
G02*
X146073000Y-104542000I-150000J0D01*
G01*
G37*
G36*
G01*
X147343000Y-104542000D02*
X147043000Y-104542000D01*
G75*
G02*
X146893000Y-104392000I0J150000D01*
G01*
X146893000Y-102742000D01*
G75*
G02*
X147043000Y-102592000I150000J0D01*
G01*
X147343000Y-102592000D01*
G75*
G02*
X147493000Y-102742000I0J-150000D01*
G01*
X147493000Y-104392000D01*
G75*
G02*
X147343000Y-104542000I-150000J0D01*
G01*
G37*
G36*
G01*
X148613000Y-104542000D02*
X148313000Y-104542000D01*
G75*
G02*
X148163000Y-104392000I0J150000D01*
G01*
X148163000Y-102742000D01*
G75*
G02*
X148313000Y-102592000I150000J0D01*
G01*
X148613000Y-102592000D01*
G75*
G02*
X148763000Y-102742000I0J-150000D01*
G01*
X148763000Y-104392000D01*
G75*
G02*
X148613000Y-104542000I-150000J0D01*
G01*
G37*
G36*
G01*
X148613000Y-99592000D02*
X148313000Y-99592000D01*
G75*
G02*
X148163000Y-99442000I0J150000D01*
G01*
X148163000Y-97792000D01*
G75*
G02*
X148313000Y-97642000I150000J0D01*
G01*
X148613000Y-97642000D01*
G75*
G02*
X148763000Y-97792000I0J-150000D01*
G01*
X148763000Y-99442000D01*
G75*
G02*
X148613000Y-99592000I-150000J0D01*
G01*
G37*
G36*
G01*
X147343000Y-99592000D02*
X147043000Y-99592000D01*
G75*
G02*
X146893000Y-99442000I0J150000D01*
G01*
X146893000Y-97792000D01*
G75*
G02*
X147043000Y-97642000I150000J0D01*
G01*
X147343000Y-97642000D01*
G75*
G02*
X147493000Y-97792000I0J-150000D01*
G01*
X147493000Y-99442000D01*
G75*
G02*
X147343000Y-99592000I-150000J0D01*
G01*
G37*
G36*
G01*
X146073000Y-99592000D02*
X145773000Y-99592000D01*
G75*
G02*
X145623000Y-99442000I0J150000D01*
G01*
X145623000Y-97792000D01*
G75*
G02*
X145773000Y-97642000I150000J0D01*
G01*
X146073000Y-97642000D01*
G75*
G02*
X146223000Y-97792000I0J-150000D01*
G01*
X146223000Y-99442000D01*
G75*
G02*
X146073000Y-99592000I-150000J0D01*
G01*
G37*
G36*
G01*
X144803000Y-99592000D02*
X144503000Y-99592000D01*
G75*
G02*
X144353000Y-99442000I0J150000D01*
G01*
X144353000Y-97792000D01*
G75*
G02*
X144503000Y-97642000I150000J0D01*
G01*
X144803000Y-97642000D01*
G75*
G02*
X144953000Y-97792000I0J-150000D01*
G01*
X144953000Y-99442000D01*
G75*
G02*
X144803000Y-99592000I-150000J0D01*
G01*
G37*
M02*
