G04 #@! TF.GenerationSoftware,KiCad,Pcbnew,(5.1.8-0-10_14)*
G04 #@! TF.CreationDate,2021-01-04T15:14:14-05:00*
G04 #@! TF.ProjectId,toaster,746f6173-7465-4722-9e6b-696361645f70,rev?*
G04 #@! TF.SameCoordinates,Original*
G04 #@! TF.FileFunction,Paste,Bot*
G04 #@! TF.FilePolarity,Positive*
%FSLAX46Y46*%
G04 Gerber Fmt 4.6, Leading zero omitted, Abs format (unit mm)*
G04 Created by KiCad (PCBNEW (5.1.8-0-10_14)) date 2021-01-04 15:14:14*
%MOMM*%
%LPD*%
G01*
G04 APERTURE LIST*
%ADD10R,1.600000X1.400000*%
%ADD11R,1.350000X1.800000*%
G04 APERTURE END LIST*
G36*
G01*
X178947900Y-87122950D02*
X178947900Y-88035450D01*
G75*
G02*
X178704150Y-88279200I-243750J0D01*
G01*
X178216650Y-88279200D01*
G75*
G02*
X177972900Y-88035450I0J243750D01*
G01*
X177972900Y-87122950D01*
G75*
G02*
X178216650Y-86879200I243750J0D01*
G01*
X178704150Y-86879200D01*
G75*
G02*
X178947900Y-87122950I0J-243750D01*
G01*
G37*
G36*
G01*
X177072900Y-87122950D02*
X177072900Y-88035450D01*
G75*
G02*
X176829150Y-88279200I-243750J0D01*
G01*
X176341650Y-88279200D01*
G75*
G02*
X176097900Y-88035450I0J243750D01*
G01*
X176097900Y-87122950D01*
G75*
G02*
X176341650Y-86879200I243750J0D01*
G01*
X176829150Y-86879200D01*
G75*
G02*
X177072900Y-87122950I0J-243750D01*
G01*
G37*
G36*
G01*
X177068300Y-91390150D02*
X177068300Y-92302650D01*
G75*
G02*
X176824550Y-92546400I-243750J0D01*
G01*
X176337050Y-92546400D01*
G75*
G02*
X176093300Y-92302650I0J243750D01*
G01*
X176093300Y-91390150D01*
G75*
G02*
X176337050Y-91146400I243750J0D01*
G01*
X176824550Y-91146400D01*
G75*
G02*
X177068300Y-91390150I0J-243750D01*
G01*
G37*
G36*
G01*
X178943300Y-91390150D02*
X178943300Y-92302650D01*
G75*
G02*
X178699550Y-92546400I-243750J0D01*
G01*
X178212050Y-92546400D01*
G75*
G02*
X177968300Y-92302650I0J243750D01*
G01*
X177968300Y-91390150D01*
G75*
G02*
X178212050Y-91146400I243750J0D01*
G01*
X178699550Y-91146400D01*
G75*
G02*
X178943300Y-91390150I0J-243750D01*
G01*
G37*
D10*
X141296000Y-99217000D03*
X145796000Y-99217000D03*
X145796000Y-90817000D03*
X141296000Y-90817000D03*
D11*
X159172000Y-83566000D03*
X163322000Y-83566000D03*
M02*
