G04 #@! TF.GenerationSoftware,KiCad,Pcbnew,(5.1.8-0-10_14)*
G04 #@! TF.CreationDate,2021-03-05T16:46:23-05:00*
G04 #@! TF.ProjectId,v1,76312e6b-6963-4616-945f-706362585858,rev?*
G04 #@! TF.SameCoordinates,Original*
G04 #@! TF.FileFunction,Paste,Bot*
G04 #@! TF.FilePolarity,Positive*
%FSLAX46Y46*%
G04 Gerber Fmt 4.6, Leading zero omitted, Abs format (unit mm)*
G04 Created by KiCad (PCBNEW (5.1.8-0-10_14)) date 2021-03-05 16:46:23*
%MOMM*%
%LPD*%
G01*
G04 APERTURE LIST*
%ADD10R,3.760000X1.960000*%
%ADD11R,1.460000X1.960000*%
%ADD12R,1.160000X1.160000*%
%ADD13R,1.560000X1.460000*%
%ADD14R,0.760000X0.860000*%
%ADD15R,0.260000X1.210000*%
%ADD16R,1.960000X2.960000*%
%ADD17R,0.410000X0.560000*%
%ADD18R,2.260000X2.260000*%
%ADD19R,0.950600X1.509400*%
G04 APERTURE END LIST*
G36*
G01*
X161353800Y-90301000D02*
X161073800Y-90301000D01*
G75*
G02*
X160933800Y-90161000I0J140000D01*
G01*
X160933800Y-88531000D01*
G75*
G02*
X161073800Y-88391000I140000J0D01*
G01*
X161353800Y-88391000D01*
G75*
G02*
X161493800Y-88531000I0J-140000D01*
G01*
X161493800Y-90161000D01*
G75*
G02*
X161353800Y-90301000I-140000J0D01*
G01*
G37*
G36*
G01*
X160083800Y-90301000D02*
X159803800Y-90301000D01*
G75*
G02*
X159663800Y-90161000I0J140000D01*
G01*
X159663800Y-88531000D01*
G75*
G02*
X159803800Y-88391000I140000J0D01*
G01*
X160083800Y-88391000D01*
G75*
G02*
X160223800Y-88531000I0J-140000D01*
G01*
X160223800Y-90161000D01*
G75*
G02*
X160083800Y-90301000I-140000J0D01*
G01*
G37*
G36*
G01*
X158813800Y-90301000D02*
X158533800Y-90301000D01*
G75*
G02*
X158393800Y-90161000I0J140000D01*
G01*
X158393800Y-88531000D01*
G75*
G02*
X158533800Y-88391000I140000J0D01*
G01*
X158813800Y-88391000D01*
G75*
G02*
X158953800Y-88531000I0J-140000D01*
G01*
X158953800Y-90161000D01*
G75*
G02*
X158813800Y-90301000I-140000J0D01*
G01*
G37*
G36*
G01*
X157543800Y-90301000D02*
X157263800Y-90301000D01*
G75*
G02*
X157123800Y-90161000I0J140000D01*
G01*
X157123800Y-88531000D01*
G75*
G02*
X157263800Y-88391000I140000J0D01*
G01*
X157543800Y-88391000D01*
G75*
G02*
X157683800Y-88531000I0J-140000D01*
G01*
X157683800Y-90161000D01*
G75*
G02*
X157543800Y-90301000I-140000J0D01*
G01*
G37*
G36*
G01*
X157543800Y-95251000D02*
X157263800Y-95251000D01*
G75*
G02*
X157123800Y-95111000I0J140000D01*
G01*
X157123800Y-93481000D01*
G75*
G02*
X157263800Y-93341000I140000J0D01*
G01*
X157543800Y-93341000D01*
G75*
G02*
X157683800Y-93481000I0J-140000D01*
G01*
X157683800Y-95111000D01*
G75*
G02*
X157543800Y-95251000I-140000J0D01*
G01*
G37*
G36*
G01*
X158813800Y-95251000D02*
X158533800Y-95251000D01*
G75*
G02*
X158393800Y-95111000I0J140000D01*
G01*
X158393800Y-93481000D01*
G75*
G02*
X158533800Y-93341000I140000J0D01*
G01*
X158813800Y-93341000D01*
G75*
G02*
X158953800Y-93481000I0J-140000D01*
G01*
X158953800Y-95111000D01*
G75*
G02*
X158813800Y-95251000I-140000J0D01*
G01*
G37*
G36*
G01*
X160083800Y-95251000D02*
X159803800Y-95251000D01*
G75*
G02*
X159663800Y-95111000I0J140000D01*
G01*
X159663800Y-93481000D01*
G75*
G02*
X159803800Y-93341000I140000J0D01*
G01*
X160083800Y-93341000D01*
G75*
G02*
X160223800Y-93481000I0J-140000D01*
G01*
X160223800Y-95111000D01*
G75*
G02*
X160083800Y-95251000I-140000J0D01*
G01*
G37*
G36*
G01*
X161353800Y-95251000D02*
X161073800Y-95251000D01*
G75*
G02*
X160933800Y-95111000I0J140000D01*
G01*
X160933800Y-93481000D01*
G75*
G02*
X161073800Y-93341000I140000J0D01*
G01*
X161353800Y-93341000D01*
G75*
G02*
X161493800Y-93481000I0J-140000D01*
G01*
X161493800Y-95111000D01*
G75*
G02*
X161353800Y-95251000I-140000J0D01*
G01*
G37*
D10*
X137718800Y-94716200D03*
D11*
X137718800Y-101016200D03*
X135418800Y-101016200D03*
X140018800Y-101016200D03*
G36*
G01*
X169410400Y-87136000D02*
X169230400Y-87136000D01*
G75*
G02*
X169140400Y-87046000I0J90000D01*
G01*
X169140400Y-85791000D01*
G75*
G02*
X169230400Y-85701000I90000J0D01*
G01*
X169410400Y-85701000D01*
G75*
G02*
X169500400Y-85791000I0J-90000D01*
G01*
X169500400Y-87046000D01*
G75*
G02*
X169410400Y-87136000I-90000J0D01*
G01*
G37*
G36*
G01*
X168760400Y-87136000D02*
X168580400Y-87136000D01*
G75*
G02*
X168490400Y-87046000I0J90000D01*
G01*
X168490400Y-85791000D01*
G75*
G02*
X168580400Y-85701000I90000J0D01*
G01*
X168760400Y-85701000D01*
G75*
G02*
X168850400Y-85791000I0J-90000D01*
G01*
X168850400Y-87046000D01*
G75*
G02*
X168760400Y-87136000I-90000J0D01*
G01*
G37*
G36*
G01*
X168110400Y-87136000D02*
X167930400Y-87136000D01*
G75*
G02*
X167840400Y-87046000I0J90000D01*
G01*
X167840400Y-85791000D01*
G75*
G02*
X167930400Y-85701000I90000J0D01*
G01*
X168110400Y-85701000D01*
G75*
G02*
X168200400Y-85791000I0J-90000D01*
G01*
X168200400Y-87046000D01*
G75*
G02*
X168110400Y-87136000I-90000J0D01*
G01*
G37*
G36*
G01*
X167460400Y-87136000D02*
X167280400Y-87136000D01*
G75*
G02*
X167190400Y-87046000I0J90000D01*
G01*
X167190400Y-85791000D01*
G75*
G02*
X167280400Y-85701000I90000J0D01*
G01*
X167460400Y-85701000D01*
G75*
G02*
X167550400Y-85791000I0J-90000D01*
G01*
X167550400Y-87046000D01*
G75*
G02*
X167460400Y-87136000I-90000J0D01*
G01*
G37*
G36*
G01*
X166810400Y-87136000D02*
X166630400Y-87136000D01*
G75*
G02*
X166540400Y-87046000I0J90000D01*
G01*
X166540400Y-85791000D01*
G75*
G02*
X166630400Y-85701000I90000J0D01*
G01*
X166810400Y-85701000D01*
G75*
G02*
X166900400Y-85791000I0J-90000D01*
G01*
X166900400Y-87046000D01*
G75*
G02*
X166810400Y-87136000I-90000J0D01*
G01*
G37*
G36*
G01*
X166160400Y-87136000D02*
X165980400Y-87136000D01*
G75*
G02*
X165890400Y-87046000I0J90000D01*
G01*
X165890400Y-85791000D01*
G75*
G02*
X165980400Y-85701000I90000J0D01*
G01*
X166160400Y-85701000D01*
G75*
G02*
X166250400Y-85791000I0J-90000D01*
G01*
X166250400Y-87046000D01*
G75*
G02*
X166160400Y-87136000I-90000J0D01*
G01*
G37*
G36*
G01*
X165510400Y-87136000D02*
X165330400Y-87136000D01*
G75*
G02*
X165240400Y-87046000I0J90000D01*
G01*
X165240400Y-85791000D01*
G75*
G02*
X165330400Y-85701000I90000J0D01*
G01*
X165510400Y-85701000D01*
G75*
G02*
X165600400Y-85791000I0J-90000D01*
G01*
X165600400Y-87046000D01*
G75*
G02*
X165510400Y-87136000I-90000J0D01*
G01*
G37*
G36*
G01*
X164860400Y-87136000D02*
X164680400Y-87136000D01*
G75*
G02*
X164590400Y-87046000I0J90000D01*
G01*
X164590400Y-85791000D01*
G75*
G02*
X164680400Y-85701000I90000J0D01*
G01*
X164860400Y-85701000D01*
G75*
G02*
X164950400Y-85791000I0J-90000D01*
G01*
X164950400Y-87046000D01*
G75*
G02*
X164860400Y-87136000I-90000J0D01*
G01*
G37*
G36*
G01*
X164210400Y-87136000D02*
X164030400Y-87136000D01*
G75*
G02*
X163940400Y-87046000I0J90000D01*
G01*
X163940400Y-85791000D01*
G75*
G02*
X164030400Y-85701000I90000J0D01*
G01*
X164210400Y-85701000D01*
G75*
G02*
X164300400Y-85791000I0J-90000D01*
G01*
X164300400Y-87046000D01*
G75*
G02*
X164210400Y-87136000I-90000J0D01*
G01*
G37*
G36*
G01*
X163560400Y-87136000D02*
X163380400Y-87136000D01*
G75*
G02*
X163290400Y-87046000I0J90000D01*
G01*
X163290400Y-85791000D01*
G75*
G02*
X163380400Y-85701000I90000J0D01*
G01*
X163560400Y-85701000D01*
G75*
G02*
X163650400Y-85791000I0J-90000D01*
G01*
X163650400Y-87046000D01*
G75*
G02*
X163560400Y-87136000I-90000J0D01*
G01*
G37*
G36*
G01*
X163560400Y-92861000D02*
X163380400Y-92861000D01*
G75*
G02*
X163290400Y-92771000I0J90000D01*
G01*
X163290400Y-91516000D01*
G75*
G02*
X163380400Y-91426000I90000J0D01*
G01*
X163560400Y-91426000D01*
G75*
G02*
X163650400Y-91516000I0J-90000D01*
G01*
X163650400Y-92771000D01*
G75*
G02*
X163560400Y-92861000I-90000J0D01*
G01*
G37*
G36*
G01*
X164210400Y-92861000D02*
X164030400Y-92861000D01*
G75*
G02*
X163940400Y-92771000I0J90000D01*
G01*
X163940400Y-91516000D01*
G75*
G02*
X164030400Y-91426000I90000J0D01*
G01*
X164210400Y-91426000D01*
G75*
G02*
X164300400Y-91516000I0J-90000D01*
G01*
X164300400Y-92771000D01*
G75*
G02*
X164210400Y-92861000I-90000J0D01*
G01*
G37*
G36*
G01*
X164860400Y-92861000D02*
X164680400Y-92861000D01*
G75*
G02*
X164590400Y-92771000I0J90000D01*
G01*
X164590400Y-91516000D01*
G75*
G02*
X164680400Y-91426000I90000J0D01*
G01*
X164860400Y-91426000D01*
G75*
G02*
X164950400Y-91516000I0J-90000D01*
G01*
X164950400Y-92771000D01*
G75*
G02*
X164860400Y-92861000I-90000J0D01*
G01*
G37*
G36*
G01*
X165510400Y-92861000D02*
X165330400Y-92861000D01*
G75*
G02*
X165240400Y-92771000I0J90000D01*
G01*
X165240400Y-91516000D01*
G75*
G02*
X165330400Y-91426000I90000J0D01*
G01*
X165510400Y-91426000D01*
G75*
G02*
X165600400Y-91516000I0J-90000D01*
G01*
X165600400Y-92771000D01*
G75*
G02*
X165510400Y-92861000I-90000J0D01*
G01*
G37*
G36*
G01*
X166160400Y-92861000D02*
X165980400Y-92861000D01*
G75*
G02*
X165890400Y-92771000I0J90000D01*
G01*
X165890400Y-91516000D01*
G75*
G02*
X165980400Y-91426000I90000J0D01*
G01*
X166160400Y-91426000D01*
G75*
G02*
X166250400Y-91516000I0J-90000D01*
G01*
X166250400Y-92771000D01*
G75*
G02*
X166160400Y-92861000I-90000J0D01*
G01*
G37*
G36*
G01*
X166810400Y-92861000D02*
X166630400Y-92861000D01*
G75*
G02*
X166540400Y-92771000I0J90000D01*
G01*
X166540400Y-91516000D01*
G75*
G02*
X166630400Y-91426000I90000J0D01*
G01*
X166810400Y-91426000D01*
G75*
G02*
X166900400Y-91516000I0J-90000D01*
G01*
X166900400Y-92771000D01*
G75*
G02*
X166810400Y-92861000I-90000J0D01*
G01*
G37*
G36*
G01*
X167460400Y-92861000D02*
X167280400Y-92861000D01*
G75*
G02*
X167190400Y-92771000I0J90000D01*
G01*
X167190400Y-91516000D01*
G75*
G02*
X167280400Y-91426000I90000J0D01*
G01*
X167460400Y-91426000D01*
G75*
G02*
X167550400Y-91516000I0J-90000D01*
G01*
X167550400Y-92771000D01*
G75*
G02*
X167460400Y-92861000I-90000J0D01*
G01*
G37*
G36*
G01*
X168110400Y-92861000D02*
X167930400Y-92861000D01*
G75*
G02*
X167840400Y-92771000I0J90000D01*
G01*
X167840400Y-91516000D01*
G75*
G02*
X167930400Y-91426000I90000J0D01*
G01*
X168110400Y-91426000D01*
G75*
G02*
X168200400Y-91516000I0J-90000D01*
G01*
X168200400Y-92771000D01*
G75*
G02*
X168110400Y-92861000I-90000J0D01*
G01*
G37*
G36*
G01*
X168760400Y-92861000D02*
X168580400Y-92861000D01*
G75*
G02*
X168490400Y-92771000I0J90000D01*
G01*
X168490400Y-91516000D01*
G75*
G02*
X168580400Y-91426000I90000J0D01*
G01*
X168760400Y-91426000D01*
G75*
G02*
X168850400Y-91516000I0J-90000D01*
G01*
X168850400Y-92771000D01*
G75*
G02*
X168760400Y-92861000I-90000J0D01*
G01*
G37*
G36*
G01*
X169410400Y-92861000D02*
X169230400Y-92861000D01*
G75*
G02*
X169140400Y-92771000I0J90000D01*
G01*
X169140400Y-91516000D01*
G75*
G02*
X169230400Y-91426000I90000J0D01*
G01*
X169410400Y-91426000D01*
G75*
G02*
X169500400Y-91516000I0J-90000D01*
G01*
X169500400Y-92771000D01*
G75*
G02*
X169410400Y-92861000I-90000J0D01*
G01*
G37*
D12*
X152155400Y-101215600D03*
X150155400Y-101215600D03*
D13*
X151155400Y-97965600D03*
G36*
G01*
X157945200Y-81538742D02*
X157945200Y-82418258D01*
G75*
G02*
X157704958Y-82658500I-240242J0D01*
G01*
X157200442Y-82658500D01*
G75*
G02*
X156960200Y-82418258I0J240242D01*
G01*
X156960200Y-81538742D01*
G75*
G02*
X157200442Y-81298500I240242J0D01*
G01*
X157704958Y-81298500D01*
G75*
G02*
X157945200Y-81538742I0J-240242D01*
G01*
G37*
G36*
G01*
X156120200Y-81538742D02*
X156120200Y-82418258D01*
G75*
G02*
X155879958Y-82658500I-240242J0D01*
G01*
X155375442Y-82658500D01*
G75*
G02*
X155135200Y-82418258I0J240242D01*
G01*
X155135200Y-81538742D01*
G75*
G02*
X155375442Y-81298500I240242J0D01*
G01*
X155879958Y-81298500D01*
G75*
G02*
X156120200Y-81538742I0J-240242D01*
G01*
G37*
G36*
G01*
X136736158Y-83599400D02*
X135856642Y-83599400D01*
G75*
G02*
X135616400Y-83359158I0J240242D01*
G01*
X135616400Y-82854642D01*
G75*
G02*
X135856642Y-82614400I240242J0D01*
G01*
X136736158Y-82614400D01*
G75*
G02*
X136976400Y-82854642I0J-240242D01*
G01*
X136976400Y-83359158D01*
G75*
G02*
X136736158Y-83599400I-240242J0D01*
G01*
G37*
G36*
G01*
X136736158Y-81774400D02*
X135856642Y-81774400D01*
G75*
G02*
X135616400Y-81534158I0J240242D01*
G01*
X135616400Y-81029642D01*
G75*
G02*
X135856642Y-80789400I240242J0D01*
G01*
X136736158Y-80789400D01*
G75*
G02*
X136976400Y-81029642I0J-240242D01*
G01*
X136976400Y-81534158D01*
G75*
G02*
X136736158Y-81774400I-240242J0D01*
G01*
G37*
G36*
G01*
X145629400Y-98178958D02*
X145629400Y-97299442D01*
G75*
G02*
X145869642Y-97059200I240242J0D01*
G01*
X146374158Y-97059200D01*
G75*
G02*
X146614400Y-97299442I0J-240242D01*
G01*
X146614400Y-98178958D01*
G75*
G02*
X146374158Y-98419200I-240242J0D01*
G01*
X145869642Y-98419200D01*
G75*
G02*
X145629400Y-98178958I0J240242D01*
G01*
G37*
G36*
G01*
X147454400Y-98178958D02*
X147454400Y-97299442D01*
G75*
G02*
X147694642Y-97059200I240242J0D01*
G01*
X148199158Y-97059200D01*
G75*
G02*
X148439400Y-97299442I0J-240242D01*
G01*
X148439400Y-98178958D01*
G75*
G02*
X148199158Y-98419200I-240242J0D01*
G01*
X147694642Y-98419200D01*
G75*
G02*
X147454400Y-98178958I0J240242D01*
G01*
G37*
G36*
G01*
X141895600Y-98170492D02*
X141895600Y-97290976D01*
G75*
G02*
X142135842Y-97050734I240242J0D01*
G01*
X142640358Y-97050734D01*
G75*
G02*
X142880600Y-97290976I0J-240242D01*
G01*
X142880600Y-98170492D01*
G75*
G02*
X142640358Y-98410734I-240242J0D01*
G01*
X142135842Y-98410734D01*
G75*
G02*
X141895600Y-98170492I0J240242D01*
G01*
G37*
G36*
G01*
X143720600Y-98170492D02*
X143720600Y-97290976D01*
G75*
G02*
X143960842Y-97050734I240242J0D01*
G01*
X144465358Y-97050734D01*
G75*
G02*
X144705600Y-97290976I0J-240242D01*
G01*
X144705600Y-98170492D01*
G75*
G02*
X144465358Y-98410734I-240242J0D01*
G01*
X143960842Y-98410734D01*
G75*
G02*
X143720600Y-98170492I0J240242D01*
G01*
G37*
G36*
G01*
X159377042Y-101308800D02*
X160256558Y-101308800D01*
G75*
G02*
X160496800Y-101549042I0J-240242D01*
G01*
X160496800Y-102053558D01*
G75*
G02*
X160256558Y-102293800I-240242J0D01*
G01*
X159377042Y-102293800D01*
G75*
G02*
X159136800Y-102053558I0J240242D01*
G01*
X159136800Y-101549042D01*
G75*
G02*
X159377042Y-101308800I240242J0D01*
G01*
G37*
G36*
G01*
X159377042Y-99483800D02*
X160256558Y-99483800D01*
G75*
G02*
X160496800Y-99724042I0J-240242D01*
G01*
X160496800Y-100228558D01*
G75*
G02*
X160256558Y-100468800I-240242J0D01*
G01*
X159377042Y-100468800D01*
G75*
G02*
X159136800Y-100228558I0J240242D01*
G01*
X159136800Y-99724042D01*
G75*
G02*
X159377042Y-99483800I240242J0D01*
G01*
G37*
G36*
G01*
X172171058Y-82614500D02*
X171291542Y-82614500D01*
G75*
G02*
X171051300Y-82374258I0J240242D01*
G01*
X171051300Y-81869742D01*
G75*
G02*
X171291542Y-81629500I240242J0D01*
G01*
X172171058Y-81629500D01*
G75*
G02*
X172411300Y-81869742I0J-240242D01*
G01*
X172411300Y-82374258D01*
G75*
G02*
X172171058Y-82614500I-240242J0D01*
G01*
G37*
G36*
G01*
X172171058Y-84439500D02*
X171291542Y-84439500D01*
G75*
G02*
X171051300Y-84199258I0J240242D01*
G01*
X171051300Y-83694742D01*
G75*
G02*
X171291542Y-83454500I240242J0D01*
G01*
X172171058Y-83454500D01*
G75*
G02*
X172411300Y-83694742I0J-240242D01*
G01*
X172411300Y-84199258D01*
G75*
G02*
X172171058Y-84439500I-240242J0D01*
G01*
G37*
G36*
G01*
X150106000Y-96146958D02*
X150106000Y-95267442D01*
G75*
G02*
X150346242Y-95027200I240242J0D01*
G01*
X150850758Y-95027200D01*
G75*
G02*
X151091000Y-95267442I0J-240242D01*
G01*
X151091000Y-96146958D01*
G75*
G02*
X150850758Y-96387200I-240242J0D01*
G01*
X150346242Y-96387200D01*
G75*
G02*
X150106000Y-96146958I0J240242D01*
G01*
G37*
G36*
G01*
X151931000Y-96146958D02*
X151931000Y-95267442D01*
G75*
G02*
X152171242Y-95027200I240242J0D01*
G01*
X152675758Y-95027200D01*
G75*
G02*
X152916000Y-95267442I0J-240242D01*
G01*
X152916000Y-96146958D01*
G75*
G02*
X152675758Y-96387200I-240242J0D01*
G01*
X152171242Y-96387200D01*
G75*
G02*
X151931000Y-96146958I0J240242D01*
G01*
G37*
G36*
G01*
X172143758Y-88249500D02*
X171264242Y-88249500D01*
G75*
G02*
X171024000Y-88009258I0J240242D01*
G01*
X171024000Y-87504742D01*
G75*
G02*
X171264242Y-87264500I240242J0D01*
G01*
X172143758Y-87264500D01*
G75*
G02*
X172384000Y-87504742I0J-240242D01*
G01*
X172384000Y-88009258D01*
G75*
G02*
X172143758Y-88249500I-240242J0D01*
G01*
G37*
G36*
G01*
X172143758Y-90074500D02*
X171264242Y-90074500D01*
G75*
G02*
X171024000Y-89834258I0J240242D01*
G01*
X171024000Y-89329742D01*
G75*
G02*
X171264242Y-89089500I240242J0D01*
G01*
X172143758Y-89089500D01*
G75*
G02*
X172384000Y-89329742I0J-240242D01*
G01*
X172384000Y-89834258D01*
G75*
G02*
X172143758Y-90074500I-240242J0D01*
G01*
G37*
G36*
G01*
X131487800Y-91295558D02*
X131487800Y-90416042D01*
G75*
G02*
X131728042Y-90175800I240242J0D01*
G01*
X132232558Y-90175800D01*
G75*
G02*
X132472800Y-90416042I0J-240242D01*
G01*
X132472800Y-91295558D01*
G75*
G02*
X132232558Y-91535800I-240242J0D01*
G01*
X131728042Y-91535800D01*
G75*
G02*
X131487800Y-91295558I0J240242D01*
G01*
G37*
G36*
G01*
X133312800Y-91295558D02*
X133312800Y-90416042D01*
G75*
G02*
X133553042Y-90175800I240242J0D01*
G01*
X134057558Y-90175800D01*
G75*
G02*
X134297800Y-90416042I0J-240242D01*
G01*
X134297800Y-91295558D01*
G75*
G02*
X134057558Y-91535800I-240242J0D01*
G01*
X133553042Y-91535800D01*
G75*
G02*
X133312800Y-91295558I0J240242D01*
G01*
G37*
D14*
X146014400Y-99592468D03*
X147914400Y-99592468D03*
X146964400Y-101592468D03*
X142280600Y-99584000D03*
X144180600Y-99584000D03*
X143230600Y-101584000D03*
D15*
X138392000Y-91352000D03*
D16*
X136852000Y-89027000D03*
X154432000Y-89027000D03*
D15*
X138892000Y-91352000D03*
X139392000Y-91352000D03*
X139892000Y-91352000D03*
X140392000Y-91352000D03*
X140892000Y-91352000D03*
X141392000Y-91352000D03*
X141892000Y-91352000D03*
X142392000Y-91352000D03*
X142892000Y-91352000D03*
X143392000Y-91352000D03*
X143892000Y-91352000D03*
X144392000Y-91352000D03*
X144892000Y-91352000D03*
X145392000Y-91352000D03*
X145892000Y-91352000D03*
X146392000Y-91352000D03*
X146892000Y-91352000D03*
X147392000Y-91352000D03*
X147892000Y-91352000D03*
X148392000Y-91352000D03*
X148892000Y-91352000D03*
X149392000Y-91352000D03*
X149892000Y-91352000D03*
X150392000Y-91352000D03*
X150892000Y-91352000D03*
X151392000Y-91352000D03*
X151892000Y-91352000D03*
X152392000Y-91352000D03*
X152892000Y-91352000D03*
D17*
X161899600Y-101286600D03*
X161899600Y-103386600D03*
G36*
G01*
X154856000Y-93058000D02*
X155786000Y-93058000D01*
G75*
G02*
X156026000Y-93298000I0J-240000D01*
G01*
X156026000Y-93778000D01*
G75*
G02*
X155786000Y-94018000I-240000J0D01*
G01*
X154856000Y-94018000D01*
G75*
G02*
X154616000Y-93778000I0J240000D01*
G01*
X154616000Y-93298000D01*
G75*
G02*
X154856000Y-93058000I240000J0D01*
G01*
G37*
G36*
G01*
X154856000Y-94958000D02*
X155786000Y-94958000D01*
G75*
G02*
X156026000Y-95198000I0J-240000D01*
G01*
X156026000Y-95678000D01*
G75*
G02*
X155786000Y-95918000I-240000J0D01*
G01*
X154856000Y-95918000D01*
G75*
G02*
X154616000Y-95678000I0J240000D01*
G01*
X154616000Y-95198000D01*
G75*
G02*
X154856000Y-94958000I240000J0D01*
G01*
G37*
G36*
G01*
X158473000Y-97579000D02*
X158473000Y-98509000D01*
G75*
G02*
X158233000Y-98749000I-240000J0D01*
G01*
X157753000Y-98749000D01*
G75*
G02*
X157513000Y-98509000I0J240000D01*
G01*
X157513000Y-97579000D01*
G75*
G02*
X157753000Y-97339000I240000J0D01*
G01*
X158233000Y-97339000D01*
G75*
G02*
X158473000Y-97579000I0J-240000D01*
G01*
G37*
G36*
G01*
X160373000Y-97579000D02*
X160373000Y-98509000D01*
G75*
G02*
X160133000Y-98749000I-240000J0D01*
G01*
X159653000Y-98749000D01*
G75*
G02*
X159413000Y-98509000I0J240000D01*
G01*
X159413000Y-97579000D01*
G75*
G02*
X159653000Y-97339000I240000J0D01*
G01*
X160133000Y-97339000D01*
G75*
G02*
X160373000Y-97579000I0J-240000D01*
G01*
G37*
G36*
G01*
X132480391Y-93781200D02*
X133305209Y-93781200D01*
G75*
G02*
X133547800Y-94023791I0J-242591D01*
G01*
X133547800Y-94898609D01*
G75*
G02*
X133305209Y-95141200I-242591J0D01*
G01*
X132480391Y-95141200D01*
G75*
G02*
X132237800Y-94898609I0J242591D01*
G01*
X132237800Y-94023791D01*
G75*
G02*
X132480391Y-93781200I242591J0D01*
G01*
G37*
G36*
G01*
X132480391Y-96481200D02*
X133305209Y-96481200D01*
G75*
G02*
X133547800Y-96723791I0J-242591D01*
G01*
X133547800Y-97598609D01*
G75*
G02*
X133305209Y-97841200I-242591J0D01*
G01*
X132480391Y-97841200D01*
G75*
G02*
X132237800Y-97598609I0J242591D01*
G01*
X132237800Y-96723791D01*
G75*
G02*
X132480391Y-96481200I242591J0D01*
G01*
G37*
G36*
G01*
X132497800Y-99136200D02*
X133427800Y-99136200D01*
G75*
G02*
X133667800Y-99376200I0J-240000D01*
G01*
X133667800Y-99856200D01*
G75*
G02*
X133427800Y-100096200I-240000J0D01*
G01*
X132497800Y-100096200D01*
G75*
G02*
X132257800Y-99856200I0J240000D01*
G01*
X132257800Y-99376200D01*
G75*
G02*
X132497800Y-99136200I240000J0D01*
G01*
G37*
G36*
G01*
X132497800Y-101036200D02*
X133427800Y-101036200D01*
G75*
G02*
X133667800Y-101276200I0J-240000D01*
G01*
X133667800Y-101756200D01*
G75*
G02*
X133427800Y-101996200I-240000J0D01*
G01*
X132497800Y-101996200D01*
G75*
G02*
X132257800Y-101756200I0J240000D01*
G01*
X132257800Y-101276200D01*
G75*
G02*
X132497800Y-101036200I240000J0D01*
G01*
G37*
G36*
G01*
X164183000Y-93896000D02*
X164183000Y-94826000D01*
G75*
G02*
X163943000Y-95066000I-240000J0D01*
G01*
X163463000Y-95066000D01*
G75*
G02*
X163223000Y-94826000I0J240000D01*
G01*
X163223000Y-93896000D01*
G75*
G02*
X163463000Y-93656000I240000J0D01*
G01*
X163943000Y-93656000D01*
G75*
G02*
X164183000Y-93896000I0J-240000D01*
G01*
G37*
G36*
G01*
X166083000Y-93896000D02*
X166083000Y-94826000D01*
G75*
G02*
X165843000Y-95066000I-240000J0D01*
G01*
X165363000Y-95066000D01*
G75*
G02*
X165123000Y-94826000I0J240000D01*
G01*
X165123000Y-93896000D01*
G75*
G02*
X165363000Y-93656000I240000J0D01*
G01*
X165843000Y-93656000D01*
G75*
G02*
X166083000Y-93896000I0J-240000D01*
G01*
G37*
G36*
G01*
X162364600Y-98310600D02*
X161434600Y-98310600D01*
G75*
G02*
X161194600Y-98070600I0J240000D01*
G01*
X161194600Y-97590600D01*
G75*
G02*
X161434600Y-97350600I240000J0D01*
G01*
X162364600Y-97350600D01*
G75*
G02*
X162604600Y-97590600I0J-240000D01*
G01*
X162604600Y-98070600D01*
G75*
G02*
X162364600Y-98310600I-240000J0D01*
G01*
G37*
G36*
G01*
X162364600Y-100210600D02*
X161434600Y-100210600D01*
G75*
G02*
X161194600Y-99970600I0J240000D01*
G01*
X161194600Y-99490600D01*
G75*
G02*
X161434600Y-99250600I240000J0D01*
G01*
X162364600Y-99250600D01*
G75*
G02*
X162604600Y-99490600I0J-240000D01*
G01*
X162604600Y-99970600D01*
G75*
G02*
X162364600Y-100210600I-240000J0D01*
G01*
G37*
G36*
G01*
X145752800Y-95191400D02*
X145752800Y-96121400D01*
G75*
G02*
X145512800Y-96361400I-240000J0D01*
G01*
X145032800Y-96361400D01*
G75*
G02*
X144792800Y-96121400I0J240000D01*
G01*
X144792800Y-95191400D01*
G75*
G02*
X145032800Y-94951400I240000J0D01*
G01*
X145512800Y-94951400D01*
G75*
G02*
X145752800Y-95191400I0J-240000D01*
G01*
G37*
G36*
G01*
X143852800Y-95191400D02*
X143852800Y-96121400D01*
G75*
G02*
X143612800Y-96361400I-240000J0D01*
G01*
X143132800Y-96361400D01*
G75*
G02*
X142892800Y-96121400I0J240000D01*
G01*
X142892800Y-95191400D01*
G75*
G02*
X143132800Y-94951400I240000J0D01*
G01*
X143612800Y-94951400D01*
G75*
G02*
X143852800Y-95191400I0J-240000D01*
G01*
G37*
G36*
G01*
X146499600Y-96146800D02*
X146499600Y-95216800D01*
G75*
G02*
X146739600Y-94976800I240000J0D01*
G01*
X147219600Y-94976800D01*
G75*
G02*
X147459600Y-95216800I0J-240000D01*
G01*
X147459600Y-96146800D01*
G75*
G02*
X147219600Y-96386800I-240000J0D01*
G01*
X146739600Y-96386800D01*
G75*
G02*
X146499600Y-96146800I0J240000D01*
G01*
G37*
G36*
G01*
X148399600Y-96146800D02*
X148399600Y-95216800D01*
G75*
G02*
X148639600Y-94976800I240000J0D01*
G01*
X149119600Y-94976800D01*
G75*
G02*
X149359600Y-95216800I0J-240000D01*
G01*
X149359600Y-96146800D01*
G75*
G02*
X149119600Y-96386800I-240000J0D01*
G01*
X148639600Y-96386800D01*
G75*
G02*
X148399600Y-96146800I0J240000D01*
G01*
G37*
G36*
G01*
X172169000Y-92047000D02*
X171239000Y-92047000D01*
G75*
G02*
X170999000Y-91807000I0J240000D01*
G01*
X170999000Y-91327000D01*
G75*
G02*
X171239000Y-91087000I240000J0D01*
G01*
X172169000Y-91087000D01*
G75*
G02*
X172409000Y-91327000I0J-240000D01*
G01*
X172409000Y-91807000D01*
G75*
G02*
X172169000Y-92047000I-240000J0D01*
G01*
G37*
G36*
G01*
X172169000Y-93947000D02*
X171239000Y-93947000D01*
G75*
G02*
X170999000Y-93707000I0J240000D01*
G01*
X170999000Y-93227000D01*
G75*
G02*
X171239000Y-92987000I240000J0D01*
G01*
X172169000Y-92987000D01*
G75*
G02*
X172409000Y-93227000I0J-240000D01*
G01*
X172409000Y-93707000D01*
G75*
G02*
X172169000Y-93947000I-240000J0D01*
G01*
G37*
G36*
G01*
X134342800Y-88358800D02*
X134342800Y-89288800D01*
G75*
G02*
X134102800Y-89528800I-240000J0D01*
G01*
X133622800Y-89528800D01*
G75*
G02*
X133382800Y-89288800I0J240000D01*
G01*
X133382800Y-88358800D01*
G75*
G02*
X133622800Y-88118800I240000J0D01*
G01*
X134102800Y-88118800D01*
G75*
G02*
X134342800Y-88358800I0J-240000D01*
G01*
G37*
G36*
G01*
X132442800Y-88358800D02*
X132442800Y-89288800D01*
G75*
G02*
X132202800Y-89528800I-240000J0D01*
G01*
X131722800Y-89528800D01*
G75*
G02*
X131482800Y-89288800I0J240000D01*
G01*
X131482800Y-88358800D01*
G75*
G02*
X131722800Y-88118800I240000J0D01*
G01*
X132202800Y-88118800D01*
G75*
G02*
X132442800Y-88358800I0J-240000D01*
G01*
G37*
D18*
X164496400Y-104013000D03*
X164496400Y-96913000D03*
X171596400Y-96913000D03*
X171596400Y-104013000D03*
D19*
X133896100Y-81394300D03*
X133896100Y-86652100D03*
X132143500Y-81394300D03*
X132143500Y-86652100D03*
M02*
