G04 #@! TF.GenerationSoftware,KiCad,Pcbnew,(5.1.8-0-10_14)*
G04 #@! TF.CreationDate,2021-03-05T16:46:23-05:00*
G04 #@! TF.ProjectId,v1,76312e6b-6963-4616-945f-706362585858,rev?*
G04 #@! TF.SameCoordinates,Original*
G04 #@! TF.FileFunction,Copper,L2,Bot*
G04 #@! TF.FilePolarity,Positive*
%FSLAX46Y46*%
G04 Gerber Fmt 4.6, Leading zero omitted, Abs format (unit mm)*
G04 Created by KiCad (PCBNEW (5.1.8-0-10_14)) date 2021-03-05 16:46:23*
%MOMM*%
%LPD*%
G01*
G04 APERTURE LIST*
G04 #@! TA.AperFunction,SMDPad,CuDef*
%ADD10R,1.500000X2.800000*%
G04 #@! TD*
G04 #@! TA.AperFunction,SMDPad,CuDef*
%ADD11R,3.800000X2.000000*%
G04 #@! TD*
G04 #@! TA.AperFunction,SMDPad,CuDef*
%ADD12R,1.500000X2.000000*%
G04 #@! TD*
G04 #@! TA.AperFunction,SMDPad,CuDef*
%ADD13R,1.200000X1.200000*%
G04 #@! TD*
G04 #@! TA.AperFunction,SMDPad,CuDef*
%ADD14R,1.600000X1.500000*%
G04 #@! TD*
G04 #@! TA.AperFunction,SMDPad,CuDef*
%ADD15R,0.800000X0.900000*%
G04 #@! TD*
G04 #@! TA.AperFunction,ComponentPad*
%ADD16O,1.700000X1.700000*%
G04 #@! TD*
G04 #@! TA.AperFunction,ComponentPad*
%ADD17R,1.700000X1.700000*%
G04 #@! TD*
G04 #@! TA.AperFunction,ComponentPad*
%ADD18O,3.160000X4.100000*%
G04 #@! TD*
G04 #@! TA.AperFunction,SMDPad,CuDef*
%ADD19R,0.300000X1.250000*%
G04 #@! TD*
G04 #@! TA.AperFunction,SMDPad,CuDef*
%ADD20R,2.000000X3.000000*%
G04 #@! TD*
G04 #@! TA.AperFunction,SMDPad,CuDef*
%ADD21R,0.450000X0.600000*%
G04 #@! TD*
G04 #@! TA.AperFunction,SMDPad,CuDef*
%ADD22R,2.300000X2.300000*%
G04 #@! TD*
G04 #@! TA.AperFunction,ComponentPad*
%ADD23C,0.762000*%
G04 #@! TD*
G04 #@! TA.AperFunction,SMDPad,CuDef*
%ADD24R,0.990600X1.549400*%
G04 #@! TD*
G04 #@! TA.AperFunction,ViaPad*
%ADD25C,0.508000*%
G04 #@! TD*
G04 #@! TA.AperFunction,Conductor*
%ADD26C,0.304000*%
G04 #@! TD*
G04 #@! TA.AperFunction,Conductor*
%ADD27C,0.152400*%
G04 #@! TD*
G04 APERTURE END LIST*
D10*
X169418000Y-108204000D03*
X166878000Y-108204000D03*
X164338000Y-108204000D03*
X161798000Y-108204000D03*
X159258000Y-108204000D03*
G04 #@! TA.AperFunction,SMDPad,CuDef*
G36*
G01*
X161363800Y-90321000D02*
X161063800Y-90321000D01*
G75*
G02*
X160913800Y-90171000I0J150000D01*
G01*
X160913800Y-88521000D01*
G75*
G02*
X161063800Y-88371000I150000J0D01*
G01*
X161363800Y-88371000D01*
G75*
G02*
X161513800Y-88521000I0J-150000D01*
G01*
X161513800Y-90171000D01*
G75*
G02*
X161363800Y-90321000I-150000J0D01*
G01*
G37*
G04 #@! TD.AperFunction*
G04 #@! TA.AperFunction,SMDPad,CuDef*
G36*
G01*
X160093800Y-90321000D02*
X159793800Y-90321000D01*
G75*
G02*
X159643800Y-90171000I0J150000D01*
G01*
X159643800Y-88521000D01*
G75*
G02*
X159793800Y-88371000I150000J0D01*
G01*
X160093800Y-88371000D01*
G75*
G02*
X160243800Y-88521000I0J-150000D01*
G01*
X160243800Y-90171000D01*
G75*
G02*
X160093800Y-90321000I-150000J0D01*
G01*
G37*
G04 #@! TD.AperFunction*
G04 #@! TA.AperFunction,SMDPad,CuDef*
G36*
G01*
X158823800Y-90321000D02*
X158523800Y-90321000D01*
G75*
G02*
X158373800Y-90171000I0J150000D01*
G01*
X158373800Y-88521000D01*
G75*
G02*
X158523800Y-88371000I150000J0D01*
G01*
X158823800Y-88371000D01*
G75*
G02*
X158973800Y-88521000I0J-150000D01*
G01*
X158973800Y-90171000D01*
G75*
G02*
X158823800Y-90321000I-150000J0D01*
G01*
G37*
G04 #@! TD.AperFunction*
G04 #@! TA.AperFunction,SMDPad,CuDef*
G36*
G01*
X157553800Y-90321000D02*
X157253800Y-90321000D01*
G75*
G02*
X157103800Y-90171000I0J150000D01*
G01*
X157103800Y-88521000D01*
G75*
G02*
X157253800Y-88371000I150000J0D01*
G01*
X157553800Y-88371000D01*
G75*
G02*
X157703800Y-88521000I0J-150000D01*
G01*
X157703800Y-90171000D01*
G75*
G02*
X157553800Y-90321000I-150000J0D01*
G01*
G37*
G04 #@! TD.AperFunction*
G04 #@! TA.AperFunction,SMDPad,CuDef*
G36*
G01*
X157553800Y-95271000D02*
X157253800Y-95271000D01*
G75*
G02*
X157103800Y-95121000I0J150000D01*
G01*
X157103800Y-93471000D01*
G75*
G02*
X157253800Y-93321000I150000J0D01*
G01*
X157553800Y-93321000D01*
G75*
G02*
X157703800Y-93471000I0J-150000D01*
G01*
X157703800Y-95121000D01*
G75*
G02*
X157553800Y-95271000I-150000J0D01*
G01*
G37*
G04 #@! TD.AperFunction*
G04 #@! TA.AperFunction,SMDPad,CuDef*
G36*
G01*
X158823800Y-95271000D02*
X158523800Y-95271000D01*
G75*
G02*
X158373800Y-95121000I0J150000D01*
G01*
X158373800Y-93471000D01*
G75*
G02*
X158523800Y-93321000I150000J0D01*
G01*
X158823800Y-93321000D01*
G75*
G02*
X158973800Y-93471000I0J-150000D01*
G01*
X158973800Y-95121000D01*
G75*
G02*
X158823800Y-95271000I-150000J0D01*
G01*
G37*
G04 #@! TD.AperFunction*
G04 #@! TA.AperFunction,SMDPad,CuDef*
G36*
G01*
X160093800Y-95271000D02*
X159793800Y-95271000D01*
G75*
G02*
X159643800Y-95121000I0J150000D01*
G01*
X159643800Y-93471000D01*
G75*
G02*
X159793800Y-93321000I150000J0D01*
G01*
X160093800Y-93321000D01*
G75*
G02*
X160243800Y-93471000I0J-150000D01*
G01*
X160243800Y-95121000D01*
G75*
G02*
X160093800Y-95271000I-150000J0D01*
G01*
G37*
G04 #@! TD.AperFunction*
G04 #@! TA.AperFunction,SMDPad,CuDef*
G36*
G01*
X161363800Y-95271000D02*
X161063800Y-95271000D01*
G75*
G02*
X160913800Y-95121000I0J150000D01*
G01*
X160913800Y-93471000D01*
G75*
G02*
X161063800Y-93321000I150000J0D01*
G01*
X161363800Y-93321000D01*
G75*
G02*
X161513800Y-93471000I0J-150000D01*
G01*
X161513800Y-95121000D01*
G75*
G02*
X161363800Y-95271000I-150000J0D01*
G01*
G37*
G04 #@! TD.AperFunction*
D11*
X137718800Y-94716200D03*
D12*
X137718800Y-101016200D03*
X135418800Y-101016200D03*
X140018800Y-101016200D03*
G04 #@! TA.AperFunction,SMDPad,CuDef*
G36*
G01*
X169420400Y-87156000D02*
X169220400Y-87156000D01*
G75*
G02*
X169120400Y-87056000I0J100000D01*
G01*
X169120400Y-85781000D01*
G75*
G02*
X169220400Y-85681000I100000J0D01*
G01*
X169420400Y-85681000D01*
G75*
G02*
X169520400Y-85781000I0J-100000D01*
G01*
X169520400Y-87056000D01*
G75*
G02*
X169420400Y-87156000I-100000J0D01*
G01*
G37*
G04 #@! TD.AperFunction*
G04 #@! TA.AperFunction,SMDPad,CuDef*
G36*
G01*
X168770400Y-87156000D02*
X168570400Y-87156000D01*
G75*
G02*
X168470400Y-87056000I0J100000D01*
G01*
X168470400Y-85781000D01*
G75*
G02*
X168570400Y-85681000I100000J0D01*
G01*
X168770400Y-85681000D01*
G75*
G02*
X168870400Y-85781000I0J-100000D01*
G01*
X168870400Y-87056000D01*
G75*
G02*
X168770400Y-87156000I-100000J0D01*
G01*
G37*
G04 #@! TD.AperFunction*
G04 #@! TA.AperFunction,SMDPad,CuDef*
G36*
G01*
X168120400Y-87156000D02*
X167920400Y-87156000D01*
G75*
G02*
X167820400Y-87056000I0J100000D01*
G01*
X167820400Y-85781000D01*
G75*
G02*
X167920400Y-85681000I100000J0D01*
G01*
X168120400Y-85681000D01*
G75*
G02*
X168220400Y-85781000I0J-100000D01*
G01*
X168220400Y-87056000D01*
G75*
G02*
X168120400Y-87156000I-100000J0D01*
G01*
G37*
G04 #@! TD.AperFunction*
G04 #@! TA.AperFunction,SMDPad,CuDef*
G36*
G01*
X167470400Y-87156000D02*
X167270400Y-87156000D01*
G75*
G02*
X167170400Y-87056000I0J100000D01*
G01*
X167170400Y-85781000D01*
G75*
G02*
X167270400Y-85681000I100000J0D01*
G01*
X167470400Y-85681000D01*
G75*
G02*
X167570400Y-85781000I0J-100000D01*
G01*
X167570400Y-87056000D01*
G75*
G02*
X167470400Y-87156000I-100000J0D01*
G01*
G37*
G04 #@! TD.AperFunction*
G04 #@! TA.AperFunction,SMDPad,CuDef*
G36*
G01*
X166820400Y-87156000D02*
X166620400Y-87156000D01*
G75*
G02*
X166520400Y-87056000I0J100000D01*
G01*
X166520400Y-85781000D01*
G75*
G02*
X166620400Y-85681000I100000J0D01*
G01*
X166820400Y-85681000D01*
G75*
G02*
X166920400Y-85781000I0J-100000D01*
G01*
X166920400Y-87056000D01*
G75*
G02*
X166820400Y-87156000I-100000J0D01*
G01*
G37*
G04 #@! TD.AperFunction*
G04 #@! TA.AperFunction,SMDPad,CuDef*
G36*
G01*
X166170400Y-87156000D02*
X165970400Y-87156000D01*
G75*
G02*
X165870400Y-87056000I0J100000D01*
G01*
X165870400Y-85781000D01*
G75*
G02*
X165970400Y-85681000I100000J0D01*
G01*
X166170400Y-85681000D01*
G75*
G02*
X166270400Y-85781000I0J-100000D01*
G01*
X166270400Y-87056000D01*
G75*
G02*
X166170400Y-87156000I-100000J0D01*
G01*
G37*
G04 #@! TD.AperFunction*
G04 #@! TA.AperFunction,SMDPad,CuDef*
G36*
G01*
X165520400Y-87156000D02*
X165320400Y-87156000D01*
G75*
G02*
X165220400Y-87056000I0J100000D01*
G01*
X165220400Y-85781000D01*
G75*
G02*
X165320400Y-85681000I100000J0D01*
G01*
X165520400Y-85681000D01*
G75*
G02*
X165620400Y-85781000I0J-100000D01*
G01*
X165620400Y-87056000D01*
G75*
G02*
X165520400Y-87156000I-100000J0D01*
G01*
G37*
G04 #@! TD.AperFunction*
G04 #@! TA.AperFunction,SMDPad,CuDef*
G36*
G01*
X164870400Y-87156000D02*
X164670400Y-87156000D01*
G75*
G02*
X164570400Y-87056000I0J100000D01*
G01*
X164570400Y-85781000D01*
G75*
G02*
X164670400Y-85681000I100000J0D01*
G01*
X164870400Y-85681000D01*
G75*
G02*
X164970400Y-85781000I0J-100000D01*
G01*
X164970400Y-87056000D01*
G75*
G02*
X164870400Y-87156000I-100000J0D01*
G01*
G37*
G04 #@! TD.AperFunction*
G04 #@! TA.AperFunction,SMDPad,CuDef*
G36*
G01*
X164220400Y-87156000D02*
X164020400Y-87156000D01*
G75*
G02*
X163920400Y-87056000I0J100000D01*
G01*
X163920400Y-85781000D01*
G75*
G02*
X164020400Y-85681000I100000J0D01*
G01*
X164220400Y-85681000D01*
G75*
G02*
X164320400Y-85781000I0J-100000D01*
G01*
X164320400Y-87056000D01*
G75*
G02*
X164220400Y-87156000I-100000J0D01*
G01*
G37*
G04 #@! TD.AperFunction*
G04 #@! TA.AperFunction,SMDPad,CuDef*
G36*
G01*
X163570400Y-87156000D02*
X163370400Y-87156000D01*
G75*
G02*
X163270400Y-87056000I0J100000D01*
G01*
X163270400Y-85781000D01*
G75*
G02*
X163370400Y-85681000I100000J0D01*
G01*
X163570400Y-85681000D01*
G75*
G02*
X163670400Y-85781000I0J-100000D01*
G01*
X163670400Y-87056000D01*
G75*
G02*
X163570400Y-87156000I-100000J0D01*
G01*
G37*
G04 #@! TD.AperFunction*
G04 #@! TA.AperFunction,SMDPad,CuDef*
G36*
G01*
X163570400Y-92881000D02*
X163370400Y-92881000D01*
G75*
G02*
X163270400Y-92781000I0J100000D01*
G01*
X163270400Y-91506000D01*
G75*
G02*
X163370400Y-91406000I100000J0D01*
G01*
X163570400Y-91406000D01*
G75*
G02*
X163670400Y-91506000I0J-100000D01*
G01*
X163670400Y-92781000D01*
G75*
G02*
X163570400Y-92881000I-100000J0D01*
G01*
G37*
G04 #@! TD.AperFunction*
G04 #@! TA.AperFunction,SMDPad,CuDef*
G36*
G01*
X164220400Y-92881000D02*
X164020400Y-92881000D01*
G75*
G02*
X163920400Y-92781000I0J100000D01*
G01*
X163920400Y-91506000D01*
G75*
G02*
X164020400Y-91406000I100000J0D01*
G01*
X164220400Y-91406000D01*
G75*
G02*
X164320400Y-91506000I0J-100000D01*
G01*
X164320400Y-92781000D01*
G75*
G02*
X164220400Y-92881000I-100000J0D01*
G01*
G37*
G04 #@! TD.AperFunction*
G04 #@! TA.AperFunction,SMDPad,CuDef*
G36*
G01*
X164870400Y-92881000D02*
X164670400Y-92881000D01*
G75*
G02*
X164570400Y-92781000I0J100000D01*
G01*
X164570400Y-91506000D01*
G75*
G02*
X164670400Y-91406000I100000J0D01*
G01*
X164870400Y-91406000D01*
G75*
G02*
X164970400Y-91506000I0J-100000D01*
G01*
X164970400Y-92781000D01*
G75*
G02*
X164870400Y-92881000I-100000J0D01*
G01*
G37*
G04 #@! TD.AperFunction*
G04 #@! TA.AperFunction,SMDPad,CuDef*
G36*
G01*
X165520400Y-92881000D02*
X165320400Y-92881000D01*
G75*
G02*
X165220400Y-92781000I0J100000D01*
G01*
X165220400Y-91506000D01*
G75*
G02*
X165320400Y-91406000I100000J0D01*
G01*
X165520400Y-91406000D01*
G75*
G02*
X165620400Y-91506000I0J-100000D01*
G01*
X165620400Y-92781000D01*
G75*
G02*
X165520400Y-92881000I-100000J0D01*
G01*
G37*
G04 #@! TD.AperFunction*
G04 #@! TA.AperFunction,SMDPad,CuDef*
G36*
G01*
X166170400Y-92881000D02*
X165970400Y-92881000D01*
G75*
G02*
X165870400Y-92781000I0J100000D01*
G01*
X165870400Y-91506000D01*
G75*
G02*
X165970400Y-91406000I100000J0D01*
G01*
X166170400Y-91406000D01*
G75*
G02*
X166270400Y-91506000I0J-100000D01*
G01*
X166270400Y-92781000D01*
G75*
G02*
X166170400Y-92881000I-100000J0D01*
G01*
G37*
G04 #@! TD.AperFunction*
G04 #@! TA.AperFunction,SMDPad,CuDef*
G36*
G01*
X166820400Y-92881000D02*
X166620400Y-92881000D01*
G75*
G02*
X166520400Y-92781000I0J100000D01*
G01*
X166520400Y-91506000D01*
G75*
G02*
X166620400Y-91406000I100000J0D01*
G01*
X166820400Y-91406000D01*
G75*
G02*
X166920400Y-91506000I0J-100000D01*
G01*
X166920400Y-92781000D01*
G75*
G02*
X166820400Y-92881000I-100000J0D01*
G01*
G37*
G04 #@! TD.AperFunction*
G04 #@! TA.AperFunction,SMDPad,CuDef*
G36*
G01*
X167470400Y-92881000D02*
X167270400Y-92881000D01*
G75*
G02*
X167170400Y-92781000I0J100000D01*
G01*
X167170400Y-91506000D01*
G75*
G02*
X167270400Y-91406000I100000J0D01*
G01*
X167470400Y-91406000D01*
G75*
G02*
X167570400Y-91506000I0J-100000D01*
G01*
X167570400Y-92781000D01*
G75*
G02*
X167470400Y-92881000I-100000J0D01*
G01*
G37*
G04 #@! TD.AperFunction*
G04 #@! TA.AperFunction,SMDPad,CuDef*
G36*
G01*
X168120400Y-92881000D02*
X167920400Y-92881000D01*
G75*
G02*
X167820400Y-92781000I0J100000D01*
G01*
X167820400Y-91506000D01*
G75*
G02*
X167920400Y-91406000I100000J0D01*
G01*
X168120400Y-91406000D01*
G75*
G02*
X168220400Y-91506000I0J-100000D01*
G01*
X168220400Y-92781000D01*
G75*
G02*
X168120400Y-92881000I-100000J0D01*
G01*
G37*
G04 #@! TD.AperFunction*
G04 #@! TA.AperFunction,SMDPad,CuDef*
G36*
G01*
X168770400Y-92881000D02*
X168570400Y-92881000D01*
G75*
G02*
X168470400Y-92781000I0J100000D01*
G01*
X168470400Y-91506000D01*
G75*
G02*
X168570400Y-91406000I100000J0D01*
G01*
X168770400Y-91406000D01*
G75*
G02*
X168870400Y-91506000I0J-100000D01*
G01*
X168870400Y-92781000D01*
G75*
G02*
X168770400Y-92881000I-100000J0D01*
G01*
G37*
G04 #@! TD.AperFunction*
G04 #@! TA.AperFunction,SMDPad,CuDef*
G36*
G01*
X169420400Y-92881000D02*
X169220400Y-92881000D01*
G75*
G02*
X169120400Y-92781000I0J100000D01*
G01*
X169120400Y-91506000D01*
G75*
G02*
X169220400Y-91406000I100000J0D01*
G01*
X169420400Y-91406000D01*
G75*
G02*
X169520400Y-91506000I0J-100000D01*
G01*
X169520400Y-92781000D01*
G75*
G02*
X169420400Y-92881000I-100000J0D01*
G01*
G37*
G04 #@! TD.AperFunction*
D13*
X152155400Y-101215600D03*
X150155400Y-101215600D03*
D14*
X151155400Y-97965600D03*
G04 #@! TA.AperFunction,SMDPad,CuDef*
G36*
G01*
X157965200Y-81528499D02*
X157965200Y-82428501D01*
G75*
G02*
X157715201Y-82678500I-249999J0D01*
G01*
X157190199Y-82678500D01*
G75*
G02*
X156940200Y-82428501I0J249999D01*
G01*
X156940200Y-81528499D01*
G75*
G02*
X157190199Y-81278500I249999J0D01*
G01*
X157715201Y-81278500D01*
G75*
G02*
X157965200Y-81528499I0J-249999D01*
G01*
G37*
G04 #@! TD.AperFunction*
G04 #@! TA.AperFunction,SMDPad,CuDef*
G36*
G01*
X156140200Y-81528499D02*
X156140200Y-82428501D01*
G75*
G02*
X155890201Y-82678500I-249999J0D01*
G01*
X155365199Y-82678500D01*
G75*
G02*
X155115200Y-82428501I0J249999D01*
G01*
X155115200Y-81528499D01*
G75*
G02*
X155365199Y-81278500I249999J0D01*
G01*
X155890201Y-81278500D01*
G75*
G02*
X156140200Y-81528499I0J-249999D01*
G01*
G37*
G04 #@! TD.AperFunction*
G04 #@! TA.AperFunction,SMDPad,CuDef*
G36*
G01*
X136746401Y-83619400D02*
X135846399Y-83619400D01*
G75*
G02*
X135596400Y-83369401I0J249999D01*
G01*
X135596400Y-82844399D01*
G75*
G02*
X135846399Y-82594400I249999J0D01*
G01*
X136746401Y-82594400D01*
G75*
G02*
X136996400Y-82844399I0J-249999D01*
G01*
X136996400Y-83369401D01*
G75*
G02*
X136746401Y-83619400I-249999J0D01*
G01*
G37*
G04 #@! TD.AperFunction*
G04 #@! TA.AperFunction,SMDPad,CuDef*
G36*
G01*
X136746401Y-81794400D02*
X135846399Y-81794400D01*
G75*
G02*
X135596400Y-81544401I0J249999D01*
G01*
X135596400Y-81019399D01*
G75*
G02*
X135846399Y-80769400I249999J0D01*
G01*
X136746401Y-80769400D01*
G75*
G02*
X136996400Y-81019399I0J-249999D01*
G01*
X136996400Y-81544401D01*
G75*
G02*
X136746401Y-81794400I-249999J0D01*
G01*
G37*
G04 #@! TD.AperFunction*
G04 #@! TA.AperFunction,SMDPad,CuDef*
G36*
G01*
X145609400Y-98189201D02*
X145609400Y-97289199D01*
G75*
G02*
X145859399Y-97039200I249999J0D01*
G01*
X146384401Y-97039200D01*
G75*
G02*
X146634400Y-97289199I0J-249999D01*
G01*
X146634400Y-98189201D01*
G75*
G02*
X146384401Y-98439200I-249999J0D01*
G01*
X145859399Y-98439200D01*
G75*
G02*
X145609400Y-98189201I0J249999D01*
G01*
G37*
G04 #@! TD.AperFunction*
G04 #@! TA.AperFunction,SMDPad,CuDef*
G36*
G01*
X147434400Y-98189201D02*
X147434400Y-97289199D01*
G75*
G02*
X147684399Y-97039200I249999J0D01*
G01*
X148209401Y-97039200D01*
G75*
G02*
X148459400Y-97289199I0J-249999D01*
G01*
X148459400Y-98189201D01*
G75*
G02*
X148209401Y-98439200I-249999J0D01*
G01*
X147684399Y-98439200D01*
G75*
G02*
X147434400Y-98189201I0J249999D01*
G01*
G37*
G04 #@! TD.AperFunction*
G04 #@! TA.AperFunction,SMDPad,CuDef*
G36*
G01*
X141875600Y-98180735D02*
X141875600Y-97280733D01*
G75*
G02*
X142125599Y-97030734I249999J0D01*
G01*
X142650601Y-97030734D01*
G75*
G02*
X142900600Y-97280733I0J-249999D01*
G01*
X142900600Y-98180735D01*
G75*
G02*
X142650601Y-98430734I-249999J0D01*
G01*
X142125599Y-98430734D01*
G75*
G02*
X141875600Y-98180735I0J249999D01*
G01*
G37*
G04 #@! TD.AperFunction*
G04 #@! TA.AperFunction,SMDPad,CuDef*
G36*
G01*
X143700600Y-98180735D02*
X143700600Y-97280733D01*
G75*
G02*
X143950599Y-97030734I249999J0D01*
G01*
X144475601Y-97030734D01*
G75*
G02*
X144725600Y-97280733I0J-249999D01*
G01*
X144725600Y-98180735D01*
G75*
G02*
X144475601Y-98430734I-249999J0D01*
G01*
X143950599Y-98430734D01*
G75*
G02*
X143700600Y-98180735I0J249999D01*
G01*
G37*
G04 #@! TD.AperFunction*
G04 #@! TA.AperFunction,SMDPad,CuDef*
G36*
G01*
X159366799Y-101288800D02*
X160266801Y-101288800D01*
G75*
G02*
X160516800Y-101538799I0J-249999D01*
G01*
X160516800Y-102063801D01*
G75*
G02*
X160266801Y-102313800I-249999J0D01*
G01*
X159366799Y-102313800D01*
G75*
G02*
X159116800Y-102063801I0J249999D01*
G01*
X159116800Y-101538799D01*
G75*
G02*
X159366799Y-101288800I249999J0D01*
G01*
G37*
G04 #@! TD.AperFunction*
G04 #@! TA.AperFunction,SMDPad,CuDef*
G36*
G01*
X159366799Y-99463800D02*
X160266801Y-99463800D01*
G75*
G02*
X160516800Y-99713799I0J-249999D01*
G01*
X160516800Y-100238801D01*
G75*
G02*
X160266801Y-100488800I-249999J0D01*
G01*
X159366799Y-100488800D01*
G75*
G02*
X159116800Y-100238801I0J249999D01*
G01*
X159116800Y-99713799D01*
G75*
G02*
X159366799Y-99463800I249999J0D01*
G01*
G37*
G04 #@! TD.AperFunction*
G04 #@! TA.AperFunction,SMDPad,CuDef*
G36*
G01*
X172181301Y-82634500D02*
X171281299Y-82634500D01*
G75*
G02*
X171031300Y-82384501I0J249999D01*
G01*
X171031300Y-81859499D01*
G75*
G02*
X171281299Y-81609500I249999J0D01*
G01*
X172181301Y-81609500D01*
G75*
G02*
X172431300Y-81859499I0J-249999D01*
G01*
X172431300Y-82384501D01*
G75*
G02*
X172181301Y-82634500I-249999J0D01*
G01*
G37*
G04 #@! TD.AperFunction*
G04 #@! TA.AperFunction,SMDPad,CuDef*
G36*
G01*
X172181301Y-84459500D02*
X171281299Y-84459500D01*
G75*
G02*
X171031300Y-84209501I0J249999D01*
G01*
X171031300Y-83684499D01*
G75*
G02*
X171281299Y-83434500I249999J0D01*
G01*
X172181301Y-83434500D01*
G75*
G02*
X172431300Y-83684499I0J-249999D01*
G01*
X172431300Y-84209501D01*
G75*
G02*
X172181301Y-84459500I-249999J0D01*
G01*
G37*
G04 #@! TD.AperFunction*
G04 #@! TA.AperFunction,SMDPad,CuDef*
G36*
G01*
X150086000Y-96157201D02*
X150086000Y-95257199D01*
G75*
G02*
X150335999Y-95007200I249999J0D01*
G01*
X150861001Y-95007200D01*
G75*
G02*
X151111000Y-95257199I0J-249999D01*
G01*
X151111000Y-96157201D01*
G75*
G02*
X150861001Y-96407200I-249999J0D01*
G01*
X150335999Y-96407200D01*
G75*
G02*
X150086000Y-96157201I0J249999D01*
G01*
G37*
G04 #@! TD.AperFunction*
G04 #@! TA.AperFunction,SMDPad,CuDef*
G36*
G01*
X151911000Y-96157201D02*
X151911000Y-95257199D01*
G75*
G02*
X152160999Y-95007200I249999J0D01*
G01*
X152686001Y-95007200D01*
G75*
G02*
X152936000Y-95257199I0J-249999D01*
G01*
X152936000Y-96157201D01*
G75*
G02*
X152686001Y-96407200I-249999J0D01*
G01*
X152160999Y-96407200D01*
G75*
G02*
X151911000Y-96157201I0J249999D01*
G01*
G37*
G04 #@! TD.AperFunction*
G04 #@! TA.AperFunction,SMDPad,CuDef*
G36*
G01*
X172154001Y-88269500D02*
X171253999Y-88269500D01*
G75*
G02*
X171004000Y-88019501I0J249999D01*
G01*
X171004000Y-87494499D01*
G75*
G02*
X171253999Y-87244500I249999J0D01*
G01*
X172154001Y-87244500D01*
G75*
G02*
X172404000Y-87494499I0J-249999D01*
G01*
X172404000Y-88019501D01*
G75*
G02*
X172154001Y-88269500I-249999J0D01*
G01*
G37*
G04 #@! TD.AperFunction*
G04 #@! TA.AperFunction,SMDPad,CuDef*
G36*
G01*
X172154001Y-90094500D02*
X171253999Y-90094500D01*
G75*
G02*
X171004000Y-89844501I0J249999D01*
G01*
X171004000Y-89319499D01*
G75*
G02*
X171253999Y-89069500I249999J0D01*
G01*
X172154001Y-89069500D01*
G75*
G02*
X172404000Y-89319499I0J-249999D01*
G01*
X172404000Y-89844501D01*
G75*
G02*
X172154001Y-90094500I-249999J0D01*
G01*
G37*
G04 #@! TD.AperFunction*
G04 #@! TA.AperFunction,SMDPad,CuDef*
G36*
G01*
X131467800Y-91305801D02*
X131467800Y-90405799D01*
G75*
G02*
X131717799Y-90155800I249999J0D01*
G01*
X132242801Y-90155800D01*
G75*
G02*
X132492800Y-90405799I0J-249999D01*
G01*
X132492800Y-91305801D01*
G75*
G02*
X132242801Y-91555800I-249999J0D01*
G01*
X131717799Y-91555800D01*
G75*
G02*
X131467800Y-91305801I0J249999D01*
G01*
G37*
G04 #@! TD.AperFunction*
G04 #@! TA.AperFunction,SMDPad,CuDef*
G36*
G01*
X133292800Y-91305801D02*
X133292800Y-90405799D01*
G75*
G02*
X133542799Y-90155800I249999J0D01*
G01*
X134067801Y-90155800D01*
G75*
G02*
X134317800Y-90405799I0J-249999D01*
G01*
X134317800Y-91305801D01*
G75*
G02*
X134067801Y-91555800I-249999J0D01*
G01*
X133542799Y-91555800D01*
G75*
G02*
X133292800Y-91305801I0J249999D01*
G01*
G37*
G04 #@! TD.AperFunction*
D15*
X146014400Y-99592468D03*
X147914400Y-99592468D03*
X146964400Y-101592468D03*
X142280600Y-99584000D03*
X144180600Y-99584000D03*
X143230600Y-101584000D03*
D16*
X163499800Y-81978500D03*
X166039800Y-81978500D03*
D17*
X168579800Y-81978500D03*
G04 #@! TA.AperFunction,ComponentPad*
G36*
G01*
X131554100Y-107444700D02*
X131554100Y-104924700D01*
G75*
G02*
X132344100Y-104134700I790000J0D01*
G01*
X133924100Y-104134700D01*
G75*
G02*
X134714100Y-104924700I0J-790000D01*
G01*
X134714100Y-107444700D01*
G75*
G02*
X133924100Y-108234700I-790000J0D01*
G01*
X132344100Y-108234700D01*
G75*
G02*
X131554100Y-107444700I0J790000D01*
G01*
G37*
G04 #@! TD.AperFunction*
D18*
X137094100Y-106184700D03*
X141054100Y-106184700D03*
X144934100Y-106184700D03*
X148974100Y-106184700D03*
X152934100Y-106184700D03*
D19*
X138392000Y-91352000D03*
D20*
X136852000Y-89027000D03*
X154432000Y-89027000D03*
D19*
X138892000Y-91352000D03*
X139392000Y-91352000D03*
X139892000Y-91352000D03*
X140392000Y-91352000D03*
X140892000Y-91352000D03*
X141392000Y-91352000D03*
X141892000Y-91352000D03*
X142392000Y-91352000D03*
X142892000Y-91352000D03*
X143392000Y-91352000D03*
X143892000Y-91352000D03*
X144392000Y-91352000D03*
X144892000Y-91352000D03*
X145392000Y-91352000D03*
X145892000Y-91352000D03*
X146392000Y-91352000D03*
X146892000Y-91352000D03*
X147392000Y-91352000D03*
X147892000Y-91352000D03*
X148392000Y-91352000D03*
X148892000Y-91352000D03*
X149392000Y-91352000D03*
X149892000Y-91352000D03*
X150392000Y-91352000D03*
X150892000Y-91352000D03*
X151392000Y-91352000D03*
X151892000Y-91352000D03*
X152392000Y-91352000D03*
X152892000Y-91352000D03*
D21*
X161899600Y-101286600D03*
X161899600Y-103386600D03*
G04 #@! TA.AperFunction,SMDPad,CuDef*
G36*
G01*
X154846000Y-93038000D02*
X155796000Y-93038000D01*
G75*
G02*
X156046000Y-93288000I0J-250000D01*
G01*
X156046000Y-93788000D01*
G75*
G02*
X155796000Y-94038000I-250000J0D01*
G01*
X154846000Y-94038000D01*
G75*
G02*
X154596000Y-93788000I0J250000D01*
G01*
X154596000Y-93288000D01*
G75*
G02*
X154846000Y-93038000I250000J0D01*
G01*
G37*
G04 #@! TD.AperFunction*
G04 #@! TA.AperFunction,SMDPad,CuDef*
G36*
G01*
X154846000Y-94938000D02*
X155796000Y-94938000D01*
G75*
G02*
X156046000Y-95188000I0J-250000D01*
G01*
X156046000Y-95688000D01*
G75*
G02*
X155796000Y-95938000I-250000J0D01*
G01*
X154846000Y-95938000D01*
G75*
G02*
X154596000Y-95688000I0J250000D01*
G01*
X154596000Y-95188000D01*
G75*
G02*
X154846000Y-94938000I250000J0D01*
G01*
G37*
G04 #@! TD.AperFunction*
G04 #@! TA.AperFunction,SMDPad,CuDef*
G36*
G01*
X158493000Y-97569000D02*
X158493000Y-98519000D01*
G75*
G02*
X158243000Y-98769000I-250000J0D01*
G01*
X157743000Y-98769000D01*
G75*
G02*
X157493000Y-98519000I0J250000D01*
G01*
X157493000Y-97569000D01*
G75*
G02*
X157743000Y-97319000I250000J0D01*
G01*
X158243000Y-97319000D01*
G75*
G02*
X158493000Y-97569000I0J-250000D01*
G01*
G37*
G04 #@! TD.AperFunction*
G04 #@! TA.AperFunction,SMDPad,CuDef*
G36*
G01*
X160393000Y-97569000D02*
X160393000Y-98519000D01*
G75*
G02*
X160143000Y-98769000I-250000J0D01*
G01*
X159643000Y-98769000D01*
G75*
G02*
X159393000Y-98519000I0J250000D01*
G01*
X159393000Y-97569000D01*
G75*
G02*
X159643000Y-97319000I250000J0D01*
G01*
X160143000Y-97319000D01*
G75*
G02*
X160393000Y-97569000I0J-250000D01*
G01*
G37*
G04 #@! TD.AperFunction*
G04 #@! TA.AperFunction,SMDPad,CuDef*
G36*
G01*
X132467799Y-93761200D02*
X133317801Y-93761200D01*
G75*
G02*
X133567800Y-94011199I0J-249999D01*
G01*
X133567800Y-94911201D01*
G75*
G02*
X133317801Y-95161200I-249999J0D01*
G01*
X132467799Y-95161200D01*
G75*
G02*
X132217800Y-94911201I0J249999D01*
G01*
X132217800Y-94011199D01*
G75*
G02*
X132467799Y-93761200I249999J0D01*
G01*
G37*
G04 #@! TD.AperFunction*
G04 #@! TA.AperFunction,SMDPad,CuDef*
G36*
G01*
X132467799Y-96461200D02*
X133317801Y-96461200D01*
G75*
G02*
X133567800Y-96711199I0J-249999D01*
G01*
X133567800Y-97611201D01*
G75*
G02*
X133317801Y-97861200I-249999J0D01*
G01*
X132467799Y-97861200D01*
G75*
G02*
X132217800Y-97611201I0J249999D01*
G01*
X132217800Y-96711199D01*
G75*
G02*
X132467799Y-96461200I249999J0D01*
G01*
G37*
G04 #@! TD.AperFunction*
G04 #@! TA.AperFunction,SMDPad,CuDef*
G36*
G01*
X132487800Y-99116200D02*
X133437800Y-99116200D01*
G75*
G02*
X133687800Y-99366200I0J-250000D01*
G01*
X133687800Y-99866200D01*
G75*
G02*
X133437800Y-100116200I-250000J0D01*
G01*
X132487800Y-100116200D01*
G75*
G02*
X132237800Y-99866200I0J250000D01*
G01*
X132237800Y-99366200D01*
G75*
G02*
X132487800Y-99116200I250000J0D01*
G01*
G37*
G04 #@! TD.AperFunction*
G04 #@! TA.AperFunction,SMDPad,CuDef*
G36*
G01*
X132487800Y-101016200D02*
X133437800Y-101016200D01*
G75*
G02*
X133687800Y-101266200I0J-250000D01*
G01*
X133687800Y-101766200D01*
G75*
G02*
X133437800Y-102016200I-250000J0D01*
G01*
X132487800Y-102016200D01*
G75*
G02*
X132237800Y-101766200I0J250000D01*
G01*
X132237800Y-101266200D01*
G75*
G02*
X132487800Y-101016200I250000J0D01*
G01*
G37*
G04 #@! TD.AperFunction*
G04 #@! TA.AperFunction,SMDPad,CuDef*
G36*
G01*
X164203000Y-93886000D02*
X164203000Y-94836000D01*
G75*
G02*
X163953000Y-95086000I-250000J0D01*
G01*
X163453000Y-95086000D01*
G75*
G02*
X163203000Y-94836000I0J250000D01*
G01*
X163203000Y-93886000D01*
G75*
G02*
X163453000Y-93636000I250000J0D01*
G01*
X163953000Y-93636000D01*
G75*
G02*
X164203000Y-93886000I0J-250000D01*
G01*
G37*
G04 #@! TD.AperFunction*
G04 #@! TA.AperFunction,SMDPad,CuDef*
G36*
G01*
X166103000Y-93886000D02*
X166103000Y-94836000D01*
G75*
G02*
X165853000Y-95086000I-250000J0D01*
G01*
X165353000Y-95086000D01*
G75*
G02*
X165103000Y-94836000I0J250000D01*
G01*
X165103000Y-93886000D01*
G75*
G02*
X165353000Y-93636000I250000J0D01*
G01*
X165853000Y-93636000D01*
G75*
G02*
X166103000Y-93886000I0J-250000D01*
G01*
G37*
G04 #@! TD.AperFunction*
G04 #@! TA.AperFunction,SMDPad,CuDef*
G36*
G01*
X162374600Y-98330600D02*
X161424600Y-98330600D01*
G75*
G02*
X161174600Y-98080600I0J250000D01*
G01*
X161174600Y-97580600D01*
G75*
G02*
X161424600Y-97330600I250000J0D01*
G01*
X162374600Y-97330600D01*
G75*
G02*
X162624600Y-97580600I0J-250000D01*
G01*
X162624600Y-98080600D01*
G75*
G02*
X162374600Y-98330600I-250000J0D01*
G01*
G37*
G04 #@! TD.AperFunction*
G04 #@! TA.AperFunction,SMDPad,CuDef*
G36*
G01*
X162374600Y-100230600D02*
X161424600Y-100230600D01*
G75*
G02*
X161174600Y-99980600I0J250000D01*
G01*
X161174600Y-99480600D01*
G75*
G02*
X161424600Y-99230600I250000J0D01*
G01*
X162374600Y-99230600D01*
G75*
G02*
X162624600Y-99480600I0J-250000D01*
G01*
X162624600Y-99980600D01*
G75*
G02*
X162374600Y-100230600I-250000J0D01*
G01*
G37*
G04 #@! TD.AperFunction*
G04 #@! TA.AperFunction,SMDPad,CuDef*
G36*
G01*
X145772800Y-95181400D02*
X145772800Y-96131400D01*
G75*
G02*
X145522800Y-96381400I-250000J0D01*
G01*
X145022800Y-96381400D01*
G75*
G02*
X144772800Y-96131400I0J250000D01*
G01*
X144772800Y-95181400D01*
G75*
G02*
X145022800Y-94931400I250000J0D01*
G01*
X145522800Y-94931400D01*
G75*
G02*
X145772800Y-95181400I0J-250000D01*
G01*
G37*
G04 #@! TD.AperFunction*
G04 #@! TA.AperFunction,SMDPad,CuDef*
G36*
G01*
X143872800Y-95181400D02*
X143872800Y-96131400D01*
G75*
G02*
X143622800Y-96381400I-250000J0D01*
G01*
X143122800Y-96381400D01*
G75*
G02*
X142872800Y-96131400I0J250000D01*
G01*
X142872800Y-95181400D01*
G75*
G02*
X143122800Y-94931400I250000J0D01*
G01*
X143622800Y-94931400D01*
G75*
G02*
X143872800Y-95181400I0J-250000D01*
G01*
G37*
G04 #@! TD.AperFunction*
G04 #@! TA.AperFunction,SMDPad,CuDef*
G36*
G01*
X146479600Y-96156800D02*
X146479600Y-95206800D01*
G75*
G02*
X146729600Y-94956800I250000J0D01*
G01*
X147229600Y-94956800D01*
G75*
G02*
X147479600Y-95206800I0J-250000D01*
G01*
X147479600Y-96156800D01*
G75*
G02*
X147229600Y-96406800I-250000J0D01*
G01*
X146729600Y-96406800D01*
G75*
G02*
X146479600Y-96156800I0J250000D01*
G01*
G37*
G04 #@! TD.AperFunction*
G04 #@! TA.AperFunction,SMDPad,CuDef*
G36*
G01*
X148379600Y-96156800D02*
X148379600Y-95206800D01*
G75*
G02*
X148629600Y-94956800I250000J0D01*
G01*
X149129600Y-94956800D01*
G75*
G02*
X149379600Y-95206800I0J-250000D01*
G01*
X149379600Y-96156800D01*
G75*
G02*
X149129600Y-96406800I-250000J0D01*
G01*
X148629600Y-96406800D01*
G75*
G02*
X148379600Y-96156800I0J250000D01*
G01*
G37*
G04 #@! TD.AperFunction*
G04 #@! TA.AperFunction,SMDPad,CuDef*
G36*
G01*
X172179000Y-92067000D02*
X171229000Y-92067000D01*
G75*
G02*
X170979000Y-91817000I0J250000D01*
G01*
X170979000Y-91317000D01*
G75*
G02*
X171229000Y-91067000I250000J0D01*
G01*
X172179000Y-91067000D01*
G75*
G02*
X172429000Y-91317000I0J-250000D01*
G01*
X172429000Y-91817000D01*
G75*
G02*
X172179000Y-92067000I-250000J0D01*
G01*
G37*
G04 #@! TD.AperFunction*
G04 #@! TA.AperFunction,SMDPad,CuDef*
G36*
G01*
X172179000Y-93967000D02*
X171229000Y-93967000D01*
G75*
G02*
X170979000Y-93717000I0J250000D01*
G01*
X170979000Y-93217000D01*
G75*
G02*
X171229000Y-92967000I250000J0D01*
G01*
X172179000Y-92967000D01*
G75*
G02*
X172429000Y-93217000I0J-250000D01*
G01*
X172429000Y-93717000D01*
G75*
G02*
X172179000Y-93967000I-250000J0D01*
G01*
G37*
G04 #@! TD.AperFunction*
G04 #@! TA.AperFunction,SMDPad,CuDef*
G36*
G01*
X134362800Y-88348800D02*
X134362800Y-89298800D01*
G75*
G02*
X134112800Y-89548800I-250000J0D01*
G01*
X133612800Y-89548800D01*
G75*
G02*
X133362800Y-89298800I0J250000D01*
G01*
X133362800Y-88348800D01*
G75*
G02*
X133612800Y-88098800I250000J0D01*
G01*
X134112800Y-88098800D01*
G75*
G02*
X134362800Y-88348800I0J-250000D01*
G01*
G37*
G04 #@! TD.AperFunction*
G04 #@! TA.AperFunction,SMDPad,CuDef*
G36*
G01*
X132462800Y-88348800D02*
X132462800Y-89298800D01*
G75*
G02*
X132212800Y-89548800I-250000J0D01*
G01*
X131712800Y-89548800D01*
G75*
G02*
X131462800Y-89298800I0J250000D01*
G01*
X131462800Y-88348800D01*
G75*
G02*
X131712800Y-88098800I250000J0D01*
G01*
X132212800Y-88098800D01*
G75*
G02*
X132462800Y-88348800I0J-250000D01*
G01*
G37*
G04 #@! TD.AperFunction*
D22*
X164496400Y-104013000D03*
X164496400Y-96913000D03*
X171596400Y-96913000D03*
X171596400Y-104013000D03*
D23*
X131658360Y-84038440D03*
X134411720Y-84040980D03*
D24*
X133896100Y-81394300D03*
X133896100Y-86652100D03*
X132143500Y-81394300D03*
X132143500Y-86652100D03*
D25*
X134874000Y-86614000D03*
X134874000Y-88773000D03*
X137668000Y-83058000D03*
X132715000Y-98552000D03*
X139954000Y-102616000D03*
X143383000Y-99568000D03*
X155321000Y-96520000D03*
X162195400Y-95747400D03*
X171704000Y-84963000D03*
X148844000Y-89154000D03*
X147066000Y-99568000D03*
X164338000Y-108204000D03*
X161798000Y-106172000D03*
X164496400Y-96913000D03*
X170180000Y-94361000D03*
X172085000Y-94615000D03*
X137718800Y-94716200D03*
X159258000Y-108204000D03*
X153924000Y-100203000D03*
X169164000Y-100965000D03*
X164496400Y-104013000D03*
X167386000Y-106172000D03*
X163957000Y-87630000D03*
X170595400Y-91247400D03*
X159004000Y-86487000D03*
X154178000Y-81915000D03*
X137668000Y-81280000D03*
X145923000Y-89408000D03*
X165608000Y-89789000D03*
X146409400Y-90043000D03*
X157734000Y-91313000D03*
X166183313Y-88840313D03*
X166751000Y-101981000D03*
X164719000Y-87757000D03*
D26*
X149892000Y-90329000D02*
X149892000Y-91352000D01*
X149479000Y-89916000D02*
X149892000Y-90329000D01*
X147892000Y-90233000D02*
X148209000Y-89916000D01*
X147892000Y-91352000D02*
X147892000Y-90233000D01*
X149392000Y-90083000D02*
X149225000Y-89916000D01*
X149392000Y-91352000D02*
X149392000Y-90083000D01*
X149225000Y-89916000D02*
X149479000Y-89916000D01*
X148392000Y-90114000D02*
X148590000Y-89916000D01*
X148392000Y-91352000D02*
X148392000Y-90114000D01*
X148209000Y-89916000D02*
X148590000Y-89916000D01*
X141892000Y-90264000D02*
X141892000Y-91352000D01*
X142240000Y-89916000D02*
X141892000Y-90264000D01*
X145392000Y-90274000D02*
X145034000Y-89916000D01*
X145392000Y-91352000D02*
X145392000Y-90274000D01*
X144892000Y-91352000D02*
X144892000Y-90028000D01*
X144892000Y-90028000D02*
X144780000Y-89916000D01*
X145034000Y-89916000D02*
X144780000Y-89916000D01*
X144392000Y-89923000D02*
X144399000Y-89916000D01*
X144392000Y-91352000D02*
X144392000Y-89923000D01*
X144780000Y-89916000D02*
X144399000Y-89916000D01*
X143892000Y-90044000D02*
X143764000Y-89916000D01*
X143892000Y-91352000D02*
X143892000Y-90044000D01*
X144399000Y-89916000D02*
X143764000Y-89916000D01*
X143392000Y-90034000D02*
X143510000Y-89916000D01*
X143392000Y-91352000D02*
X143392000Y-90034000D01*
X143764000Y-89916000D02*
X143510000Y-89916000D01*
X142892000Y-90060000D02*
X142748000Y-89916000D01*
X142892000Y-91352000D02*
X142892000Y-90060000D01*
X143510000Y-89916000D02*
X142748000Y-89916000D01*
X142392000Y-90018000D02*
X142494000Y-89916000D01*
X142494000Y-89916000D02*
X142240000Y-89916000D01*
X142392000Y-91352000D02*
X142392000Y-90018000D01*
X142748000Y-89916000D02*
X142494000Y-89916000D01*
X134583800Y-81394300D02*
X136296400Y-83106900D01*
X133896100Y-81394300D02*
X134583800Y-81394300D01*
X134835900Y-86652100D02*
X134874000Y-86614000D01*
X133896100Y-86652100D02*
X134835900Y-86652100D01*
X134823200Y-88823800D02*
X134874000Y-88773000D01*
X133862800Y-88823800D02*
X134823200Y-88823800D01*
X137619100Y-83106900D02*
X137668000Y-83058000D01*
X136296400Y-83106900D02*
X137619100Y-83106900D01*
X132892800Y-99546200D02*
X132962800Y-99616200D01*
X132765800Y-98501200D02*
X132715000Y-98552000D01*
X132892800Y-98501200D02*
X132765800Y-98501200D01*
X132892800Y-97161200D02*
X132892800Y-98501200D01*
X132892800Y-98501200D02*
X132892800Y-99546200D01*
X140018800Y-102551200D02*
X139954000Y-102616000D01*
X140018800Y-101016200D02*
X140018800Y-102551200D01*
X143392000Y-95637200D02*
X143372800Y-95656400D01*
X143392000Y-91352000D02*
X143392000Y-95637200D01*
X143372800Y-96890434D02*
X144213100Y-97730734D01*
X143372800Y-95656400D02*
X143372800Y-96890434D01*
X144213100Y-99551500D02*
X144180600Y-99584000D01*
X144213100Y-97730734D02*
X144213100Y-99551500D01*
X143399000Y-99584000D02*
X143383000Y-99568000D01*
X144180600Y-99584000D02*
X143399000Y-99584000D01*
X155321000Y-95438000D02*
X155321000Y-96520000D01*
X161213800Y-94765800D02*
X162195400Y-95747400D01*
X161213800Y-94296000D02*
X161213800Y-94765800D01*
X171731300Y-84935700D02*
X171704000Y-84963000D01*
X171731300Y-83947000D02*
X171731300Y-84935700D01*
X149392000Y-95169400D02*
X149392000Y-91352000D01*
X148879600Y-95681800D02*
X149392000Y-95169400D01*
X148879600Y-96806500D02*
X147946900Y-97739200D01*
X148879600Y-95681800D02*
X148879600Y-96806500D01*
X148844000Y-89916000D02*
X148844000Y-89154000D01*
X148590000Y-89916000D02*
X148844000Y-89916000D01*
X148844000Y-89916000D02*
X149225000Y-89916000D01*
X147090468Y-99592468D02*
X147066000Y-99568000D01*
X147914400Y-99592468D02*
X147090468Y-99592468D01*
X161899600Y-101286600D02*
X161899600Y-99730600D01*
X165420400Y-94178400D02*
X165603000Y-94361000D01*
X165420400Y-92143500D02*
X165420400Y-94178400D01*
X161798000Y-108204000D02*
X161798000Y-106172000D01*
X164496400Y-97133800D02*
X164496400Y-96913000D01*
X161899600Y-99730600D02*
X164496400Y-97133800D01*
X165603000Y-95806400D02*
X165603000Y-94361000D01*
X164496400Y-96913000D02*
X165603000Y-95806400D01*
X171704000Y-94234000D02*
X172085000Y-94615000D01*
X171704000Y-93467000D02*
X171704000Y-94234000D01*
X137718800Y-94716200D02*
X137718800Y-101016200D01*
X149311879Y-100311199D02*
X151250999Y-100311199D01*
X149276209Y-100346869D02*
X149311879Y-100311199D01*
X141012321Y-99711799D02*
X141647391Y-100346869D01*
X139023201Y-99711799D02*
X141012321Y-99711799D01*
X151250999Y-100311199D02*
X152155400Y-101215600D01*
X137718800Y-101016200D02*
X139023201Y-99711799D01*
X153240410Y-95618590D02*
X155321000Y-93538000D01*
X153240410Y-100130590D02*
X153240410Y-95618590D01*
X152155400Y-101215600D02*
X153240410Y-100130590D01*
X156645800Y-93538000D02*
X157403800Y-94296000D01*
X155321000Y-93538000D02*
X156645800Y-93538000D01*
X162358590Y-93016590D02*
X163703000Y-94361000D01*
X157708210Y-93016590D02*
X162358590Y-93016590D01*
X157403800Y-93321000D02*
X157708210Y-93016590D01*
X157403800Y-94296000D02*
X157403800Y-93321000D01*
X164120400Y-93943600D02*
X164120400Y-92143500D01*
X163703000Y-94361000D02*
X164120400Y-93943600D01*
X158607101Y-80824099D02*
X157452700Y-81978500D01*
X164885399Y-80824099D02*
X158607101Y-80824099D01*
X166039800Y-81978500D02*
X164885399Y-80824099D01*
X172735710Y-81629854D02*
X172735710Y-86725290D01*
X172735710Y-86725290D02*
X171704000Y-87757000D01*
X171929955Y-80824099D02*
X172735710Y-81629854D01*
X167194201Y-80824099D02*
X171929955Y-80824099D01*
X166039800Y-81978500D02*
X167194201Y-80824099D01*
X146954200Y-95656400D02*
X146979600Y-95681800D01*
X145272800Y-95656400D02*
X146954200Y-95656400D01*
X145272800Y-100251938D02*
X145177869Y-100346869D01*
X145272800Y-95656400D02*
X145272800Y-100251938D01*
X145177869Y-100346869D02*
X149276209Y-100346869D01*
X141647391Y-100346869D02*
X145177869Y-100346869D01*
X148892000Y-93769400D02*
X148892000Y-91352000D01*
X146979600Y-95681800D02*
X148892000Y-93769400D01*
X137463800Y-94461200D02*
X137718800Y-94716200D01*
X132892800Y-94461200D02*
X137463800Y-94461200D01*
X132892800Y-91768300D02*
X133805300Y-90855800D01*
X132892800Y-94461200D02*
X132892800Y-91768300D01*
X153851590Y-100130590D02*
X153924000Y-100203000D01*
X153240410Y-100130590D02*
X153851590Y-100130590D01*
X133134100Y-101687500D02*
X132962800Y-101516200D01*
X133134100Y-106184700D02*
X133134100Y-101687500D01*
X134918800Y-101516200D02*
X135418800Y-101016200D01*
X132962800Y-101516200D02*
X134918800Y-101516200D01*
D27*
X159943800Y-97993200D02*
X159893000Y-98044000D01*
X159943800Y-94296000D02*
X159943800Y-97993200D01*
X152934100Y-105002900D02*
X152934100Y-106184700D01*
X159893000Y-98044000D02*
X152934100Y-105002900D01*
X158673800Y-97363200D02*
X157993000Y-98044000D01*
X158673800Y-94296000D02*
X158673800Y-97363200D01*
X157114800Y-98044000D02*
X148974100Y-106184700D01*
X157993000Y-98044000D02*
X157114800Y-98044000D01*
X150392000Y-95500700D02*
X150392000Y-91352000D01*
X150598500Y-95707200D02*
X150392000Y-95500700D01*
X143230600Y-104008200D02*
X141054100Y-106184700D01*
X143230600Y-101584000D02*
X143230600Y-104008200D01*
X146964400Y-104154400D02*
X144934100Y-106184700D01*
X146964400Y-101592468D02*
X146964400Y-104154400D01*
X162526000Y-104013000D02*
X161899600Y-103386600D01*
X164496400Y-104013000D02*
X162526000Y-104013000D01*
X169320400Y-100808600D02*
X169164000Y-100965000D01*
X169320400Y-92143500D02*
X169320400Y-100808600D01*
X132267961Y-86527639D02*
X132143500Y-86652100D01*
X132267961Y-81518761D02*
X132267961Y-86527639D01*
X132143500Y-81394300D02*
X132267961Y-81518761D01*
X132143500Y-88643100D02*
X131962800Y-88823800D01*
X132143500Y-86652100D02*
X132143500Y-88643100D01*
X131962800Y-90838300D02*
X131980300Y-90855800D01*
X131962800Y-88823800D02*
X131962800Y-90838300D01*
X167370400Y-91406000D02*
X167370400Y-92143500D01*
X169749010Y-89027390D02*
X167370400Y-91406000D01*
X138303300Y-84233152D02*
X168337278Y-84233152D01*
X137885871Y-84650581D02*
X138303300Y-84233152D01*
X133217919Y-84650581D02*
X137885871Y-84650581D01*
X168337278Y-84233152D02*
X169749010Y-85644884D01*
X132143500Y-85725000D02*
X133217919Y-84650581D01*
X169749010Y-85644884D02*
X169749010Y-89027390D01*
X132143500Y-86652100D02*
X132143500Y-85725000D01*
X167370400Y-106156400D02*
X167386000Y-106172000D01*
X167370400Y-92143500D02*
X167370400Y-106156400D01*
X164120400Y-87466600D02*
X163957000Y-87630000D01*
X164120400Y-86418500D02*
X164120400Y-87466600D01*
X170915000Y-91567000D02*
X170595400Y-91247400D01*
X171704000Y-91567000D02*
X170915000Y-91567000D01*
X171704000Y-91567000D02*
X171704000Y-89582000D01*
X161899600Y-96798318D02*
X161899600Y-97830600D01*
X163163519Y-95534399D02*
X161899600Y-96798318D01*
X164501010Y-94964848D02*
X163931459Y-95534399D01*
X164501010Y-93435990D02*
X164501010Y-94964848D01*
X163931459Y-95534399D02*
X163163519Y-95534399D01*
X164970400Y-92966600D02*
X164501010Y-93435990D01*
X164970400Y-92343500D02*
X164970400Y-92966600D01*
X164770400Y-92143500D02*
X164970400Y-92343500D01*
X159816800Y-99913400D02*
X159816800Y-99976300D01*
X161899600Y-97830600D02*
X159816800Y-99913400D01*
X163401900Y-86487000D02*
X163470400Y-86418500D01*
X159004000Y-86487000D02*
X163401900Y-86487000D01*
X155564200Y-81915000D02*
X155627700Y-81978500D01*
X154178000Y-81915000D02*
X155564200Y-81915000D01*
X137666100Y-81281900D02*
X137668000Y-81280000D01*
X136296400Y-81281900D02*
X137666100Y-81281900D01*
X166720400Y-85866274D02*
X166720400Y-86418500D01*
X165696897Y-84842771D02*
X166720400Y-85866274D01*
X146343900Y-84842771D02*
X165696897Y-84842771D01*
X140892000Y-90294671D02*
X146343900Y-84842771D01*
X140892000Y-91352000D02*
X140892000Y-90294671D01*
X166070400Y-87156000D02*
X166070400Y-86418500D01*
X163826948Y-88239601D02*
X164986799Y-88239601D01*
X163729737Y-88142390D02*
X163826948Y-88239601D01*
X164986799Y-88239601D02*
X166070400Y-87156000D01*
X157632410Y-88142390D02*
X163729737Y-88142390D01*
X157403800Y-88371000D02*
X157632410Y-88142390D01*
X157403800Y-89346000D02*
X157403800Y-88371000D01*
X166070400Y-85681000D02*
X166070400Y-86418500D01*
X165536981Y-85147581D02*
X166070400Y-85681000D01*
X146470156Y-85147581D02*
X165536981Y-85147581D01*
X141392000Y-90225737D02*
X146470156Y-85147581D01*
X141392000Y-91352000D02*
X141392000Y-90225737D01*
X145892000Y-89439000D02*
X145923000Y-89408000D01*
X145892000Y-91352000D02*
X145892000Y-89439000D01*
X168670400Y-87234600D02*
X168670400Y-86418500D01*
X166116000Y-89789000D02*
X168670400Y-87234600D01*
X165608000Y-89789000D02*
X166116000Y-89789000D01*
X146392000Y-90060400D02*
X146409400Y-90043000D01*
X146392000Y-91352000D02*
X146392000Y-90060400D01*
X163076610Y-91177390D02*
X165656516Y-91177390D01*
X165656516Y-91177390D02*
X166070400Y-91591274D01*
X162941000Y-91313000D02*
X163076610Y-91177390D01*
X166070400Y-91591274D02*
X166070400Y-92143500D01*
X157734000Y-91313000D02*
X162941000Y-91313000D01*
X165420400Y-85681000D02*
X165420400Y-86418500D01*
X165191790Y-85452390D02*
X165420400Y-85681000D01*
X147187589Y-85452390D02*
X165191790Y-85452390D01*
X146892000Y-85747979D02*
X147187589Y-85452390D01*
X146892000Y-91352000D02*
X146892000Y-85747979D01*
X168020400Y-87003226D02*
X166183313Y-88840313D01*
X168020400Y-86418500D02*
X168020400Y-87003226D01*
X159996500Y-101981000D02*
X166751000Y-101981000D01*
X159816800Y-101801300D02*
X159996500Y-101981000D01*
X168020400Y-107061600D02*
X168020400Y-92143500D01*
X166878000Y-108204000D02*
X168020400Y-107061600D01*
X168670400Y-107456400D02*
X168670400Y-92143500D01*
X169418000Y-108204000D02*
X168670400Y-107456400D01*
X164770400Y-87705600D02*
X164719000Y-87757000D01*
X164770400Y-86418500D02*
X164770400Y-87705600D01*
X168723300Y-82122000D02*
X168579800Y-81978500D01*
X171731300Y-82122000D02*
X168723300Y-82122000D01*
X142388100Y-96074018D02*
X142388100Y-97730734D01*
X139801681Y-93487599D02*
X142388100Y-96074018D01*
X137175599Y-93487599D02*
X139801681Y-93487599D01*
X135623399Y-87344119D02*
X135623399Y-91935399D01*
X138429556Y-84537962D02*
X135623399Y-87344119D01*
X169320400Y-85681000D02*
X168177362Y-84537962D01*
X135623399Y-91935399D02*
X137175599Y-93487599D01*
X168177362Y-84537962D02*
X138429556Y-84537962D01*
X169320400Y-86418500D02*
X169320400Y-85681000D01*
X142388100Y-99476500D02*
X142280600Y-99584000D01*
X142388100Y-97730734D02*
X142388100Y-99476500D01*
X150088459Y-96986999D02*
X148407648Y-98667810D01*
X147050510Y-98667810D02*
X146121900Y-97739200D01*
X148407648Y-98667810D02*
X147050510Y-98667810D01*
X150708059Y-96986999D02*
X150088459Y-96986999D01*
X151339610Y-96355448D02*
X150708059Y-96986999D01*
X151339610Y-95058952D02*
X151339610Y-96355448D01*
X154255062Y-92143500D02*
X151339610Y-95058952D01*
X163470400Y-92143500D02*
X154255062Y-92143500D01*
X146121900Y-99484968D02*
X146014400Y-99592468D01*
X146121900Y-97739200D02*
X146121900Y-99484968D01*
X151155400Y-96975300D02*
X152423500Y-95707200D01*
X151155400Y-97965600D02*
X151155400Y-96975300D01*
X158673800Y-90321000D02*
X158673800Y-89346000D01*
X159207220Y-90854420D02*
X158673800Y-90321000D01*
X166168820Y-90854420D02*
X159207220Y-90854420D01*
X166720400Y-91406000D02*
X166168820Y-90854420D01*
X166720400Y-92143500D02*
X166720400Y-91406000D01*
X167370400Y-86970726D02*
X167370400Y-86418500D01*
X163791516Y-90549610D02*
X167370400Y-86970726D01*
X160172410Y-90549610D02*
X163791516Y-90549610D01*
X159943800Y-90321000D02*
X160172410Y-90549610D01*
X159943800Y-89346000D02*
X159943800Y-90321000D01*
M02*
