G04 #@! TF.GenerationSoftware,KiCad,Pcbnew,(5.1.8-0-10_14)*
G04 #@! TF.CreationDate,2021-03-05T16:46:23-05:00*
G04 #@! TF.ProjectId,v1,76312e6b-6963-4616-945f-706362585858,rev?*
G04 #@! TF.SameCoordinates,Original*
G04 #@! TF.FileFunction,Legend,Top*
G04 #@! TF.FilePolarity,Positive*
%FSLAX46Y46*%
G04 Gerber Fmt 4.6, Leading zero omitted, Abs format (unit mm)*
G04 Created by KiCad (PCBNEW (5.1.8-0-10_14)) date 2021-03-05 16:46:23*
%MOMM*%
%LPD*%
G01*
G04 APERTURE LIST*
%ADD10C,0.112500*%
%ADD11C,0.120000*%
G04 APERTURE END LIST*
D10*
X152627857Y-108621580D02*
X152885000Y-108621580D01*
X152756428Y-109621580D02*
X152756428Y-108621580D01*
X153035000Y-109240628D02*
X153377857Y-109240628D01*
X148629897Y-108621580D02*
X148887040Y-108621580D01*
X148758468Y-109621580D02*
X148758468Y-108621580D01*
X149037040Y-109240628D02*
X149379897Y-109240628D01*
X149208468Y-109621580D02*
X149208468Y-108859676D01*
X144256937Y-109573961D02*
X144321222Y-109621580D01*
X144428365Y-109621580D01*
X144471222Y-109573961D01*
X144492651Y-109526342D01*
X144514080Y-109431104D01*
X144514080Y-109335866D01*
X144492651Y-109240628D01*
X144471222Y-109193009D01*
X144428365Y-109145390D01*
X144342651Y-109097771D01*
X144299794Y-109050152D01*
X144278365Y-109002533D01*
X144256937Y-108907295D01*
X144256937Y-108812057D01*
X144278365Y-108716819D01*
X144299794Y-108669200D01*
X144342651Y-108621580D01*
X144449794Y-108621580D01*
X144514080Y-108669200D01*
X144685508Y-109573961D02*
X144749794Y-109621580D01*
X144856937Y-109621580D01*
X144899794Y-109573961D01*
X144921222Y-109526342D01*
X144942651Y-109431104D01*
X144942651Y-109335866D01*
X144921222Y-109240628D01*
X144899794Y-109193009D01*
X144856937Y-109145390D01*
X144771222Y-109097771D01*
X144728365Y-109050152D01*
X144706937Y-109002533D01*
X144685508Y-108907295D01*
X144685508Y-108812057D01*
X144706937Y-108716819D01*
X144728365Y-108669200D01*
X144771222Y-108621580D01*
X144878365Y-108621580D01*
X144942651Y-108669200D01*
X145392651Y-109621580D02*
X145242651Y-109145390D01*
X145135508Y-109621580D02*
X145135508Y-108621580D01*
X145306937Y-108621580D01*
X145349794Y-108669200D01*
X145371222Y-108716819D01*
X145392651Y-108812057D01*
X145392651Y-108954914D01*
X145371222Y-109050152D01*
X145349794Y-109097771D01*
X145306937Y-109145390D01*
X145135508Y-109145390D01*
X145821222Y-109621580D02*
X145564080Y-109621580D01*
X145692651Y-109621580D02*
X145692651Y-108621580D01*
X145649794Y-108764438D01*
X145606937Y-108859676D01*
X145564080Y-108907295D01*
X140258977Y-109573961D02*
X140323262Y-109621580D01*
X140430405Y-109621580D01*
X140473262Y-109573961D01*
X140494691Y-109526342D01*
X140516120Y-109431104D01*
X140516120Y-109335866D01*
X140494691Y-109240628D01*
X140473262Y-109193009D01*
X140430405Y-109145390D01*
X140344691Y-109097771D01*
X140301834Y-109050152D01*
X140280405Y-109002533D01*
X140258977Y-108907295D01*
X140258977Y-108812057D01*
X140280405Y-108716819D01*
X140301834Y-108669200D01*
X140344691Y-108621580D01*
X140451834Y-108621580D01*
X140516120Y-108669200D01*
X140687548Y-109573961D02*
X140751834Y-109621580D01*
X140858977Y-109621580D01*
X140901834Y-109573961D01*
X140923262Y-109526342D01*
X140944691Y-109431104D01*
X140944691Y-109335866D01*
X140923262Y-109240628D01*
X140901834Y-109193009D01*
X140858977Y-109145390D01*
X140773262Y-109097771D01*
X140730405Y-109050152D01*
X140708977Y-109002533D01*
X140687548Y-108907295D01*
X140687548Y-108812057D01*
X140708977Y-108716819D01*
X140730405Y-108669200D01*
X140773262Y-108621580D01*
X140880405Y-108621580D01*
X140944691Y-108669200D01*
X141394691Y-109621580D02*
X141244691Y-109145390D01*
X141137548Y-109621580D02*
X141137548Y-108621580D01*
X141308977Y-108621580D01*
X141351834Y-108669200D01*
X141373262Y-108716819D01*
X141394691Y-108812057D01*
X141394691Y-108954914D01*
X141373262Y-109050152D01*
X141351834Y-109097771D01*
X141308977Y-109145390D01*
X141137548Y-109145390D01*
X141673262Y-108621580D02*
X141716120Y-108621580D01*
X141758977Y-108669200D01*
X141780405Y-108716819D01*
X141801834Y-108812057D01*
X141823262Y-109002533D01*
X141823262Y-109240628D01*
X141801834Y-109431104D01*
X141780405Y-109526342D01*
X141758977Y-109573961D01*
X141716120Y-109621580D01*
X141673262Y-109621580D01*
X141630405Y-109573961D01*
X141608977Y-109526342D01*
X141587548Y-109431104D01*
X141566120Y-109240628D01*
X141566120Y-109002533D01*
X141587548Y-108812057D01*
X141608977Y-108716819D01*
X141630405Y-108669200D01*
X141673262Y-108621580D01*
X136700302Y-108669200D02*
X136657445Y-108621580D01*
X136593160Y-108621580D01*
X136528874Y-108669200D01*
X136486017Y-108764438D01*
X136464588Y-108859676D01*
X136443160Y-109050152D01*
X136443160Y-109193009D01*
X136464588Y-109383485D01*
X136486017Y-109478723D01*
X136528874Y-109573961D01*
X136593160Y-109621580D01*
X136636017Y-109621580D01*
X136700302Y-109573961D01*
X136721731Y-109526342D01*
X136721731Y-109193009D01*
X136636017Y-109193009D01*
X136914588Y-109621580D02*
X136914588Y-108621580D01*
X137171731Y-109621580D01*
X137171731Y-108621580D01*
X137386017Y-109621580D02*
X137386017Y-108621580D01*
X137493160Y-108621580D01*
X137557445Y-108669200D01*
X137600302Y-108764438D01*
X137621731Y-108859676D01*
X137643160Y-109050152D01*
X137643160Y-109193009D01*
X137621731Y-109383485D01*
X137600302Y-109478723D01*
X137557445Y-109573961D01*
X137493160Y-109621580D01*
X137386017Y-109621580D01*
X132552342Y-108621580D02*
X132702342Y-109621580D01*
X132852342Y-108621580D01*
X133002342Y-109621580D02*
X133002342Y-108621580D01*
X133216628Y-109621580D02*
X133216628Y-108621580D01*
X133473771Y-109621580D01*
X133473771Y-108621580D01*
D11*
X169625400Y-90267400D02*
X169625400Y-90297400D01*
X169625400Y-96727400D02*
X169625400Y-96697400D01*
X163165400Y-96727400D02*
X163165400Y-96697400D01*
X163165400Y-90297400D02*
X163165400Y-90267400D01*
X169625400Y-92197400D02*
X169625400Y-94797400D01*
X163165400Y-90267400D02*
X169625400Y-90267400D01*
X163165400Y-92197400D02*
X163165400Y-94797400D01*
X163165400Y-96727400D02*
X169625400Y-96727400D01*
X169909800Y-80648500D02*
X169909800Y-81978500D01*
X168579800Y-80648500D02*
X169909800Y-80648500D01*
X167309800Y-80648500D02*
X167309800Y-83308500D01*
X167309800Y-83308500D02*
X162169800Y-83308500D01*
X167309800Y-80648500D02*
X162169800Y-80648500D01*
X162169800Y-80648500D02*
X162169800Y-83308500D01*
X133504075Y-82960000D02*
X136189075Y-82960000D01*
X136189075Y-82960000D02*
X136189075Y-81040000D01*
X136189075Y-81040000D02*
X133504075Y-81040000D01*
X155520200Y-82938500D02*
X158205200Y-82938500D01*
X158205200Y-82938500D02*
X158205200Y-81018500D01*
X158205200Y-81018500D02*
X155520200Y-81018500D01*
D10*
X165575800Y-93740942D02*
X165640085Y-93762371D01*
X165747228Y-93762371D01*
X165790085Y-93740942D01*
X165811514Y-93719514D01*
X165832942Y-93676657D01*
X165832942Y-93633800D01*
X165811514Y-93590942D01*
X165790085Y-93569514D01*
X165747228Y-93548085D01*
X165661514Y-93526657D01*
X165618657Y-93505228D01*
X165597228Y-93483800D01*
X165575800Y-93440942D01*
X165575800Y-93398085D01*
X165597228Y-93355228D01*
X165618657Y-93333800D01*
X165661514Y-93312371D01*
X165768657Y-93312371D01*
X165832942Y-93333800D01*
X165982942Y-93312371D02*
X166090085Y-93762371D01*
X166175800Y-93440942D01*
X166261514Y-93762371D01*
X166368657Y-93312371D01*
X166518657Y-93355228D02*
X166540085Y-93333800D01*
X166582942Y-93312371D01*
X166690085Y-93312371D01*
X166732942Y-93333800D01*
X166754371Y-93355228D01*
X166775800Y-93398085D01*
X166775800Y-93440942D01*
X166754371Y-93505228D01*
X166497228Y-93762371D01*
X166775800Y-93762371D01*
X169674400Y-83167171D02*
X169674400Y-83488600D01*
X169652971Y-83552885D01*
X169610114Y-83595742D01*
X169545828Y-83617171D01*
X169502971Y-83617171D01*
X170102971Y-83167171D02*
X169888685Y-83167171D01*
X169867257Y-83381457D01*
X169888685Y-83360028D01*
X169931542Y-83338600D01*
X170038685Y-83338600D01*
X170081542Y-83360028D01*
X170102971Y-83381457D01*
X170124400Y-83424314D01*
X170124400Y-83531457D01*
X170102971Y-83574314D01*
X170081542Y-83595742D01*
X170038685Y-83617171D01*
X169931542Y-83617171D01*
X169888685Y-83595742D01*
X169867257Y-83574314D01*
X134747371Y-82348742D02*
X134297371Y-82348742D01*
X134297371Y-82241600D01*
X134318800Y-82177314D01*
X134361657Y-82134457D01*
X134404514Y-82113028D01*
X134490228Y-82091600D01*
X134554514Y-82091600D01*
X134640228Y-82113028D01*
X134683085Y-82134457D01*
X134725942Y-82177314D01*
X134747371Y-82241600D01*
X134747371Y-82348742D01*
X134297371Y-81941600D02*
X134297371Y-81663028D01*
X134468800Y-81813028D01*
X134468800Y-81748742D01*
X134490228Y-81705885D01*
X134511657Y-81684457D01*
X134554514Y-81663028D01*
X134661657Y-81663028D01*
X134704514Y-81684457D01*
X134725942Y-81705885D01*
X134747371Y-81748742D01*
X134747371Y-81877314D01*
X134725942Y-81920171D01*
X134704514Y-81941600D01*
X156769171Y-82323342D02*
X156319171Y-82323342D01*
X156319171Y-82216200D01*
X156340600Y-82151914D01*
X156383457Y-82109057D01*
X156426314Y-82087628D01*
X156512028Y-82066200D01*
X156576314Y-82066200D01*
X156662028Y-82087628D01*
X156704885Y-82109057D01*
X156747742Y-82151914D01*
X156769171Y-82216200D01*
X156769171Y-82323342D01*
X156362028Y-81894771D02*
X156340600Y-81873342D01*
X156319171Y-81830485D01*
X156319171Y-81723342D01*
X156340600Y-81680485D01*
X156362028Y-81659057D01*
X156404885Y-81637628D01*
X156447742Y-81637628D01*
X156512028Y-81659057D01*
X156769171Y-81916200D01*
X156769171Y-81637628D01*
M02*
