G04 #@! TF.GenerationSoftware,KiCad,Pcbnew,(5.1.8-0-10_14)*
G04 #@! TF.CreationDate,2021-03-05T16:46:23-05:00*
G04 #@! TF.ProjectId,v1,76312e6b-6963-4616-945f-706362585858,rev?*
G04 #@! TF.SameCoordinates,Original*
G04 #@! TF.FileFunction,Paste,Top*
G04 #@! TF.FilePolarity,Positive*
%FSLAX46Y46*%
G04 Gerber Fmt 4.6, Leading zero omitted, Abs format (unit mm)*
G04 Created by KiCad (PCBNEW (5.1.8-0-10_14)) date 2021-03-05 16:46:23*
%MOMM*%
%LPD*%
G01*
G04 APERTURE LIST*
%ADD10R,1.360000X1.560000*%
G04 APERTURE END LIST*
D10*
X170595400Y-95747400D03*
X170595400Y-91247400D03*
X162195400Y-91247400D03*
X162195400Y-95747400D03*
G36*
G01*
X135909075Y-81553750D02*
X135909075Y-82446250D01*
G75*
G02*
X135675325Y-82680000I-233750J0D01*
G01*
X135207825Y-82680000D01*
G75*
G02*
X134974075Y-82446250I0J233750D01*
G01*
X134974075Y-81553750D01*
G75*
G02*
X135207825Y-81320000I233750J0D01*
G01*
X135675325Y-81320000D01*
G75*
G02*
X135909075Y-81553750I0J-233750D01*
G01*
G37*
G36*
G01*
X134034075Y-81553750D02*
X134034075Y-82446250D01*
G75*
G02*
X133800325Y-82680000I-233750J0D01*
G01*
X133332825Y-82680000D01*
G75*
G02*
X133099075Y-82446250I0J233750D01*
G01*
X133099075Y-81553750D01*
G75*
G02*
X133332825Y-81320000I233750J0D01*
G01*
X133800325Y-81320000D01*
G75*
G02*
X134034075Y-81553750I0J-233750D01*
G01*
G37*
G36*
G01*
X157925200Y-81532250D02*
X157925200Y-82424750D01*
G75*
G02*
X157691450Y-82658500I-233750J0D01*
G01*
X157223950Y-82658500D01*
G75*
G02*
X156990200Y-82424750I0J233750D01*
G01*
X156990200Y-81532250D01*
G75*
G02*
X157223950Y-81298500I233750J0D01*
G01*
X157691450Y-81298500D01*
G75*
G02*
X157925200Y-81532250I0J-233750D01*
G01*
G37*
G36*
G01*
X156050200Y-81532250D02*
X156050200Y-82424750D01*
G75*
G02*
X155816450Y-82658500I-233750J0D01*
G01*
X155348950Y-82658500D01*
G75*
G02*
X155115200Y-82424750I0J233750D01*
G01*
X155115200Y-81532250D01*
G75*
G02*
X155348950Y-81298500I233750J0D01*
G01*
X155816450Y-81298500D01*
G75*
G02*
X156050200Y-81532250I0J-233750D01*
G01*
G37*
M02*
