G04 #@! TF.GenerationSoftware,KiCad,Pcbnew,(5.1.8-0-10_14)*
G04 #@! TF.CreationDate,2021-03-05T16:46:23-05:00*
G04 #@! TF.ProjectId,v1,76312e6b-6963-4616-945f-706362585858,rev?*
G04 #@! TF.SameCoordinates,Original*
G04 #@! TF.FileFunction,Soldermask,Top*
G04 #@! TF.FilePolarity,Negative*
%FSLAX46Y46*%
G04 Gerber Fmt 4.6, Leading zero omitted, Abs format (unit mm)*
G04 Created by KiCad (PCBNEW (5.1.8-0-10_14)) date 2021-03-05 16:46:23*
%MOMM*%
%LPD*%
G01*
G04 APERTURE LIST*
%ADD10O,1.801600X1.801600*%
%ADD11O,3.261600X4.201600*%
%ADD12C,0.863600*%
%ADD13C,0.100000*%
G04 APERTURE END LIST*
G36*
G01*
X158457200Y-109604000D02*
X158457200Y-106804000D01*
G75*
G02*
X158508000Y-106753200I50800J0D01*
G01*
X160008000Y-106753200D01*
G75*
G02*
X160058800Y-106804000I0J-50800D01*
G01*
X160058800Y-109604000D01*
G75*
G02*
X160008000Y-109654800I-50800J0D01*
G01*
X158508000Y-109654800D01*
G75*
G02*
X158457200Y-109604000I0J50800D01*
G01*
G37*
G36*
G01*
X160997200Y-109604000D02*
X160997200Y-106804000D01*
G75*
G02*
X161048000Y-106753200I50800J0D01*
G01*
X162548000Y-106753200D01*
G75*
G02*
X162598800Y-106804000I0J-50800D01*
G01*
X162598800Y-109604000D01*
G75*
G02*
X162548000Y-109654800I-50800J0D01*
G01*
X161048000Y-109654800D01*
G75*
G02*
X160997200Y-109604000I0J50800D01*
G01*
G37*
G36*
G01*
X163537200Y-109604000D02*
X163537200Y-106804000D01*
G75*
G02*
X163588000Y-106753200I50800J0D01*
G01*
X165088000Y-106753200D01*
G75*
G02*
X165138800Y-106804000I0J-50800D01*
G01*
X165138800Y-109604000D01*
G75*
G02*
X165088000Y-109654800I-50800J0D01*
G01*
X163588000Y-109654800D01*
G75*
G02*
X163537200Y-109604000I0J50800D01*
G01*
G37*
G36*
G01*
X166077200Y-109604000D02*
X166077200Y-106804000D01*
G75*
G02*
X166128000Y-106753200I50800J0D01*
G01*
X167628000Y-106753200D01*
G75*
G02*
X167678800Y-106804000I0J-50800D01*
G01*
X167678800Y-109604000D01*
G75*
G02*
X167628000Y-109654800I-50800J0D01*
G01*
X166128000Y-109654800D01*
G75*
G02*
X166077200Y-109604000I0J50800D01*
G01*
G37*
G36*
G01*
X168617200Y-109604000D02*
X168617200Y-106804000D01*
G75*
G02*
X168668000Y-106753200I50800J0D01*
G01*
X170168000Y-106753200D01*
G75*
G02*
X170218800Y-106804000I0J-50800D01*
G01*
X170218800Y-109604000D01*
G75*
G02*
X170168000Y-109654800I-50800J0D01*
G01*
X168668000Y-109654800D01*
G75*
G02*
X168617200Y-109604000I0J50800D01*
G01*
G37*
G36*
G01*
X169844600Y-96547400D02*
X169844600Y-94947400D01*
G75*
G02*
X169895400Y-94896600I50800J0D01*
G01*
X171295400Y-94896600D01*
G75*
G02*
X171346200Y-94947400I0J-50800D01*
G01*
X171346200Y-96547400D01*
G75*
G02*
X171295400Y-96598200I-50800J0D01*
G01*
X169895400Y-96598200D01*
G75*
G02*
X169844600Y-96547400I0J50800D01*
G01*
G37*
G36*
G01*
X169844600Y-92047400D02*
X169844600Y-90447400D01*
G75*
G02*
X169895400Y-90396600I50800J0D01*
G01*
X171295400Y-90396600D01*
G75*
G02*
X171346200Y-90447400I0J-50800D01*
G01*
X171346200Y-92047400D01*
G75*
G02*
X171295400Y-92098200I-50800J0D01*
G01*
X169895400Y-92098200D01*
G75*
G02*
X169844600Y-92047400I0J50800D01*
G01*
G37*
G36*
G01*
X161444600Y-92047400D02*
X161444600Y-90447400D01*
G75*
G02*
X161495400Y-90396600I50800J0D01*
G01*
X162895400Y-90396600D01*
G75*
G02*
X162946200Y-90447400I0J-50800D01*
G01*
X162946200Y-92047400D01*
G75*
G02*
X162895400Y-92098200I-50800J0D01*
G01*
X161495400Y-92098200D01*
G75*
G02*
X161444600Y-92047400I0J50800D01*
G01*
G37*
G36*
G01*
X161444600Y-96547400D02*
X161444600Y-94947400D01*
G75*
G02*
X161495400Y-94896600I50800J0D01*
G01*
X162895400Y-94896600D01*
G75*
G02*
X162946200Y-94947400I0J-50800D01*
G01*
X162946200Y-96547400D01*
G75*
G02*
X162895400Y-96598200I-50800J0D01*
G01*
X161495400Y-96598200D01*
G75*
G02*
X161444600Y-96547400I0J50800D01*
G01*
G37*
D10*
X163499800Y-81978500D03*
X166039800Y-81978500D03*
G36*
G01*
X167729800Y-81077700D02*
X169429800Y-81077700D01*
G75*
G02*
X169480600Y-81128500I0J-50800D01*
G01*
X169480600Y-82828500D01*
G75*
G02*
X169429800Y-82879300I-50800J0D01*
G01*
X167729800Y-82879300D01*
G75*
G02*
X167679000Y-82828500I0J50800D01*
G01*
X167679000Y-81128500D01*
G75*
G02*
X167729800Y-81077700I50800J0D01*
G01*
G37*
G36*
G01*
X131503300Y-107470100D02*
X131503300Y-104899300D01*
G75*
G02*
X132318700Y-104083900I815400J0D01*
G01*
X133949500Y-104083900D01*
G75*
G02*
X134764900Y-104899300I0J-815400D01*
G01*
X134764900Y-107470100D01*
G75*
G02*
X133949500Y-108285500I-815400J0D01*
G01*
X132318700Y-108285500D01*
G75*
G02*
X131503300Y-107470100I0J815400D01*
G01*
G37*
D11*
X137094100Y-106184700D03*
X141054100Y-106184700D03*
X144934100Y-106184700D03*
X148974100Y-106184700D03*
X152934100Y-106184700D03*
G36*
G01*
X135979875Y-81518350D02*
X135979875Y-82481650D01*
G75*
G02*
X135710725Y-82750800I-269150J0D01*
G01*
X135172425Y-82750800D01*
G75*
G02*
X134903275Y-82481650I0J269150D01*
G01*
X134903275Y-81518350D01*
G75*
G02*
X135172425Y-81249200I269150J0D01*
G01*
X135710725Y-81249200D01*
G75*
G02*
X135979875Y-81518350I0J-269150D01*
G01*
G37*
G36*
G01*
X134104875Y-81518350D02*
X134104875Y-82481650D01*
G75*
G02*
X133835725Y-82750800I-269150J0D01*
G01*
X133297425Y-82750800D01*
G75*
G02*
X133028275Y-82481650I0J269150D01*
G01*
X133028275Y-81518350D01*
G75*
G02*
X133297425Y-81249200I269150J0D01*
G01*
X133835725Y-81249200D01*
G75*
G02*
X134104875Y-81518350I0J-269150D01*
G01*
G37*
G36*
G01*
X157996000Y-81496850D02*
X157996000Y-82460150D01*
G75*
G02*
X157726850Y-82729300I-269150J0D01*
G01*
X157188550Y-82729300D01*
G75*
G02*
X156919400Y-82460150I0J269150D01*
G01*
X156919400Y-81496850D01*
G75*
G02*
X157188550Y-81227700I269150J0D01*
G01*
X157726850Y-81227700D01*
G75*
G02*
X157996000Y-81496850I0J-269150D01*
G01*
G37*
G36*
G01*
X156121000Y-81496850D02*
X156121000Y-82460150D01*
G75*
G02*
X155851850Y-82729300I-269150J0D01*
G01*
X155313550Y-82729300D01*
G75*
G02*
X155044400Y-82460150I0J269150D01*
G01*
X155044400Y-81496850D01*
G75*
G02*
X155313550Y-81227700I269150J0D01*
G01*
X155851850Y-81227700D01*
G75*
G02*
X156121000Y-81496850I0J-269150D01*
G01*
G37*
D12*
X131658360Y-84038440D03*
X134411720Y-84040980D03*
D13*
G36*
X131505290Y-107469904D02*
G01*
X131520938Y-107628782D01*
X131567226Y-107781371D01*
X131642391Y-107921996D01*
X131743546Y-108045254D01*
X131866804Y-108146409D01*
X132007429Y-108221574D01*
X132160018Y-108267862D01*
X132318896Y-108283510D01*
X132320522Y-108284675D01*
X132320326Y-108286665D01*
X132318700Y-108287500D01*
X132262340Y-108287500D01*
X132262144Y-108287490D01*
X132109240Y-108272430D01*
X132108855Y-108272354D01*
X131967726Y-108229543D01*
X131967364Y-108229393D01*
X131837305Y-108159875D01*
X131836979Y-108159657D01*
X131722978Y-108066099D01*
X131722701Y-108065822D01*
X131629143Y-107951821D01*
X131628925Y-107951495D01*
X131559407Y-107821436D01*
X131559257Y-107821074D01*
X131516446Y-107679945D01*
X131516370Y-107679560D01*
X131501310Y-107526656D01*
X131501300Y-107526460D01*
X131501300Y-107470100D01*
X131502300Y-107468368D01*
X131504300Y-107468368D01*
X131505290Y-107469904D01*
G37*
G36*
X134766065Y-107468474D02*
G01*
X134766900Y-107470100D01*
X134766900Y-107526460D01*
X134766890Y-107526656D01*
X134751830Y-107679560D01*
X134751754Y-107679945D01*
X134708943Y-107821074D01*
X134708793Y-107821436D01*
X134639275Y-107951495D01*
X134639057Y-107951821D01*
X134545499Y-108065822D01*
X134545222Y-108066099D01*
X134431221Y-108159657D01*
X134430895Y-108159875D01*
X134300836Y-108229393D01*
X134300474Y-108229543D01*
X134159345Y-108272354D01*
X134158960Y-108272430D01*
X134006056Y-108287490D01*
X134005860Y-108287500D01*
X133949500Y-108287500D01*
X133947768Y-108286500D01*
X133947768Y-108284500D01*
X133949304Y-108283510D01*
X134108182Y-108267862D01*
X134260771Y-108221574D01*
X134401396Y-108146409D01*
X134524654Y-108045254D01*
X134625809Y-107921996D01*
X134700974Y-107781371D01*
X134747262Y-107628782D01*
X134762910Y-107469904D01*
X134764075Y-107468278D01*
X134766065Y-107468474D01*
G37*
G36*
X132320432Y-104082900D02*
G01*
X132320432Y-104084900D01*
X132318896Y-104085890D01*
X132160018Y-104101538D01*
X132007429Y-104147826D01*
X131866804Y-104222991D01*
X131743546Y-104324146D01*
X131642391Y-104447404D01*
X131567226Y-104588029D01*
X131520938Y-104740618D01*
X131505290Y-104899496D01*
X131504125Y-104901122D01*
X131502135Y-104900926D01*
X131501300Y-104899300D01*
X131501300Y-104842940D01*
X131501310Y-104842744D01*
X131516370Y-104689840D01*
X131516446Y-104689455D01*
X131559257Y-104548326D01*
X131559407Y-104547964D01*
X131628925Y-104417905D01*
X131629143Y-104417579D01*
X131722701Y-104303578D01*
X131722978Y-104303301D01*
X131836979Y-104209743D01*
X131837305Y-104209525D01*
X131967364Y-104140007D01*
X131967726Y-104139857D01*
X132108855Y-104097046D01*
X132109240Y-104096970D01*
X132262144Y-104081910D01*
X132262340Y-104081900D01*
X132318700Y-104081900D01*
X132320432Y-104082900D01*
G37*
G36*
X134006056Y-104081910D02*
G01*
X134158960Y-104096970D01*
X134159345Y-104097046D01*
X134300474Y-104139857D01*
X134300836Y-104140007D01*
X134430895Y-104209525D01*
X134431221Y-104209743D01*
X134545222Y-104303301D01*
X134545499Y-104303578D01*
X134639057Y-104417579D01*
X134639275Y-104417905D01*
X134708793Y-104547964D01*
X134708943Y-104548326D01*
X134751754Y-104689455D01*
X134751830Y-104689840D01*
X134766890Y-104842744D01*
X134766900Y-104842940D01*
X134766900Y-104899300D01*
X134765900Y-104901032D01*
X134763900Y-104901032D01*
X134762910Y-104899496D01*
X134747262Y-104740618D01*
X134700974Y-104588029D01*
X134625809Y-104447404D01*
X134524654Y-104324146D01*
X134401396Y-104222991D01*
X134260771Y-104147826D01*
X134108182Y-104101538D01*
X133949304Y-104085890D01*
X133947678Y-104084725D01*
X133947874Y-104082735D01*
X133949500Y-104081900D01*
X134005860Y-104081900D01*
X134006056Y-104081910D01*
G37*
M02*
