G04 #@! TF.GenerationSoftware,KiCad,Pcbnew,(5.1.8-0-10_14)*
G04 #@! TF.CreationDate,2021-03-05T16:46:23-05:00*
G04 #@! TF.ProjectId,v1,76312e6b-6963-4616-945f-706362585858,rev?*
G04 #@! TF.SameCoordinates,Original*
G04 #@! TF.FileFunction,Copper,L1,Top*
G04 #@! TF.FilePolarity,Positive*
%FSLAX46Y46*%
G04 Gerber Fmt 4.6, Leading zero omitted, Abs format (unit mm)*
G04 Created by KiCad (PCBNEW (5.1.8-0-10_14)) date 2021-03-05 16:46:23*
%MOMM*%
%LPD*%
G01*
G04 APERTURE LIST*
G04 #@! TA.AperFunction,SMDPad,CuDef*
%ADD10R,1.500000X2.800000*%
G04 #@! TD*
G04 #@! TA.AperFunction,SMDPad,CuDef*
%ADD11R,1.400000X1.600000*%
G04 #@! TD*
G04 #@! TA.AperFunction,ComponentPad*
%ADD12O,1.700000X1.700000*%
G04 #@! TD*
G04 #@! TA.AperFunction,ComponentPad*
%ADD13R,1.700000X1.700000*%
G04 #@! TD*
G04 #@! TA.AperFunction,ComponentPad*
%ADD14O,3.160000X4.100000*%
G04 #@! TD*
G04 #@! TA.AperFunction,ComponentPad*
%ADD15C,0.762000*%
G04 #@! TD*
G04 #@! TA.AperFunction,ViaPad*
%ADD16C,0.508000*%
G04 #@! TD*
G04 #@! TA.AperFunction,Conductor*
%ADD17C,0.304000*%
G04 #@! TD*
G04 #@! TA.AperFunction,Conductor*
%ADD18C,0.152400*%
G04 #@! TD*
G04 #@! TA.AperFunction,Conductor*
%ADD19C,0.254000*%
G04 #@! TD*
G04 #@! TA.AperFunction,Conductor*
%ADD20C,0.100000*%
G04 #@! TD*
G04 APERTURE END LIST*
D10*
X159258000Y-108204000D03*
X161798000Y-108204000D03*
X164338000Y-108204000D03*
X166878000Y-108204000D03*
X169418000Y-108204000D03*
D11*
X170595400Y-95747400D03*
X170595400Y-91247400D03*
X162195400Y-91247400D03*
X162195400Y-95747400D03*
D12*
X163499800Y-81978500D03*
X166039800Y-81978500D03*
D13*
X168579800Y-81978500D03*
G04 #@! TA.AperFunction,ComponentPad*
G36*
G01*
X131554100Y-107444700D02*
X131554100Y-104924700D01*
G75*
G02*
X132344100Y-104134700I790000J0D01*
G01*
X133924100Y-104134700D01*
G75*
G02*
X134714100Y-104924700I0J-790000D01*
G01*
X134714100Y-107444700D01*
G75*
G02*
X133924100Y-108234700I-790000J0D01*
G01*
X132344100Y-108234700D01*
G75*
G02*
X131554100Y-107444700I0J790000D01*
G01*
G37*
G04 #@! TD.AperFunction*
D14*
X137094100Y-106184700D03*
X141054100Y-106184700D03*
X144934100Y-106184700D03*
X148974100Y-106184700D03*
X152934100Y-106184700D03*
G04 #@! TA.AperFunction,SMDPad,CuDef*
G36*
G01*
X135929075Y-81543750D02*
X135929075Y-82456250D01*
G75*
G02*
X135685325Y-82700000I-243750J0D01*
G01*
X135197825Y-82700000D01*
G75*
G02*
X134954075Y-82456250I0J243750D01*
G01*
X134954075Y-81543750D01*
G75*
G02*
X135197825Y-81300000I243750J0D01*
G01*
X135685325Y-81300000D01*
G75*
G02*
X135929075Y-81543750I0J-243750D01*
G01*
G37*
G04 #@! TD.AperFunction*
G04 #@! TA.AperFunction,SMDPad,CuDef*
G36*
G01*
X134054075Y-81543750D02*
X134054075Y-82456250D01*
G75*
G02*
X133810325Y-82700000I-243750J0D01*
G01*
X133322825Y-82700000D01*
G75*
G02*
X133079075Y-82456250I0J243750D01*
G01*
X133079075Y-81543750D01*
G75*
G02*
X133322825Y-81300000I243750J0D01*
G01*
X133810325Y-81300000D01*
G75*
G02*
X134054075Y-81543750I0J-243750D01*
G01*
G37*
G04 #@! TD.AperFunction*
G04 #@! TA.AperFunction,SMDPad,CuDef*
G36*
G01*
X157945200Y-81522250D02*
X157945200Y-82434750D01*
G75*
G02*
X157701450Y-82678500I-243750J0D01*
G01*
X157213950Y-82678500D01*
G75*
G02*
X156970200Y-82434750I0J243750D01*
G01*
X156970200Y-81522250D01*
G75*
G02*
X157213950Y-81278500I243750J0D01*
G01*
X157701450Y-81278500D01*
G75*
G02*
X157945200Y-81522250I0J-243750D01*
G01*
G37*
G04 #@! TD.AperFunction*
G04 #@! TA.AperFunction,SMDPad,CuDef*
G36*
G01*
X156070200Y-81522250D02*
X156070200Y-82434750D01*
G75*
G02*
X155826450Y-82678500I-243750J0D01*
G01*
X155338950Y-82678500D01*
G75*
G02*
X155095200Y-82434750I0J243750D01*
G01*
X155095200Y-81522250D01*
G75*
G02*
X155338950Y-81278500I243750J0D01*
G01*
X155826450Y-81278500D01*
G75*
G02*
X156070200Y-81522250I0J-243750D01*
G01*
G37*
G04 #@! TD.AperFunction*
D15*
X131658360Y-84038440D03*
X134411720Y-84040980D03*
D16*
X134874000Y-86614000D03*
X134874000Y-88773000D03*
X137668000Y-83058000D03*
X132715000Y-98552000D03*
X139954000Y-102616000D03*
X143383000Y-99568000D03*
X155321000Y-96520000D03*
X162195400Y-95747400D03*
X171704000Y-84963000D03*
X148844000Y-89154000D03*
X147066000Y-99568000D03*
X164338000Y-108204000D03*
X161798000Y-106172000D03*
X164496400Y-96913000D03*
X170180000Y-94361000D03*
X172085000Y-94615000D03*
X137718800Y-94716200D03*
X159258000Y-108204000D03*
X153924000Y-100203000D03*
X169164000Y-100965000D03*
X164496400Y-104013000D03*
X167386000Y-106172000D03*
X163957000Y-87630000D03*
X170595400Y-91247400D03*
X159004000Y-86487000D03*
X154178000Y-81915000D03*
X137668000Y-81280000D03*
X145923000Y-89408000D03*
X165608000Y-89789000D03*
X146409400Y-90043000D03*
X157734000Y-91313000D03*
X166183313Y-88840313D03*
X166751000Y-101981000D03*
X164719000Y-87757000D03*
D17*
X170595400Y-94776400D02*
X170180000Y-94361000D01*
X170595400Y-95747400D02*
X170595400Y-94776400D01*
X133566575Y-90563975D02*
X137718800Y-94716200D01*
X133566575Y-82000000D02*
X133566575Y-90563975D01*
X159258000Y-105537000D02*
X159258000Y-108204000D01*
X153924000Y-100203000D02*
X159258000Y-105537000D01*
X164782899Y-80721599D02*
X166039800Y-81978500D01*
X134844976Y-80721599D02*
X164782899Y-80721599D01*
X133566575Y-82000000D02*
X134844976Y-80721599D01*
D18*
X164496400Y-103521350D02*
X164496400Y-104013000D01*
X167052750Y-100965000D02*
X164496400Y-103521350D01*
X169164000Y-100965000D02*
X167052750Y-100965000D01*
X166878000Y-106680000D02*
X166878000Y-108204000D01*
X167386000Y-106172000D02*
X166878000Y-106680000D01*
X162195400Y-91247400D02*
X170595400Y-91247400D01*
X167705712Y-88357712D02*
X170595400Y-91247400D01*
X163957000Y-87989210D02*
X164325502Y-88357712D01*
X164325502Y-88357712D02*
X167705712Y-88357712D01*
X163957000Y-87630000D02*
X163957000Y-87989210D01*
X157457700Y-84940700D02*
X159004000Y-86487000D01*
X157457700Y-81978500D02*
X157457700Y-84940700D01*
X154241500Y-81978500D02*
X154178000Y-81915000D01*
X155582700Y-81978500D02*
X154241500Y-81978500D01*
X136948000Y-82000000D02*
X135441575Y-82000000D01*
X137668000Y-81280000D02*
X136948000Y-82000000D01*
X146869650Y-89789000D02*
X165608000Y-89789000D01*
X146488650Y-89408000D02*
X146869650Y-89789000D01*
X145923000Y-89408000D02*
X146488650Y-89408000D01*
X147679400Y-91313000D02*
X157734000Y-91313000D01*
X146409400Y-90043000D02*
X147679400Y-91313000D01*
X161266799Y-107672799D02*
X161798000Y-108204000D01*
X161266799Y-90264519D02*
X161266799Y-107672799D01*
X161312519Y-90218799D02*
X161266799Y-90264519D01*
X163078281Y-90218799D02*
X161312519Y-90218799D01*
X163131083Y-90271601D02*
X163078281Y-90218799D01*
X165839649Y-90271601D02*
X163131083Y-90271601D01*
X166183313Y-89927937D02*
X165839649Y-90271601D01*
X166183313Y-88840313D02*
X166183313Y-89927937D01*
X169418000Y-104648000D02*
X169418000Y-108204000D01*
X166751000Y-101981000D02*
X169418000Y-104648000D01*
X168579800Y-83896200D02*
X168579800Y-81978500D01*
X164719000Y-87757000D02*
X168579800Y-83896200D01*
D19*
X133887993Y-80924807D02*
X133810325Y-80917157D01*
X133322825Y-80917157D01*
X133200583Y-80929197D01*
X133083038Y-80964854D01*
X132974709Y-81022757D01*
X132879757Y-81100682D01*
X132801832Y-81195634D01*
X132743929Y-81303963D01*
X132708272Y-81421508D01*
X132696232Y-81543750D01*
X132696232Y-82456250D01*
X132708272Y-82578492D01*
X132743929Y-82696037D01*
X132801832Y-82804366D01*
X132879757Y-82899318D01*
X132974709Y-82977243D01*
X133033575Y-83008708D01*
X133033576Y-90537790D01*
X133030997Y-90563975D01*
X133041288Y-90668461D01*
X133060263Y-90731012D01*
X133071766Y-90768932D01*
X133121259Y-90861526D01*
X133187865Y-90942686D01*
X133208197Y-90959372D01*
X137097763Y-94848939D01*
X137108203Y-94901423D01*
X137156071Y-95016985D01*
X137225564Y-95120989D01*
X137314011Y-95209436D01*
X137418015Y-95278929D01*
X137533577Y-95326797D01*
X137656258Y-95351200D01*
X137781342Y-95351200D01*
X137904023Y-95326797D01*
X138019585Y-95278929D01*
X138123589Y-95209436D01*
X138212036Y-95120989D01*
X138281529Y-95016985D01*
X138329397Y-94901423D01*
X138353800Y-94778742D01*
X138353800Y-94653658D01*
X138329397Y-94530977D01*
X138281529Y-94415415D01*
X138212036Y-94311411D01*
X138123589Y-94222964D01*
X138019585Y-94153471D01*
X137904023Y-94105603D01*
X137851539Y-94095163D01*
X134099575Y-90343200D01*
X134099575Y-84736468D01*
X134189453Y-84773697D01*
X134336670Y-84802980D01*
X134486770Y-84802980D01*
X134633987Y-84773697D01*
X134772662Y-84716256D01*
X134897467Y-84632864D01*
X135003604Y-84526727D01*
X135086996Y-84401922D01*
X135144437Y-84263247D01*
X135173720Y-84116030D01*
X135173720Y-83965930D01*
X135144437Y-83818713D01*
X135086996Y-83680038D01*
X135003604Y-83555233D01*
X134897467Y-83449096D01*
X134772662Y-83365704D01*
X134633987Y-83308263D01*
X134486770Y-83278980D01*
X134336670Y-83278980D01*
X134189453Y-83308263D01*
X134099575Y-83345492D01*
X134099575Y-83008708D01*
X134158441Y-82977243D01*
X134253393Y-82899318D01*
X134331318Y-82804366D01*
X134389221Y-82696037D01*
X134424878Y-82578492D01*
X134436918Y-82456250D01*
X134436918Y-81883432D01*
X134571232Y-81749118D01*
X134571232Y-82456250D01*
X134583272Y-82578492D01*
X134618929Y-82696037D01*
X134676832Y-82804366D01*
X134754757Y-82899318D01*
X134849709Y-82977243D01*
X134958038Y-83035146D01*
X135075583Y-83070803D01*
X135197825Y-83082843D01*
X135685325Y-83082843D01*
X135807567Y-83070803D01*
X135925112Y-83035146D01*
X136033441Y-82977243D01*
X136128393Y-82899318D01*
X136206318Y-82804366D01*
X136264221Y-82696037D01*
X136299878Y-82578492D01*
X136311824Y-82457200D01*
X136925550Y-82457200D01*
X136948000Y-82459411D01*
X136970450Y-82457200D01*
X136970460Y-82457200D01*
X137037627Y-82450585D01*
X137123809Y-82424441D01*
X137203236Y-82381987D01*
X137272853Y-82324853D01*
X137287174Y-82307403D01*
X137679578Y-81915000D01*
X137730542Y-81915000D01*
X137853223Y-81890597D01*
X137968785Y-81842729D01*
X138072789Y-81773236D01*
X138161236Y-81684789D01*
X138230729Y-81580785D01*
X138278597Y-81465223D01*
X138303000Y-81342542D01*
X138303000Y-81254599D01*
X154774948Y-81254599D01*
X154760054Y-81282463D01*
X154724397Y-81400008D01*
X154712451Y-81521300D01*
X154678645Y-81521300D01*
X154671236Y-81510211D01*
X154582789Y-81421764D01*
X154478785Y-81352271D01*
X154363223Y-81304403D01*
X154240542Y-81280000D01*
X154115458Y-81280000D01*
X153992777Y-81304403D01*
X153877215Y-81352271D01*
X153773211Y-81421764D01*
X153684764Y-81510211D01*
X153615271Y-81614215D01*
X153567403Y-81729777D01*
X153543000Y-81852458D01*
X153543000Y-81977542D01*
X153567403Y-82100223D01*
X153615271Y-82215785D01*
X153684764Y-82319789D01*
X153773211Y-82408236D01*
X153877215Y-82477729D01*
X153992777Y-82525597D01*
X154115458Y-82550000D01*
X154240542Y-82550000D01*
X154363223Y-82525597D01*
X154478785Y-82477729D01*
X154541686Y-82435700D01*
X154712451Y-82435700D01*
X154724397Y-82556992D01*
X154760054Y-82674537D01*
X154817957Y-82782866D01*
X154895882Y-82877818D01*
X154990834Y-82955743D01*
X155099163Y-83013646D01*
X155216708Y-83049303D01*
X155338950Y-83061343D01*
X155826450Y-83061343D01*
X155948692Y-83049303D01*
X156066237Y-83013646D01*
X156174566Y-82955743D01*
X156269518Y-82877818D01*
X156347443Y-82782866D01*
X156405346Y-82674537D01*
X156441003Y-82556992D01*
X156453043Y-82434750D01*
X156453043Y-81522250D01*
X156441003Y-81400008D01*
X156405346Y-81282463D01*
X156390452Y-81254599D01*
X156649948Y-81254599D01*
X156635054Y-81282463D01*
X156599397Y-81400008D01*
X156587357Y-81522250D01*
X156587357Y-82434750D01*
X156599397Y-82556992D01*
X156635054Y-82674537D01*
X156692957Y-82782866D01*
X156770882Y-82877818D01*
X156865834Y-82955743D01*
X156974163Y-83013646D01*
X157000500Y-83021635D01*
X157000501Y-84918240D01*
X156998289Y-84940700D01*
X157000501Y-84963160D01*
X157007116Y-85030327D01*
X157033260Y-85116509D01*
X157075714Y-85195936D01*
X157132848Y-85265553D01*
X157150293Y-85279870D01*
X158369000Y-86498578D01*
X158369000Y-86549542D01*
X158393403Y-86672223D01*
X158441271Y-86787785D01*
X158510764Y-86891789D01*
X158599211Y-86980236D01*
X158703215Y-87049729D01*
X158818777Y-87097597D01*
X158941458Y-87122000D01*
X159066542Y-87122000D01*
X159189223Y-87097597D01*
X159304785Y-87049729D01*
X159408789Y-86980236D01*
X159497236Y-86891789D01*
X159566729Y-86787785D01*
X159614597Y-86672223D01*
X159639000Y-86549542D01*
X159639000Y-86424458D01*
X159614597Y-86301777D01*
X159566729Y-86186215D01*
X159497236Y-86082211D01*
X159408789Y-85993764D01*
X159304785Y-85924271D01*
X159189223Y-85876403D01*
X159066542Y-85852000D01*
X159015578Y-85852000D01*
X157914900Y-84751323D01*
X157914900Y-83021635D01*
X157941237Y-83013646D01*
X158049566Y-82955743D01*
X158144518Y-82877818D01*
X158222443Y-82782866D01*
X158280346Y-82674537D01*
X158316003Y-82556992D01*
X158328043Y-82434750D01*
X158328043Y-82335391D01*
X162058319Y-82335391D01*
X162155643Y-82609752D01*
X162304622Y-82859855D01*
X162499531Y-83076088D01*
X162732880Y-83250141D01*
X162995701Y-83375325D01*
X163142910Y-83419976D01*
X163372800Y-83298655D01*
X163372800Y-82105500D01*
X162178986Y-82105500D01*
X162058319Y-82335391D01*
X158328043Y-82335391D01*
X158328043Y-81522250D01*
X158316003Y-81400008D01*
X158280346Y-81282463D01*
X158265452Y-81254599D01*
X162210831Y-81254599D01*
X162155643Y-81347248D01*
X162058319Y-81621609D01*
X162178986Y-81851500D01*
X163372800Y-81851500D01*
X163372800Y-81831500D01*
X163626800Y-81831500D01*
X163626800Y-81851500D01*
X163646800Y-81851500D01*
X163646800Y-82105500D01*
X163626800Y-82105500D01*
X163626800Y-83298655D01*
X163856690Y-83419976D01*
X164003899Y-83375325D01*
X164266720Y-83250141D01*
X164500069Y-83076088D01*
X164694978Y-82859855D01*
X164843957Y-82609752D01*
X164901572Y-82447332D01*
X164948902Y-82561597D01*
X165083620Y-82763217D01*
X165255083Y-82934680D01*
X165456703Y-83069398D01*
X165680731Y-83162193D01*
X165918557Y-83209500D01*
X166161043Y-83209500D01*
X166398869Y-83162193D01*
X166622897Y-83069398D01*
X166824517Y-82934680D01*
X166995980Y-82763217D01*
X167130698Y-82561597D01*
X167223493Y-82337569D01*
X167270800Y-82099743D01*
X167270800Y-81857257D01*
X167223493Y-81619431D01*
X167130698Y-81395403D01*
X166995980Y-81193783D01*
X166824517Y-81022320D01*
X166622897Y-80887602D01*
X166398869Y-80794807D01*
X166161043Y-80747500D01*
X165918557Y-80747500D01*
X165680731Y-80794807D01*
X165630633Y-80815558D01*
X165321075Y-80506000D01*
X173457001Y-80506000D01*
X173457000Y-106798897D01*
X173403374Y-106669432D01*
X173224881Y-106402298D01*
X172997702Y-106175119D01*
X172730568Y-105996626D01*
X172433745Y-105873678D01*
X172118640Y-105811000D01*
X171797360Y-105811000D01*
X171482255Y-105873678D01*
X171185432Y-105996626D01*
X170918298Y-106175119D01*
X170691119Y-106402298D01*
X170521213Y-106656580D01*
X170486322Y-106591304D01*
X170438711Y-106533289D01*
X170380696Y-106485678D01*
X170314508Y-106450299D01*
X170242689Y-106428513D01*
X170168000Y-106421157D01*
X169875200Y-106421157D01*
X169875200Y-104670452D01*
X169877411Y-104648000D01*
X169875200Y-104625548D01*
X169875200Y-104625540D01*
X169868585Y-104558373D01*
X169842508Y-104472412D01*
X169842441Y-104472190D01*
X169799987Y-104392764D01*
X169757171Y-104340592D01*
X169757165Y-104340586D01*
X169742853Y-104323147D01*
X169725415Y-104308836D01*
X167386000Y-101969423D01*
X167386000Y-101918458D01*
X167361597Y-101795777D01*
X167313729Y-101680215D01*
X167244236Y-101576211D01*
X167166176Y-101498151D01*
X167242128Y-101422200D01*
X168723175Y-101422200D01*
X168759211Y-101458236D01*
X168863215Y-101527729D01*
X168978777Y-101575597D01*
X169101458Y-101600000D01*
X169226542Y-101600000D01*
X169349223Y-101575597D01*
X169464785Y-101527729D01*
X169568789Y-101458236D01*
X169657236Y-101369789D01*
X169726729Y-101265785D01*
X169774597Y-101150223D01*
X169799000Y-101027542D01*
X169799000Y-100902458D01*
X169774597Y-100779777D01*
X169726729Y-100664215D01*
X169657236Y-100560211D01*
X169568789Y-100471764D01*
X169464785Y-100402271D01*
X169349223Y-100354403D01*
X169226542Y-100330000D01*
X169101458Y-100330000D01*
X168978777Y-100354403D01*
X168863215Y-100402271D01*
X168759211Y-100471764D01*
X168723175Y-100507800D01*
X167075200Y-100507800D01*
X167052750Y-100505589D01*
X167030300Y-100507800D01*
X167030290Y-100507800D01*
X166963123Y-100514415D01*
X166876941Y-100540559D01*
X166797514Y-100583013D01*
X166727897Y-100640147D01*
X166713580Y-100657592D01*
X164188997Y-103182176D01*
X164171547Y-103196497D01*
X164114413Y-103266115D01*
X164071959Y-103345542D01*
X164045815Y-103431724D01*
X164039200Y-103498891D01*
X164039200Y-103498900D01*
X164036989Y-103521350D01*
X164039200Y-103543801D01*
X164039200Y-103572175D01*
X164003164Y-103608211D01*
X163933671Y-103712215D01*
X163885803Y-103827777D01*
X163861400Y-103950458D01*
X163861400Y-104075542D01*
X163885803Y-104198223D01*
X163933671Y-104313785D01*
X164003164Y-104417789D01*
X164091611Y-104506236D01*
X164195615Y-104575729D01*
X164311177Y-104623597D01*
X164433858Y-104648000D01*
X164558942Y-104648000D01*
X164681623Y-104623597D01*
X164797185Y-104575729D01*
X164901189Y-104506236D01*
X164989636Y-104417789D01*
X165059129Y-104313785D01*
X165106997Y-104198223D01*
X165131400Y-104075542D01*
X165131400Y-103950458D01*
X165106997Y-103827777D01*
X165059129Y-103712215D01*
X165016264Y-103648063D01*
X166268151Y-102396176D01*
X166346211Y-102474236D01*
X166450215Y-102543729D01*
X166565777Y-102591597D01*
X166688458Y-102616000D01*
X166739423Y-102616000D01*
X168960800Y-104837379D01*
X168960800Y-106421157D01*
X168668000Y-106421157D01*
X168593311Y-106428513D01*
X168521492Y-106450299D01*
X168455304Y-106485678D01*
X168397289Y-106533289D01*
X168349678Y-106591304D01*
X168314299Y-106657492D01*
X168292513Y-106729311D01*
X168285157Y-106804000D01*
X168285157Y-109594000D01*
X168010843Y-109594000D01*
X168010843Y-106804000D01*
X168003487Y-106729311D01*
X167981701Y-106657492D01*
X167946322Y-106591304D01*
X167903997Y-106539731D01*
X167948729Y-106472785D01*
X167996597Y-106357223D01*
X168021000Y-106234542D01*
X168021000Y-106109458D01*
X167996597Y-105986777D01*
X167948729Y-105871215D01*
X167879236Y-105767211D01*
X167790789Y-105678764D01*
X167686785Y-105609271D01*
X167571223Y-105561403D01*
X167448542Y-105537000D01*
X167323458Y-105537000D01*
X167200777Y-105561403D01*
X167085215Y-105609271D01*
X166981211Y-105678764D01*
X166892764Y-105767211D01*
X166823271Y-105871215D01*
X166775403Y-105986777D01*
X166751000Y-106109458D01*
X166751000Y-106160423D01*
X166570597Y-106340826D01*
X166553147Y-106355147D01*
X166498974Y-106421157D01*
X166128000Y-106421157D01*
X166053311Y-106428513D01*
X165981492Y-106450299D01*
X165915304Y-106485678D01*
X165857289Y-106533289D01*
X165809678Y-106591304D01*
X165774299Y-106657492D01*
X165752513Y-106729311D01*
X165745157Y-106804000D01*
X165745157Y-109594000D01*
X165726044Y-109594000D01*
X165723000Y-108489750D01*
X165564250Y-108331000D01*
X164465000Y-108331000D01*
X164465000Y-108351000D01*
X164211000Y-108351000D01*
X164211000Y-108331000D01*
X163111750Y-108331000D01*
X162953000Y-108489750D01*
X162949956Y-109594000D01*
X162930843Y-109594000D01*
X162930843Y-106804000D01*
X162949928Y-106804000D01*
X162953000Y-107918250D01*
X163111750Y-108077000D01*
X164211000Y-108077000D01*
X164211000Y-106327750D01*
X164465000Y-106327750D01*
X164465000Y-108077000D01*
X165564250Y-108077000D01*
X165723000Y-107918250D01*
X165726072Y-106804000D01*
X165713812Y-106679518D01*
X165677502Y-106559820D01*
X165618537Y-106449506D01*
X165539185Y-106352815D01*
X165442494Y-106273463D01*
X165332180Y-106214498D01*
X165212482Y-106178188D01*
X165088000Y-106165928D01*
X164623750Y-106169000D01*
X164465000Y-106327750D01*
X164211000Y-106327750D01*
X164052250Y-106169000D01*
X163588000Y-106165928D01*
X163463518Y-106178188D01*
X163343820Y-106214498D01*
X163233506Y-106273463D01*
X163136815Y-106352815D01*
X163057463Y-106449506D01*
X162998498Y-106559820D01*
X162962188Y-106679518D01*
X162949928Y-106804000D01*
X162930843Y-106804000D01*
X162923487Y-106729311D01*
X162901701Y-106657492D01*
X162866322Y-106591304D01*
X162818711Y-106533289D01*
X162760696Y-106485678D01*
X162694508Y-106450299D01*
X162622689Y-106428513D01*
X162548000Y-106421157D01*
X161723999Y-106421157D01*
X161723999Y-97183777D01*
X161909650Y-97182400D01*
X162068400Y-97023650D01*
X162068400Y-95874400D01*
X162322400Y-95874400D01*
X162322400Y-97023650D01*
X162481150Y-97182400D01*
X162895400Y-97185472D01*
X163019882Y-97173212D01*
X163139580Y-97136902D01*
X163249894Y-97077937D01*
X163346585Y-96998585D01*
X163425937Y-96901894D01*
X163484902Y-96791580D01*
X163521212Y-96671882D01*
X163533472Y-96547400D01*
X169257328Y-96547400D01*
X169269588Y-96671882D01*
X169305898Y-96791580D01*
X169364863Y-96901894D01*
X169444215Y-96998585D01*
X169540906Y-97077937D01*
X169651220Y-97136902D01*
X169770918Y-97173212D01*
X169895400Y-97185472D01*
X170309650Y-97182400D01*
X170468400Y-97023650D01*
X170468400Y-95874400D01*
X170722400Y-95874400D01*
X170722400Y-97023650D01*
X170881150Y-97182400D01*
X171295400Y-97185472D01*
X171419882Y-97173212D01*
X171539580Y-97136902D01*
X171649894Y-97077937D01*
X171746585Y-96998585D01*
X171825937Y-96901894D01*
X171884902Y-96791580D01*
X171921212Y-96671882D01*
X171933472Y-96547400D01*
X171930400Y-96033150D01*
X171771650Y-95874400D01*
X170722400Y-95874400D01*
X170468400Y-95874400D01*
X169419150Y-95874400D01*
X169260400Y-96033150D01*
X169257328Y-96547400D01*
X163533472Y-96547400D01*
X163530400Y-96033150D01*
X163371650Y-95874400D01*
X162322400Y-95874400D01*
X162068400Y-95874400D01*
X162048400Y-95874400D01*
X162048400Y-95620400D01*
X162068400Y-95620400D01*
X162068400Y-94471150D01*
X162322400Y-94471150D01*
X162322400Y-95620400D01*
X163371650Y-95620400D01*
X163530400Y-95461650D01*
X163533472Y-94947400D01*
X169257328Y-94947400D01*
X169260400Y-95461650D01*
X169419150Y-95620400D01*
X170468400Y-95620400D01*
X170468400Y-94471150D01*
X170722400Y-94471150D01*
X170722400Y-95620400D01*
X171771650Y-95620400D01*
X171930400Y-95461650D01*
X171933472Y-94947400D01*
X171921212Y-94822918D01*
X171884902Y-94703220D01*
X171825937Y-94592906D01*
X171746585Y-94496215D01*
X171649894Y-94416863D01*
X171539580Y-94357898D01*
X171419882Y-94321588D01*
X171295400Y-94309328D01*
X170881150Y-94312400D01*
X170722400Y-94471150D01*
X170468400Y-94471150D01*
X170309650Y-94312400D01*
X169895400Y-94309328D01*
X169770918Y-94321588D01*
X169651220Y-94357898D01*
X169540906Y-94416863D01*
X169444215Y-94496215D01*
X169364863Y-94592906D01*
X169305898Y-94703220D01*
X169269588Y-94822918D01*
X169257328Y-94947400D01*
X163533472Y-94947400D01*
X163521212Y-94822918D01*
X163484902Y-94703220D01*
X163425937Y-94592906D01*
X163346585Y-94496215D01*
X163249894Y-94416863D01*
X163139580Y-94357898D01*
X163019882Y-94321588D01*
X162895400Y-94309328D01*
X162481150Y-94312400D01*
X162322400Y-94471150D01*
X162068400Y-94471150D01*
X161909650Y-94312400D01*
X161723999Y-94311023D01*
X161723999Y-92430243D01*
X162895400Y-92430243D01*
X162970089Y-92422887D01*
X163041908Y-92401101D01*
X163108096Y-92365722D01*
X163166111Y-92318111D01*
X163213722Y-92260096D01*
X163249101Y-92193908D01*
X163270887Y-92122089D01*
X163278243Y-92047400D01*
X163278243Y-91704600D01*
X169512557Y-91704600D01*
X169512557Y-92047400D01*
X169519913Y-92122089D01*
X169541699Y-92193908D01*
X169577078Y-92260096D01*
X169624689Y-92318111D01*
X169682704Y-92365722D01*
X169748892Y-92401101D01*
X169820711Y-92422887D01*
X169895400Y-92430243D01*
X171295400Y-92430243D01*
X171370089Y-92422887D01*
X171441908Y-92401101D01*
X171508096Y-92365722D01*
X171566111Y-92318111D01*
X171613722Y-92260096D01*
X171649101Y-92193908D01*
X171670887Y-92122089D01*
X171678243Y-92047400D01*
X171678243Y-90447400D01*
X171670887Y-90372711D01*
X171649101Y-90300892D01*
X171613722Y-90234704D01*
X171566111Y-90176689D01*
X171508096Y-90129078D01*
X171441908Y-90093699D01*
X171370089Y-90071913D01*
X171295400Y-90064557D01*
X170059135Y-90064557D01*
X168044886Y-88050309D01*
X168030565Y-88032859D01*
X167960948Y-87975725D01*
X167881521Y-87933271D01*
X167795339Y-87907127D01*
X167728172Y-87900512D01*
X167728162Y-87900512D01*
X167705712Y-87898301D01*
X167683262Y-87900512D01*
X165337894Y-87900512D01*
X165354000Y-87819542D01*
X165354000Y-87768577D01*
X168887215Y-84235364D01*
X168904653Y-84221053D01*
X168918965Y-84203614D01*
X168918971Y-84203608D01*
X168961787Y-84151436D01*
X169004241Y-84072010D01*
X169010326Y-84051951D01*
X169030385Y-83985827D01*
X169037000Y-83918660D01*
X169037000Y-83918650D01*
X169039211Y-83896200D01*
X169037000Y-83873750D01*
X169037000Y-83211343D01*
X169429800Y-83211343D01*
X169504489Y-83203987D01*
X169576308Y-83182201D01*
X169642496Y-83146822D01*
X169700511Y-83099211D01*
X169748122Y-83041196D01*
X169783501Y-82975008D01*
X169805287Y-82903189D01*
X169812643Y-82828500D01*
X169812643Y-81128500D01*
X169805287Y-81053811D01*
X169783501Y-80981992D01*
X169748122Y-80915804D01*
X169700511Y-80857789D01*
X169642496Y-80810178D01*
X169576308Y-80774799D01*
X169504489Y-80753013D01*
X169429800Y-80745657D01*
X167729800Y-80745657D01*
X167655111Y-80753013D01*
X167583292Y-80774799D01*
X167517104Y-80810178D01*
X167459089Y-80857789D01*
X167411478Y-80915804D01*
X167376099Y-80981992D01*
X167354313Y-81053811D01*
X167346957Y-81128500D01*
X167346957Y-82828500D01*
X167354313Y-82903189D01*
X167376099Y-82975008D01*
X167411478Y-83041196D01*
X167459089Y-83099211D01*
X167517104Y-83146822D01*
X167583292Y-83182201D01*
X167655111Y-83203987D01*
X167729800Y-83211343D01*
X168122600Y-83211343D01*
X168122600Y-83706821D01*
X164707423Y-87122000D01*
X164656458Y-87122000D01*
X164533777Y-87146403D01*
X164418979Y-87193954D01*
X164361789Y-87136764D01*
X164257785Y-87067271D01*
X164142223Y-87019403D01*
X164019542Y-86995000D01*
X163894458Y-86995000D01*
X163771777Y-87019403D01*
X163656215Y-87067271D01*
X163552211Y-87136764D01*
X163463764Y-87225211D01*
X163394271Y-87329215D01*
X163346403Y-87444777D01*
X163322000Y-87567458D01*
X163322000Y-87692542D01*
X163346403Y-87815223D01*
X163394271Y-87930785D01*
X163463764Y-88034789D01*
X163506262Y-88077287D01*
X163506415Y-88078837D01*
X163524663Y-88138987D01*
X163532560Y-88165019D01*
X163572957Y-88240597D01*
X163575014Y-88244446D01*
X163632148Y-88314063D01*
X163649592Y-88328379D01*
X163986336Y-88665125D01*
X164000649Y-88682565D01*
X164018088Y-88696877D01*
X164018094Y-88696883D01*
X164070266Y-88739699D01*
X164149692Y-88782153D01*
X164235875Y-88808297D01*
X164303042Y-88814912D01*
X164303050Y-88814912D01*
X164325502Y-88817123D01*
X164347954Y-88814912D01*
X165548313Y-88814912D01*
X165548313Y-88902855D01*
X165572716Y-89025536D01*
X165620584Y-89141098D01*
X165629205Y-89154000D01*
X165545458Y-89154000D01*
X165422777Y-89178403D01*
X165307215Y-89226271D01*
X165203211Y-89295764D01*
X165167175Y-89331800D01*
X147059028Y-89331800D01*
X146827824Y-89100597D01*
X146813503Y-89083147D01*
X146743886Y-89026013D01*
X146664459Y-88983559D01*
X146578277Y-88957415D01*
X146511110Y-88950800D01*
X146511100Y-88950800D01*
X146488650Y-88948589D01*
X146466200Y-88950800D01*
X146363825Y-88950800D01*
X146327789Y-88914764D01*
X146223785Y-88845271D01*
X146108223Y-88797403D01*
X145985542Y-88773000D01*
X145860458Y-88773000D01*
X145737777Y-88797403D01*
X145622215Y-88845271D01*
X145518211Y-88914764D01*
X145429764Y-89003211D01*
X145360271Y-89107215D01*
X145312403Y-89222777D01*
X145288000Y-89345458D01*
X145288000Y-89470542D01*
X145312403Y-89593223D01*
X145360271Y-89708785D01*
X145429764Y-89812789D01*
X145518211Y-89901236D01*
X145622215Y-89970729D01*
X145737777Y-90018597D01*
X145774400Y-90025882D01*
X145774400Y-90105542D01*
X145798803Y-90228223D01*
X145846671Y-90343785D01*
X145916164Y-90447789D01*
X146004611Y-90536236D01*
X146108615Y-90605729D01*
X146224177Y-90653597D01*
X146346858Y-90678000D01*
X146397823Y-90678000D01*
X147340230Y-91620408D01*
X147354547Y-91637853D01*
X147371992Y-91652170D01*
X147424163Y-91694987D01*
X147446285Y-91706811D01*
X147503591Y-91737441D01*
X147589773Y-91763585D01*
X147656940Y-91770200D01*
X147656949Y-91770200D01*
X147679399Y-91772411D01*
X147701849Y-91770200D01*
X157293175Y-91770200D01*
X157329211Y-91806236D01*
X157433215Y-91875729D01*
X157548777Y-91923597D01*
X157671458Y-91948000D01*
X157796542Y-91948000D01*
X157919223Y-91923597D01*
X158034785Y-91875729D01*
X158138789Y-91806236D01*
X158227236Y-91717789D01*
X158296729Y-91613785D01*
X158344597Y-91498223D01*
X158369000Y-91375542D01*
X158369000Y-91250458D01*
X158344597Y-91127777D01*
X158296729Y-91012215D01*
X158227236Y-90908211D01*
X158138789Y-90819764D01*
X158034785Y-90750271D01*
X157919223Y-90702403D01*
X157796542Y-90678000D01*
X157671458Y-90678000D01*
X157548777Y-90702403D01*
X157433215Y-90750271D01*
X157329211Y-90819764D01*
X157293175Y-90855800D01*
X147868778Y-90855800D01*
X147259177Y-90246200D01*
X160809192Y-90246200D01*
X160807388Y-90264519D01*
X160809599Y-90286969D01*
X160809600Y-106506772D01*
X160777289Y-106533289D01*
X160729678Y-106591304D01*
X160694299Y-106657492D01*
X160672513Y-106729311D01*
X160665157Y-106804000D01*
X160665157Y-109594000D01*
X160390843Y-109594000D01*
X160390843Y-106804000D01*
X160383487Y-106729311D01*
X160361701Y-106657492D01*
X160326322Y-106591304D01*
X160278711Y-106533289D01*
X160220696Y-106485678D01*
X160154508Y-106450299D01*
X160082689Y-106428513D01*
X160008000Y-106421157D01*
X159791000Y-106421157D01*
X159791000Y-105563172D01*
X159793578Y-105536999D01*
X159791000Y-105510825D01*
X159783287Y-105432514D01*
X159752810Y-105332043D01*
X159703317Y-105239449D01*
X159636711Y-105158289D01*
X159616379Y-105141603D01*
X154545037Y-100070262D01*
X154534597Y-100017777D01*
X154486729Y-99902215D01*
X154417236Y-99798211D01*
X154328789Y-99709764D01*
X154224785Y-99640271D01*
X154109223Y-99592403D01*
X153986542Y-99568000D01*
X153861458Y-99568000D01*
X153738777Y-99592403D01*
X153623215Y-99640271D01*
X153519211Y-99709764D01*
X153430764Y-99798211D01*
X153361271Y-99902215D01*
X153313403Y-100017777D01*
X153289000Y-100140458D01*
X153289000Y-100265542D01*
X153313403Y-100388223D01*
X153361271Y-100503785D01*
X153430764Y-100607789D01*
X153519211Y-100696236D01*
X153623215Y-100765729D01*
X153738777Y-100813597D01*
X153791262Y-100824037D01*
X158725000Y-105757776D01*
X158725000Y-106421157D01*
X158508000Y-106421157D01*
X158433311Y-106428513D01*
X158361492Y-106450299D01*
X158295304Y-106485678D01*
X158237289Y-106533289D01*
X158189678Y-106591304D01*
X158154787Y-106656580D01*
X157984881Y-106402298D01*
X157757702Y-106175119D01*
X157490568Y-105996626D01*
X157193745Y-105873678D01*
X156878640Y-105811000D01*
X156557360Y-105811000D01*
X156242255Y-105873678D01*
X155945432Y-105996626D01*
X155678298Y-106175119D01*
X155451119Y-106402298D01*
X155272626Y-106669432D01*
X155149678Y-106966255D01*
X155087000Y-107281360D01*
X155087000Y-107602640D01*
X155149678Y-107917745D01*
X155272626Y-108214568D01*
X155451119Y-108481702D01*
X155678298Y-108708881D01*
X155945432Y-108887374D01*
X156242255Y-109010322D01*
X156557360Y-109073000D01*
X156878640Y-109073000D01*
X157193745Y-109010322D01*
X157490568Y-108887374D01*
X157757702Y-108708881D01*
X157984881Y-108481702D01*
X158125157Y-108271764D01*
X158125157Y-109594000D01*
X131342000Y-109594000D01*
X131342000Y-108045939D01*
X131368917Y-108096297D01*
X131514775Y-108274025D01*
X131692503Y-108419883D01*
X131895272Y-108528266D01*
X132115290Y-108595007D01*
X132344100Y-108617543D01*
X133924100Y-108617543D01*
X134152910Y-108595007D01*
X134372928Y-108528266D01*
X134575697Y-108419883D01*
X134753425Y-108274025D01*
X134899283Y-108096297D01*
X135007666Y-107893528D01*
X135074407Y-107673510D01*
X135083221Y-107584023D01*
X135096308Y-107619677D01*
X135322953Y-107990885D01*
X135617662Y-108310744D01*
X135969109Y-108566962D01*
X136363789Y-108749693D01*
X136622731Y-108818963D01*
X136967100Y-108707024D01*
X136967100Y-106311700D01*
X136947100Y-106311700D01*
X136947100Y-106057700D01*
X136967100Y-106057700D01*
X136967100Y-103662376D01*
X137221100Y-103662376D01*
X137221100Y-106057700D01*
X137241100Y-106057700D01*
X137241100Y-106311700D01*
X137221100Y-106311700D01*
X137221100Y-108707024D01*
X137565469Y-108818963D01*
X137824411Y-108749693D01*
X138219091Y-108566962D01*
X138570538Y-108310744D01*
X138865247Y-107990885D01*
X139091892Y-107619677D01*
X139204513Y-107312865D01*
X139233606Y-107408773D01*
X139415700Y-107749444D01*
X139660756Y-108048045D01*
X139959357Y-108293101D01*
X140300028Y-108475194D01*
X140669678Y-108587326D01*
X141054100Y-108625188D01*
X141438523Y-108587326D01*
X141808173Y-108475194D01*
X142148844Y-108293101D01*
X142447445Y-108048045D01*
X142692501Y-107749444D01*
X142874594Y-107408773D01*
X142986726Y-107039122D01*
X142994100Y-106964252D01*
X143001474Y-107039123D01*
X143113606Y-107408773D01*
X143295700Y-107749444D01*
X143540756Y-108048045D01*
X143839357Y-108293101D01*
X144180028Y-108475194D01*
X144549678Y-108587326D01*
X144934100Y-108625188D01*
X145318523Y-108587326D01*
X145688173Y-108475194D01*
X146028844Y-108293101D01*
X146327445Y-108048045D01*
X146572501Y-107749444D01*
X146754594Y-107408773D01*
X146866726Y-107039122D01*
X146895100Y-106751033D01*
X146895100Y-105618367D01*
X147013100Y-105618367D01*
X147013100Y-106751034D01*
X147041474Y-107039123D01*
X147153606Y-107408773D01*
X147335700Y-107749444D01*
X147580756Y-108048045D01*
X147879357Y-108293101D01*
X148220028Y-108475194D01*
X148589678Y-108587326D01*
X148974100Y-108625188D01*
X149358523Y-108587326D01*
X149728173Y-108475194D01*
X150068844Y-108293101D01*
X150367445Y-108048045D01*
X150612501Y-107749444D01*
X150794594Y-107408773D01*
X150906726Y-107039122D01*
X150935100Y-106751033D01*
X150935100Y-105618367D01*
X150973100Y-105618367D01*
X150973100Y-106751034D01*
X151001474Y-107039123D01*
X151113606Y-107408773D01*
X151295700Y-107749444D01*
X151540756Y-108048045D01*
X151839357Y-108293101D01*
X152180028Y-108475194D01*
X152549678Y-108587326D01*
X152934100Y-108625188D01*
X153318523Y-108587326D01*
X153688173Y-108475194D01*
X154028844Y-108293101D01*
X154327445Y-108048045D01*
X154572501Y-107749444D01*
X154754594Y-107408773D01*
X154866726Y-107039122D01*
X154895100Y-106751033D01*
X154895100Y-105618366D01*
X154866726Y-105330277D01*
X154754594Y-104960627D01*
X154572501Y-104619956D01*
X154327445Y-104321355D01*
X154028844Y-104076299D01*
X153688172Y-103894206D01*
X153318522Y-103782074D01*
X152934100Y-103744212D01*
X152549677Y-103782074D01*
X152180027Y-103894206D01*
X151839356Y-104076299D01*
X151540755Y-104321355D01*
X151295699Y-104619956D01*
X151113606Y-104960628D01*
X151001474Y-105330278D01*
X150973100Y-105618367D01*
X150935100Y-105618367D01*
X150935100Y-105618366D01*
X150906726Y-105330277D01*
X150794594Y-104960627D01*
X150612501Y-104619956D01*
X150367445Y-104321355D01*
X150068844Y-104076299D01*
X149728172Y-103894206D01*
X149358522Y-103782074D01*
X148974100Y-103744212D01*
X148589677Y-103782074D01*
X148220027Y-103894206D01*
X147879356Y-104076299D01*
X147580755Y-104321355D01*
X147335699Y-104619956D01*
X147153606Y-104960628D01*
X147041474Y-105330278D01*
X147013100Y-105618367D01*
X146895100Y-105618367D01*
X146895100Y-105618366D01*
X146866726Y-105330277D01*
X146754594Y-104960627D01*
X146572501Y-104619956D01*
X146327445Y-104321355D01*
X146028844Y-104076299D01*
X145688172Y-103894206D01*
X145318522Y-103782074D01*
X144934100Y-103744212D01*
X144549677Y-103782074D01*
X144180027Y-103894206D01*
X143839356Y-104076299D01*
X143540755Y-104321355D01*
X143295699Y-104619956D01*
X143113606Y-104960628D01*
X143001474Y-105330278D01*
X142994100Y-105405148D01*
X142986726Y-105330277D01*
X142874594Y-104960627D01*
X142692501Y-104619956D01*
X142447445Y-104321355D01*
X142148844Y-104076299D01*
X141808172Y-103894206D01*
X141438522Y-103782074D01*
X141054100Y-103744212D01*
X140669677Y-103782074D01*
X140300027Y-103894206D01*
X139959356Y-104076299D01*
X139660755Y-104321355D01*
X139415699Y-104619956D01*
X139233606Y-104960628D01*
X139204513Y-105056535D01*
X139091892Y-104749723D01*
X138865247Y-104378515D01*
X138570538Y-104058656D01*
X138219091Y-103802438D01*
X137824411Y-103619707D01*
X137565469Y-103550437D01*
X137221100Y-103662376D01*
X136967100Y-103662376D01*
X136622731Y-103550437D01*
X136363789Y-103619707D01*
X135969109Y-103802438D01*
X135617662Y-104058656D01*
X135322953Y-104378515D01*
X135096308Y-104749723D01*
X135083221Y-104785377D01*
X135074407Y-104695890D01*
X135007666Y-104475872D01*
X134899283Y-104273103D01*
X134753425Y-104095375D01*
X134575697Y-103949517D01*
X134372928Y-103841134D01*
X134152910Y-103774393D01*
X133924100Y-103751857D01*
X132344100Y-103751857D01*
X132115290Y-103774393D01*
X131895272Y-103841134D01*
X131692503Y-103949517D01*
X131514775Y-104095375D01*
X131368917Y-104273103D01*
X131342000Y-104323461D01*
X131342000Y-84732182D01*
X131436093Y-84771157D01*
X131583310Y-84800440D01*
X131733410Y-84800440D01*
X131880627Y-84771157D01*
X132019302Y-84713716D01*
X132144107Y-84630324D01*
X132250244Y-84524187D01*
X132333636Y-84399382D01*
X132391077Y-84260707D01*
X132420360Y-84113490D01*
X132420360Y-83963390D01*
X132391077Y-83816173D01*
X132333636Y-83677498D01*
X132250244Y-83552693D01*
X132144107Y-83446556D01*
X132019302Y-83363164D01*
X131880627Y-83305723D01*
X131733410Y-83276440D01*
X131583310Y-83276440D01*
X131436093Y-83305723D01*
X131342000Y-83344698D01*
X131342000Y-80506000D01*
X134306799Y-80506000D01*
X133887993Y-80924807D01*
G04 #@! TA.AperFunction,Conductor*
D20*
G36*
X133887993Y-80924807D02*
G01*
X133810325Y-80917157D01*
X133322825Y-80917157D01*
X133200583Y-80929197D01*
X133083038Y-80964854D01*
X132974709Y-81022757D01*
X132879757Y-81100682D01*
X132801832Y-81195634D01*
X132743929Y-81303963D01*
X132708272Y-81421508D01*
X132696232Y-81543750D01*
X132696232Y-82456250D01*
X132708272Y-82578492D01*
X132743929Y-82696037D01*
X132801832Y-82804366D01*
X132879757Y-82899318D01*
X132974709Y-82977243D01*
X133033575Y-83008708D01*
X133033576Y-90537790D01*
X133030997Y-90563975D01*
X133041288Y-90668461D01*
X133060263Y-90731012D01*
X133071766Y-90768932D01*
X133121259Y-90861526D01*
X133187865Y-90942686D01*
X133208197Y-90959372D01*
X137097763Y-94848939D01*
X137108203Y-94901423D01*
X137156071Y-95016985D01*
X137225564Y-95120989D01*
X137314011Y-95209436D01*
X137418015Y-95278929D01*
X137533577Y-95326797D01*
X137656258Y-95351200D01*
X137781342Y-95351200D01*
X137904023Y-95326797D01*
X138019585Y-95278929D01*
X138123589Y-95209436D01*
X138212036Y-95120989D01*
X138281529Y-95016985D01*
X138329397Y-94901423D01*
X138353800Y-94778742D01*
X138353800Y-94653658D01*
X138329397Y-94530977D01*
X138281529Y-94415415D01*
X138212036Y-94311411D01*
X138123589Y-94222964D01*
X138019585Y-94153471D01*
X137904023Y-94105603D01*
X137851539Y-94095163D01*
X134099575Y-90343200D01*
X134099575Y-84736468D01*
X134189453Y-84773697D01*
X134336670Y-84802980D01*
X134486770Y-84802980D01*
X134633987Y-84773697D01*
X134772662Y-84716256D01*
X134897467Y-84632864D01*
X135003604Y-84526727D01*
X135086996Y-84401922D01*
X135144437Y-84263247D01*
X135173720Y-84116030D01*
X135173720Y-83965930D01*
X135144437Y-83818713D01*
X135086996Y-83680038D01*
X135003604Y-83555233D01*
X134897467Y-83449096D01*
X134772662Y-83365704D01*
X134633987Y-83308263D01*
X134486770Y-83278980D01*
X134336670Y-83278980D01*
X134189453Y-83308263D01*
X134099575Y-83345492D01*
X134099575Y-83008708D01*
X134158441Y-82977243D01*
X134253393Y-82899318D01*
X134331318Y-82804366D01*
X134389221Y-82696037D01*
X134424878Y-82578492D01*
X134436918Y-82456250D01*
X134436918Y-81883432D01*
X134571232Y-81749118D01*
X134571232Y-82456250D01*
X134583272Y-82578492D01*
X134618929Y-82696037D01*
X134676832Y-82804366D01*
X134754757Y-82899318D01*
X134849709Y-82977243D01*
X134958038Y-83035146D01*
X135075583Y-83070803D01*
X135197825Y-83082843D01*
X135685325Y-83082843D01*
X135807567Y-83070803D01*
X135925112Y-83035146D01*
X136033441Y-82977243D01*
X136128393Y-82899318D01*
X136206318Y-82804366D01*
X136264221Y-82696037D01*
X136299878Y-82578492D01*
X136311824Y-82457200D01*
X136925550Y-82457200D01*
X136948000Y-82459411D01*
X136970450Y-82457200D01*
X136970460Y-82457200D01*
X137037627Y-82450585D01*
X137123809Y-82424441D01*
X137203236Y-82381987D01*
X137272853Y-82324853D01*
X137287174Y-82307403D01*
X137679578Y-81915000D01*
X137730542Y-81915000D01*
X137853223Y-81890597D01*
X137968785Y-81842729D01*
X138072789Y-81773236D01*
X138161236Y-81684789D01*
X138230729Y-81580785D01*
X138278597Y-81465223D01*
X138303000Y-81342542D01*
X138303000Y-81254599D01*
X154774948Y-81254599D01*
X154760054Y-81282463D01*
X154724397Y-81400008D01*
X154712451Y-81521300D01*
X154678645Y-81521300D01*
X154671236Y-81510211D01*
X154582789Y-81421764D01*
X154478785Y-81352271D01*
X154363223Y-81304403D01*
X154240542Y-81280000D01*
X154115458Y-81280000D01*
X153992777Y-81304403D01*
X153877215Y-81352271D01*
X153773211Y-81421764D01*
X153684764Y-81510211D01*
X153615271Y-81614215D01*
X153567403Y-81729777D01*
X153543000Y-81852458D01*
X153543000Y-81977542D01*
X153567403Y-82100223D01*
X153615271Y-82215785D01*
X153684764Y-82319789D01*
X153773211Y-82408236D01*
X153877215Y-82477729D01*
X153992777Y-82525597D01*
X154115458Y-82550000D01*
X154240542Y-82550000D01*
X154363223Y-82525597D01*
X154478785Y-82477729D01*
X154541686Y-82435700D01*
X154712451Y-82435700D01*
X154724397Y-82556992D01*
X154760054Y-82674537D01*
X154817957Y-82782866D01*
X154895882Y-82877818D01*
X154990834Y-82955743D01*
X155099163Y-83013646D01*
X155216708Y-83049303D01*
X155338950Y-83061343D01*
X155826450Y-83061343D01*
X155948692Y-83049303D01*
X156066237Y-83013646D01*
X156174566Y-82955743D01*
X156269518Y-82877818D01*
X156347443Y-82782866D01*
X156405346Y-82674537D01*
X156441003Y-82556992D01*
X156453043Y-82434750D01*
X156453043Y-81522250D01*
X156441003Y-81400008D01*
X156405346Y-81282463D01*
X156390452Y-81254599D01*
X156649948Y-81254599D01*
X156635054Y-81282463D01*
X156599397Y-81400008D01*
X156587357Y-81522250D01*
X156587357Y-82434750D01*
X156599397Y-82556992D01*
X156635054Y-82674537D01*
X156692957Y-82782866D01*
X156770882Y-82877818D01*
X156865834Y-82955743D01*
X156974163Y-83013646D01*
X157000500Y-83021635D01*
X157000501Y-84918240D01*
X156998289Y-84940700D01*
X157000501Y-84963160D01*
X157007116Y-85030327D01*
X157033260Y-85116509D01*
X157075714Y-85195936D01*
X157132848Y-85265553D01*
X157150293Y-85279870D01*
X158369000Y-86498578D01*
X158369000Y-86549542D01*
X158393403Y-86672223D01*
X158441271Y-86787785D01*
X158510764Y-86891789D01*
X158599211Y-86980236D01*
X158703215Y-87049729D01*
X158818777Y-87097597D01*
X158941458Y-87122000D01*
X159066542Y-87122000D01*
X159189223Y-87097597D01*
X159304785Y-87049729D01*
X159408789Y-86980236D01*
X159497236Y-86891789D01*
X159566729Y-86787785D01*
X159614597Y-86672223D01*
X159639000Y-86549542D01*
X159639000Y-86424458D01*
X159614597Y-86301777D01*
X159566729Y-86186215D01*
X159497236Y-86082211D01*
X159408789Y-85993764D01*
X159304785Y-85924271D01*
X159189223Y-85876403D01*
X159066542Y-85852000D01*
X159015578Y-85852000D01*
X157914900Y-84751323D01*
X157914900Y-83021635D01*
X157941237Y-83013646D01*
X158049566Y-82955743D01*
X158144518Y-82877818D01*
X158222443Y-82782866D01*
X158280346Y-82674537D01*
X158316003Y-82556992D01*
X158328043Y-82434750D01*
X158328043Y-82335391D01*
X162058319Y-82335391D01*
X162155643Y-82609752D01*
X162304622Y-82859855D01*
X162499531Y-83076088D01*
X162732880Y-83250141D01*
X162995701Y-83375325D01*
X163142910Y-83419976D01*
X163372800Y-83298655D01*
X163372800Y-82105500D01*
X162178986Y-82105500D01*
X162058319Y-82335391D01*
X158328043Y-82335391D01*
X158328043Y-81522250D01*
X158316003Y-81400008D01*
X158280346Y-81282463D01*
X158265452Y-81254599D01*
X162210831Y-81254599D01*
X162155643Y-81347248D01*
X162058319Y-81621609D01*
X162178986Y-81851500D01*
X163372800Y-81851500D01*
X163372800Y-81831500D01*
X163626800Y-81831500D01*
X163626800Y-81851500D01*
X163646800Y-81851500D01*
X163646800Y-82105500D01*
X163626800Y-82105500D01*
X163626800Y-83298655D01*
X163856690Y-83419976D01*
X164003899Y-83375325D01*
X164266720Y-83250141D01*
X164500069Y-83076088D01*
X164694978Y-82859855D01*
X164843957Y-82609752D01*
X164901572Y-82447332D01*
X164948902Y-82561597D01*
X165083620Y-82763217D01*
X165255083Y-82934680D01*
X165456703Y-83069398D01*
X165680731Y-83162193D01*
X165918557Y-83209500D01*
X166161043Y-83209500D01*
X166398869Y-83162193D01*
X166622897Y-83069398D01*
X166824517Y-82934680D01*
X166995980Y-82763217D01*
X167130698Y-82561597D01*
X167223493Y-82337569D01*
X167270800Y-82099743D01*
X167270800Y-81857257D01*
X167223493Y-81619431D01*
X167130698Y-81395403D01*
X166995980Y-81193783D01*
X166824517Y-81022320D01*
X166622897Y-80887602D01*
X166398869Y-80794807D01*
X166161043Y-80747500D01*
X165918557Y-80747500D01*
X165680731Y-80794807D01*
X165630633Y-80815558D01*
X165321075Y-80506000D01*
X173457001Y-80506000D01*
X173457000Y-106798897D01*
X173403374Y-106669432D01*
X173224881Y-106402298D01*
X172997702Y-106175119D01*
X172730568Y-105996626D01*
X172433745Y-105873678D01*
X172118640Y-105811000D01*
X171797360Y-105811000D01*
X171482255Y-105873678D01*
X171185432Y-105996626D01*
X170918298Y-106175119D01*
X170691119Y-106402298D01*
X170521213Y-106656580D01*
X170486322Y-106591304D01*
X170438711Y-106533289D01*
X170380696Y-106485678D01*
X170314508Y-106450299D01*
X170242689Y-106428513D01*
X170168000Y-106421157D01*
X169875200Y-106421157D01*
X169875200Y-104670452D01*
X169877411Y-104648000D01*
X169875200Y-104625548D01*
X169875200Y-104625540D01*
X169868585Y-104558373D01*
X169842508Y-104472412D01*
X169842441Y-104472190D01*
X169799987Y-104392764D01*
X169757171Y-104340592D01*
X169757165Y-104340586D01*
X169742853Y-104323147D01*
X169725415Y-104308836D01*
X167386000Y-101969423D01*
X167386000Y-101918458D01*
X167361597Y-101795777D01*
X167313729Y-101680215D01*
X167244236Y-101576211D01*
X167166176Y-101498151D01*
X167242128Y-101422200D01*
X168723175Y-101422200D01*
X168759211Y-101458236D01*
X168863215Y-101527729D01*
X168978777Y-101575597D01*
X169101458Y-101600000D01*
X169226542Y-101600000D01*
X169349223Y-101575597D01*
X169464785Y-101527729D01*
X169568789Y-101458236D01*
X169657236Y-101369789D01*
X169726729Y-101265785D01*
X169774597Y-101150223D01*
X169799000Y-101027542D01*
X169799000Y-100902458D01*
X169774597Y-100779777D01*
X169726729Y-100664215D01*
X169657236Y-100560211D01*
X169568789Y-100471764D01*
X169464785Y-100402271D01*
X169349223Y-100354403D01*
X169226542Y-100330000D01*
X169101458Y-100330000D01*
X168978777Y-100354403D01*
X168863215Y-100402271D01*
X168759211Y-100471764D01*
X168723175Y-100507800D01*
X167075200Y-100507800D01*
X167052750Y-100505589D01*
X167030300Y-100507800D01*
X167030290Y-100507800D01*
X166963123Y-100514415D01*
X166876941Y-100540559D01*
X166797514Y-100583013D01*
X166727897Y-100640147D01*
X166713580Y-100657592D01*
X164188997Y-103182176D01*
X164171547Y-103196497D01*
X164114413Y-103266115D01*
X164071959Y-103345542D01*
X164045815Y-103431724D01*
X164039200Y-103498891D01*
X164039200Y-103498900D01*
X164036989Y-103521350D01*
X164039200Y-103543801D01*
X164039200Y-103572175D01*
X164003164Y-103608211D01*
X163933671Y-103712215D01*
X163885803Y-103827777D01*
X163861400Y-103950458D01*
X163861400Y-104075542D01*
X163885803Y-104198223D01*
X163933671Y-104313785D01*
X164003164Y-104417789D01*
X164091611Y-104506236D01*
X164195615Y-104575729D01*
X164311177Y-104623597D01*
X164433858Y-104648000D01*
X164558942Y-104648000D01*
X164681623Y-104623597D01*
X164797185Y-104575729D01*
X164901189Y-104506236D01*
X164989636Y-104417789D01*
X165059129Y-104313785D01*
X165106997Y-104198223D01*
X165131400Y-104075542D01*
X165131400Y-103950458D01*
X165106997Y-103827777D01*
X165059129Y-103712215D01*
X165016264Y-103648063D01*
X166268151Y-102396176D01*
X166346211Y-102474236D01*
X166450215Y-102543729D01*
X166565777Y-102591597D01*
X166688458Y-102616000D01*
X166739423Y-102616000D01*
X168960800Y-104837379D01*
X168960800Y-106421157D01*
X168668000Y-106421157D01*
X168593311Y-106428513D01*
X168521492Y-106450299D01*
X168455304Y-106485678D01*
X168397289Y-106533289D01*
X168349678Y-106591304D01*
X168314299Y-106657492D01*
X168292513Y-106729311D01*
X168285157Y-106804000D01*
X168285157Y-109594000D01*
X168010843Y-109594000D01*
X168010843Y-106804000D01*
X168003487Y-106729311D01*
X167981701Y-106657492D01*
X167946322Y-106591304D01*
X167903997Y-106539731D01*
X167948729Y-106472785D01*
X167996597Y-106357223D01*
X168021000Y-106234542D01*
X168021000Y-106109458D01*
X167996597Y-105986777D01*
X167948729Y-105871215D01*
X167879236Y-105767211D01*
X167790789Y-105678764D01*
X167686785Y-105609271D01*
X167571223Y-105561403D01*
X167448542Y-105537000D01*
X167323458Y-105537000D01*
X167200777Y-105561403D01*
X167085215Y-105609271D01*
X166981211Y-105678764D01*
X166892764Y-105767211D01*
X166823271Y-105871215D01*
X166775403Y-105986777D01*
X166751000Y-106109458D01*
X166751000Y-106160423D01*
X166570597Y-106340826D01*
X166553147Y-106355147D01*
X166498974Y-106421157D01*
X166128000Y-106421157D01*
X166053311Y-106428513D01*
X165981492Y-106450299D01*
X165915304Y-106485678D01*
X165857289Y-106533289D01*
X165809678Y-106591304D01*
X165774299Y-106657492D01*
X165752513Y-106729311D01*
X165745157Y-106804000D01*
X165745157Y-109594000D01*
X165726044Y-109594000D01*
X165723000Y-108489750D01*
X165564250Y-108331000D01*
X164465000Y-108331000D01*
X164465000Y-108351000D01*
X164211000Y-108351000D01*
X164211000Y-108331000D01*
X163111750Y-108331000D01*
X162953000Y-108489750D01*
X162949956Y-109594000D01*
X162930843Y-109594000D01*
X162930843Y-106804000D01*
X162949928Y-106804000D01*
X162953000Y-107918250D01*
X163111750Y-108077000D01*
X164211000Y-108077000D01*
X164211000Y-106327750D01*
X164465000Y-106327750D01*
X164465000Y-108077000D01*
X165564250Y-108077000D01*
X165723000Y-107918250D01*
X165726072Y-106804000D01*
X165713812Y-106679518D01*
X165677502Y-106559820D01*
X165618537Y-106449506D01*
X165539185Y-106352815D01*
X165442494Y-106273463D01*
X165332180Y-106214498D01*
X165212482Y-106178188D01*
X165088000Y-106165928D01*
X164623750Y-106169000D01*
X164465000Y-106327750D01*
X164211000Y-106327750D01*
X164052250Y-106169000D01*
X163588000Y-106165928D01*
X163463518Y-106178188D01*
X163343820Y-106214498D01*
X163233506Y-106273463D01*
X163136815Y-106352815D01*
X163057463Y-106449506D01*
X162998498Y-106559820D01*
X162962188Y-106679518D01*
X162949928Y-106804000D01*
X162930843Y-106804000D01*
X162923487Y-106729311D01*
X162901701Y-106657492D01*
X162866322Y-106591304D01*
X162818711Y-106533289D01*
X162760696Y-106485678D01*
X162694508Y-106450299D01*
X162622689Y-106428513D01*
X162548000Y-106421157D01*
X161723999Y-106421157D01*
X161723999Y-97183777D01*
X161909650Y-97182400D01*
X162068400Y-97023650D01*
X162068400Y-95874400D01*
X162322400Y-95874400D01*
X162322400Y-97023650D01*
X162481150Y-97182400D01*
X162895400Y-97185472D01*
X163019882Y-97173212D01*
X163139580Y-97136902D01*
X163249894Y-97077937D01*
X163346585Y-96998585D01*
X163425937Y-96901894D01*
X163484902Y-96791580D01*
X163521212Y-96671882D01*
X163533472Y-96547400D01*
X169257328Y-96547400D01*
X169269588Y-96671882D01*
X169305898Y-96791580D01*
X169364863Y-96901894D01*
X169444215Y-96998585D01*
X169540906Y-97077937D01*
X169651220Y-97136902D01*
X169770918Y-97173212D01*
X169895400Y-97185472D01*
X170309650Y-97182400D01*
X170468400Y-97023650D01*
X170468400Y-95874400D01*
X170722400Y-95874400D01*
X170722400Y-97023650D01*
X170881150Y-97182400D01*
X171295400Y-97185472D01*
X171419882Y-97173212D01*
X171539580Y-97136902D01*
X171649894Y-97077937D01*
X171746585Y-96998585D01*
X171825937Y-96901894D01*
X171884902Y-96791580D01*
X171921212Y-96671882D01*
X171933472Y-96547400D01*
X171930400Y-96033150D01*
X171771650Y-95874400D01*
X170722400Y-95874400D01*
X170468400Y-95874400D01*
X169419150Y-95874400D01*
X169260400Y-96033150D01*
X169257328Y-96547400D01*
X163533472Y-96547400D01*
X163530400Y-96033150D01*
X163371650Y-95874400D01*
X162322400Y-95874400D01*
X162068400Y-95874400D01*
X162048400Y-95874400D01*
X162048400Y-95620400D01*
X162068400Y-95620400D01*
X162068400Y-94471150D01*
X162322400Y-94471150D01*
X162322400Y-95620400D01*
X163371650Y-95620400D01*
X163530400Y-95461650D01*
X163533472Y-94947400D01*
X169257328Y-94947400D01*
X169260400Y-95461650D01*
X169419150Y-95620400D01*
X170468400Y-95620400D01*
X170468400Y-94471150D01*
X170722400Y-94471150D01*
X170722400Y-95620400D01*
X171771650Y-95620400D01*
X171930400Y-95461650D01*
X171933472Y-94947400D01*
X171921212Y-94822918D01*
X171884902Y-94703220D01*
X171825937Y-94592906D01*
X171746585Y-94496215D01*
X171649894Y-94416863D01*
X171539580Y-94357898D01*
X171419882Y-94321588D01*
X171295400Y-94309328D01*
X170881150Y-94312400D01*
X170722400Y-94471150D01*
X170468400Y-94471150D01*
X170309650Y-94312400D01*
X169895400Y-94309328D01*
X169770918Y-94321588D01*
X169651220Y-94357898D01*
X169540906Y-94416863D01*
X169444215Y-94496215D01*
X169364863Y-94592906D01*
X169305898Y-94703220D01*
X169269588Y-94822918D01*
X169257328Y-94947400D01*
X163533472Y-94947400D01*
X163521212Y-94822918D01*
X163484902Y-94703220D01*
X163425937Y-94592906D01*
X163346585Y-94496215D01*
X163249894Y-94416863D01*
X163139580Y-94357898D01*
X163019882Y-94321588D01*
X162895400Y-94309328D01*
X162481150Y-94312400D01*
X162322400Y-94471150D01*
X162068400Y-94471150D01*
X161909650Y-94312400D01*
X161723999Y-94311023D01*
X161723999Y-92430243D01*
X162895400Y-92430243D01*
X162970089Y-92422887D01*
X163041908Y-92401101D01*
X163108096Y-92365722D01*
X163166111Y-92318111D01*
X163213722Y-92260096D01*
X163249101Y-92193908D01*
X163270887Y-92122089D01*
X163278243Y-92047400D01*
X163278243Y-91704600D01*
X169512557Y-91704600D01*
X169512557Y-92047400D01*
X169519913Y-92122089D01*
X169541699Y-92193908D01*
X169577078Y-92260096D01*
X169624689Y-92318111D01*
X169682704Y-92365722D01*
X169748892Y-92401101D01*
X169820711Y-92422887D01*
X169895400Y-92430243D01*
X171295400Y-92430243D01*
X171370089Y-92422887D01*
X171441908Y-92401101D01*
X171508096Y-92365722D01*
X171566111Y-92318111D01*
X171613722Y-92260096D01*
X171649101Y-92193908D01*
X171670887Y-92122089D01*
X171678243Y-92047400D01*
X171678243Y-90447400D01*
X171670887Y-90372711D01*
X171649101Y-90300892D01*
X171613722Y-90234704D01*
X171566111Y-90176689D01*
X171508096Y-90129078D01*
X171441908Y-90093699D01*
X171370089Y-90071913D01*
X171295400Y-90064557D01*
X170059135Y-90064557D01*
X168044886Y-88050309D01*
X168030565Y-88032859D01*
X167960948Y-87975725D01*
X167881521Y-87933271D01*
X167795339Y-87907127D01*
X167728172Y-87900512D01*
X167728162Y-87900512D01*
X167705712Y-87898301D01*
X167683262Y-87900512D01*
X165337894Y-87900512D01*
X165354000Y-87819542D01*
X165354000Y-87768577D01*
X168887215Y-84235364D01*
X168904653Y-84221053D01*
X168918965Y-84203614D01*
X168918971Y-84203608D01*
X168961787Y-84151436D01*
X169004241Y-84072010D01*
X169010326Y-84051951D01*
X169030385Y-83985827D01*
X169037000Y-83918660D01*
X169037000Y-83918650D01*
X169039211Y-83896200D01*
X169037000Y-83873750D01*
X169037000Y-83211343D01*
X169429800Y-83211343D01*
X169504489Y-83203987D01*
X169576308Y-83182201D01*
X169642496Y-83146822D01*
X169700511Y-83099211D01*
X169748122Y-83041196D01*
X169783501Y-82975008D01*
X169805287Y-82903189D01*
X169812643Y-82828500D01*
X169812643Y-81128500D01*
X169805287Y-81053811D01*
X169783501Y-80981992D01*
X169748122Y-80915804D01*
X169700511Y-80857789D01*
X169642496Y-80810178D01*
X169576308Y-80774799D01*
X169504489Y-80753013D01*
X169429800Y-80745657D01*
X167729800Y-80745657D01*
X167655111Y-80753013D01*
X167583292Y-80774799D01*
X167517104Y-80810178D01*
X167459089Y-80857789D01*
X167411478Y-80915804D01*
X167376099Y-80981992D01*
X167354313Y-81053811D01*
X167346957Y-81128500D01*
X167346957Y-82828500D01*
X167354313Y-82903189D01*
X167376099Y-82975008D01*
X167411478Y-83041196D01*
X167459089Y-83099211D01*
X167517104Y-83146822D01*
X167583292Y-83182201D01*
X167655111Y-83203987D01*
X167729800Y-83211343D01*
X168122600Y-83211343D01*
X168122600Y-83706821D01*
X164707423Y-87122000D01*
X164656458Y-87122000D01*
X164533777Y-87146403D01*
X164418979Y-87193954D01*
X164361789Y-87136764D01*
X164257785Y-87067271D01*
X164142223Y-87019403D01*
X164019542Y-86995000D01*
X163894458Y-86995000D01*
X163771777Y-87019403D01*
X163656215Y-87067271D01*
X163552211Y-87136764D01*
X163463764Y-87225211D01*
X163394271Y-87329215D01*
X163346403Y-87444777D01*
X163322000Y-87567458D01*
X163322000Y-87692542D01*
X163346403Y-87815223D01*
X163394271Y-87930785D01*
X163463764Y-88034789D01*
X163506262Y-88077287D01*
X163506415Y-88078837D01*
X163524663Y-88138987D01*
X163532560Y-88165019D01*
X163572957Y-88240597D01*
X163575014Y-88244446D01*
X163632148Y-88314063D01*
X163649592Y-88328379D01*
X163986336Y-88665125D01*
X164000649Y-88682565D01*
X164018088Y-88696877D01*
X164018094Y-88696883D01*
X164070266Y-88739699D01*
X164149692Y-88782153D01*
X164235875Y-88808297D01*
X164303042Y-88814912D01*
X164303050Y-88814912D01*
X164325502Y-88817123D01*
X164347954Y-88814912D01*
X165548313Y-88814912D01*
X165548313Y-88902855D01*
X165572716Y-89025536D01*
X165620584Y-89141098D01*
X165629205Y-89154000D01*
X165545458Y-89154000D01*
X165422777Y-89178403D01*
X165307215Y-89226271D01*
X165203211Y-89295764D01*
X165167175Y-89331800D01*
X147059028Y-89331800D01*
X146827824Y-89100597D01*
X146813503Y-89083147D01*
X146743886Y-89026013D01*
X146664459Y-88983559D01*
X146578277Y-88957415D01*
X146511110Y-88950800D01*
X146511100Y-88950800D01*
X146488650Y-88948589D01*
X146466200Y-88950800D01*
X146363825Y-88950800D01*
X146327789Y-88914764D01*
X146223785Y-88845271D01*
X146108223Y-88797403D01*
X145985542Y-88773000D01*
X145860458Y-88773000D01*
X145737777Y-88797403D01*
X145622215Y-88845271D01*
X145518211Y-88914764D01*
X145429764Y-89003211D01*
X145360271Y-89107215D01*
X145312403Y-89222777D01*
X145288000Y-89345458D01*
X145288000Y-89470542D01*
X145312403Y-89593223D01*
X145360271Y-89708785D01*
X145429764Y-89812789D01*
X145518211Y-89901236D01*
X145622215Y-89970729D01*
X145737777Y-90018597D01*
X145774400Y-90025882D01*
X145774400Y-90105542D01*
X145798803Y-90228223D01*
X145846671Y-90343785D01*
X145916164Y-90447789D01*
X146004611Y-90536236D01*
X146108615Y-90605729D01*
X146224177Y-90653597D01*
X146346858Y-90678000D01*
X146397823Y-90678000D01*
X147340230Y-91620408D01*
X147354547Y-91637853D01*
X147371992Y-91652170D01*
X147424163Y-91694987D01*
X147446285Y-91706811D01*
X147503591Y-91737441D01*
X147589773Y-91763585D01*
X147656940Y-91770200D01*
X147656949Y-91770200D01*
X147679399Y-91772411D01*
X147701849Y-91770200D01*
X157293175Y-91770200D01*
X157329211Y-91806236D01*
X157433215Y-91875729D01*
X157548777Y-91923597D01*
X157671458Y-91948000D01*
X157796542Y-91948000D01*
X157919223Y-91923597D01*
X158034785Y-91875729D01*
X158138789Y-91806236D01*
X158227236Y-91717789D01*
X158296729Y-91613785D01*
X158344597Y-91498223D01*
X158369000Y-91375542D01*
X158369000Y-91250458D01*
X158344597Y-91127777D01*
X158296729Y-91012215D01*
X158227236Y-90908211D01*
X158138789Y-90819764D01*
X158034785Y-90750271D01*
X157919223Y-90702403D01*
X157796542Y-90678000D01*
X157671458Y-90678000D01*
X157548777Y-90702403D01*
X157433215Y-90750271D01*
X157329211Y-90819764D01*
X157293175Y-90855800D01*
X147868778Y-90855800D01*
X147259177Y-90246200D01*
X160809192Y-90246200D01*
X160807388Y-90264519D01*
X160809599Y-90286969D01*
X160809600Y-106506772D01*
X160777289Y-106533289D01*
X160729678Y-106591304D01*
X160694299Y-106657492D01*
X160672513Y-106729311D01*
X160665157Y-106804000D01*
X160665157Y-109594000D01*
X160390843Y-109594000D01*
X160390843Y-106804000D01*
X160383487Y-106729311D01*
X160361701Y-106657492D01*
X160326322Y-106591304D01*
X160278711Y-106533289D01*
X160220696Y-106485678D01*
X160154508Y-106450299D01*
X160082689Y-106428513D01*
X160008000Y-106421157D01*
X159791000Y-106421157D01*
X159791000Y-105563172D01*
X159793578Y-105536999D01*
X159791000Y-105510825D01*
X159783287Y-105432514D01*
X159752810Y-105332043D01*
X159703317Y-105239449D01*
X159636711Y-105158289D01*
X159616379Y-105141603D01*
X154545037Y-100070262D01*
X154534597Y-100017777D01*
X154486729Y-99902215D01*
X154417236Y-99798211D01*
X154328789Y-99709764D01*
X154224785Y-99640271D01*
X154109223Y-99592403D01*
X153986542Y-99568000D01*
X153861458Y-99568000D01*
X153738777Y-99592403D01*
X153623215Y-99640271D01*
X153519211Y-99709764D01*
X153430764Y-99798211D01*
X153361271Y-99902215D01*
X153313403Y-100017777D01*
X153289000Y-100140458D01*
X153289000Y-100265542D01*
X153313403Y-100388223D01*
X153361271Y-100503785D01*
X153430764Y-100607789D01*
X153519211Y-100696236D01*
X153623215Y-100765729D01*
X153738777Y-100813597D01*
X153791262Y-100824037D01*
X158725000Y-105757776D01*
X158725000Y-106421157D01*
X158508000Y-106421157D01*
X158433311Y-106428513D01*
X158361492Y-106450299D01*
X158295304Y-106485678D01*
X158237289Y-106533289D01*
X158189678Y-106591304D01*
X158154787Y-106656580D01*
X157984881Y-106402298D01*
X157757702Y-106175119D01*
X157490568Y-105996626D01*
X157193745Y-105873678D01*
X156878640Y-105811000D01*
X156557360Y-105811000D01*
X156242255Y-105873678D01*
X155945432Y-105996626D01*
X155678298Y-106175119D01*
X155451119Y-106402298D01*
X155272626Y-106669432D01*
X155149678Y-106966255D01*
X155087000Y-107281360D01*
X155087000Y-107602640D01*
X155149678Y-107917745D01*
X155272626Y-108214568D01*
X155451119Y-108481702D01*
X155678298Y-108708881D01*
X155945432Y-108887374D01*
X156242255Y-109010322D01*
X156557360Y-109073000D01*
X156878640Y-109073000D01*
X157193745Y-109010322D01*
X157490568Y-108887374D01*
X157757702Y-108708881D01*
X157984881Y-108481702D01*
X158125157Y-108271764D01*
X158125157Y-109594000D01*
X131342000Y-109594000D01*
X131342000Y-108045939D01*
X131368917Y-108096297D01*
X131514775Y-108274025D01*
X131692503Y-108419883D01*
X131895272Y-108528266D01*
X132115290Y-108595007D01*
X132344100Y-108617543D01*
X133924100Y-108617543D01*
X134152910Y-108595007D01*
X134372928Y-108528266D01*
X134575697Y-108419883D01*
X134753425Y-108274025D01*
X134899283Y-108096297D01*
X135007666Y-107893528D01*
X135074407Y-107673510D01*
X135083221Y-107584023D01*
X135096308Y-107619677D01*
X135322953Y-107990885D01*
X135617662Y-108310744D01*
X135969109Y-108566962D01*
X136363789Y-108749693D01*
X136622731Y-108818963D01*
X136967100Y-108707024D01*
X136967100Y-106311700D01*
X136947100Y-106311700D01*
X136947100Y-106057700D01*
X136967100Y-106057700D01*
X136967100Y-103662376D01*
X137221100Y-103662376D01*
X137221100Y-106057700D01*
X137241100Y-106057700D01*
X137241100Y-106311700D01*
X137221100Y-106311700D01*
X137221100Y-108707024D01*
X137565469Y-108818963D01*
X137824411Y-108749693D01*
X138219091Y-108566962D01*
X138570538Y-108310744D01*
X138865247Y-107990885D01*
X139091892Y-107619677D01*
X139204513Y-107312865D01*
X139233606Y-107408773D01*
X139415700Y-107749444D01*
X139660756Y-108048045D01*
X139959357Y-108293101D01*
X140300028Y-108475194D01*
X140669678Y-108587326D01*
X141054100Y-108625188D01*
X141438523Y-108587326D01*
X141808173Y-108475194D01*
X142148844Y-108293101D01*
X142447445Y-108048045D01*
X142692501Y-107749444D01*
X142874594Y-107408773D01*
X142986726Y-107039122D01*
X142994100Y-106964252D01*
X143001474Y-107039123D01*
X143113606Y-107408773D01*
X143295700Y-107749444D01*
X143540756Y-108048045D01*
X143839357Y-108293101D01*
X144180028Y-108475194D01*
X144549678Y-108587326D01*
X144934100Y-108625188D01*
X145318523Y-108587326D01*
X145688173Y-108475194D01*
X146028844Y-108293101D01*
X146327445Y-108048045D01*
X146572501Y-107749444D01*
X146754594Y-107408773D01*
X146866726Y-107039122D01*
X146895100Y-106751033D01*
X146895100Y-105618367D01*
X147013100Y-105618367D01*
X147013100Y-106751034D01*
X147041474Y-107039123D01*
X147153606Y-107408773D01*
X147335700Y-107749444D01*
X147580756Y-108048045D01*
X147879357Y-108293101D01*
X148220028Y-108475194D01*
X148589678Y-108587326D01*
X148974100Y-108625188D01*
X149358523Y-108587326D01*
X149728173Y-108475194D01*
X150068844Y-108293101D01*
X150367445Y-108048045D01*
X150612501Y-107749444D01*
X150794594Y-107408773D01*
X150906726Y-107039122D01*
X150935100Y-106751033D01*
X150935100Y-105618367D01*
X150973100Y-105618367D01*
X150973100Y-106751034D01*
X151001474Y-107039123D01*
X151113606Y-107408773D01*
X151295700Y-107749444D01*
X151540756Y-108048045D01*
X151839357Y-108293101D01*
X152180028Y-108475194D01*
X152549678Y-108587326D01*
X152934100Y-108625188D01*
X153318523Y-108587326D01*
X153688173Y-108475194D01*
X154028844Y-108293101D01*
X154327445Y-108048045D01*
X154572501Y-107749444D01*
X154754594Y-107408773D01*
X154866726Y-107039122D01*
X154895100Y-106751033D01*
X154895100Y-105618366D01*
X154866726Y-105330277D01*
X154754594Y-104960627D01*
X154572501Y-104619956D01*
X154327445Y-104321355D01*
X154028844Y-104076299D01*
X153688172Y-103894206D01*
X153318522Y-103782074D01*
X152934100Y-103744212D01*
X152549677Y-103782074D01*
X152180027Y-103894206D01*
X151839356Y-104076299D01*
X151540755Y-104321355D01*
X151295699Y-104619956D01*
X151113606Y-104960628D01*
X151001474Y-105330278D01*
X150973100Y-105618367D01*
X150935100Y-105618367D01*
X150935100Y-105618366D01*
X150906726Y-105330277D01*
X150794594Y-104960627D01*
X150612501Y-104619956D01*
X150367445Y-104321355D01*
X150068844Y-104076299D01*
X149728172Y-103894206D01*
X149358522Y-103782074D01*
X148974100Y-103744212D01*
X148589677Y-103782074D01*
X148220027Y-103894206D01*
X147879356Y-104076299D01*
X147580755Y-104321355D01*
X147335699Y-104619956D01*
X147153606Y-104960628D01*
X147041474Y-105330278D01*
X147013100Y-105618367D01*
X146895100Y-105618367D01*
X146895100Y-105618366D01*
X146866726Y-105330277D01*
X146754594Y-104960627D01*
X146572501Y-104619956D01*
X146327445Y-104321355D01*
X146028844Y-104076299D01*
X145688172Y-103894206D01*
X145318522Y-103782074D01*
X144934100Y-103744212D01*
X144549677Y-103782074D01*
X144180027Y-103894206D01*
X143839356Y-104076299D01*
X143540755Y-104321355D01*
X143295699Y-104619956D01*
X143113606Y-104960628D01*
X143001474Y-105330278D01*
X142994100Y-105405148D01*
X142986726Y-105330277D01*
X142874594Y-104960627D01*
X142692501Y-104619956D01*
X142447445Y-104321355D01*
X142148844Y-104076299D01*
X141808172Y-103894206D01*
X141438522Y-103782074D01*
X141054100Y-103744212D01*
X140669677Y-103782074D01*
X140300027Y-103894206D01*
X139959356Y-104076299D01*
X139660755Y-104321355D01*
X139415699Y-104619956D01*
X139233606Y-104960628D01*
X139204513Y-105056535D01*
X139091892Y-104749723D01*
X138865247Y-104378515D01*
X138570538Y-104058656D01*
X138219091Y-103802438D01*
X137824411Y-103619707D01*
X137565469Y-103550437D01*
X137221100Y-103662376D01*
X136967100Y-103662376D01*
X136622731Y-103550437D01*
X136363789Y-103619707D01*
X135969109Y-103802438D01*
X135617662Y-104058656D01*
X135322953Y-104378515D01*
X135096308Y-104749723D01*
X135083221Y-104785377D01*
X135074407Y-104695890D01*
X135007666Y-104475872D01*
X134899283Y-104273103D01*
X134753425Y-104095375D01*
X134575697Y-103949517D01*
X134372928Y-103841134D01*
X134152910Y-103774393D01*
X133924100Y-103751857D01*
X132344100Y-103751857D01*
X132115290Y-103774393D01*
X131895272Y-103841134D01*
X131692503Y-103949517D01*
X131514775Y-104095375D01*
X131368917Y-104273103D01*
X131342000Y-104323461D01*
X131342000Y-84732182D01*
X131436093Y-84771157D01*
X131583310Y-84800440D01*
X131733410Y-84800440D01*
X131880627Y-84771157D01*
X132019302Y-84713716D01*
X132144107Y-84630324D01*
X132250244Y-84524187D01*
X132333636Y-84399382D01*
X132391077Y-84260707D01*
X132420360Y-84113490D01*
X132420360Y-83963390D01*
X132391077Y-83816173D01*
X132333636Y-83677498D01*
X132250244Y-83552693D01*
X132144107Y-83446556D01*
X132019302Y-83363164D01*
X131880627Y-83305723D01*
X131733410Y-83276440D01*
X131583310Y-83276440D01*
X131436093Y-83305723D01*
X131342000Y-83344698D01*
X131342000Y-80506000D01*
X134306799Y-80506000D01*
X133887993Y-80924807D01*
G37*
G04 #@! TD.AperFunction*
M02*
