M48
; DRILL file {KiCad (5.1.8)-1} date 02/15/21 15:13:32
; FORMAT={-:-/ absolute / inch / decimal}
; #@! TF.CreationDate,2021-02-15T15:13:32-05:00
; #@! TF.GenerationSoftware,Kicad,Pcbnew,(5.1.8)-1
FMAT,2
INCH
T1C0.0100
T2C0.0300
T3C0.0394
T4C0.0669
T5C0.0984
%
G90
G05
T1
X5.225Y-3.88
X5.31Y-3.41
X5.31Y-3.495
X5.42Y-3.2
X5.42Y-3.27
X5.422Y-3.729
X5.51Y-4.04
X5.645Y-3.92
X5.745Y-3.52
X5.7641Y-3.545
X5.79Y-3.92
X5.86Y-3.51
X6.06Y-3.945
X6.07Y-3.225
X6.115Y-3.8
X6.21Y-3.595
X6.26Y-3.405
X6.27Y-4.26
X6.37Y-4.18
X6.3856Y-3.7696
X6.455Y-3.45
X6.47Y-4.26
X6.4762Y-3.8155
X6.4762Y-4.095
X6.485Y-3.455
X6.52Y-3.535
X6.5427Y-3.4977
X6.565Y-4.015
X6.59Y-4.18
X6.66Y-3.975
X6.7Y-3.715
X6.7164Y-3.5924
X6.76Y-3.345
X6.775Y-3.725
T2
X5.1834Y-3.3086
X5.2918Y-3.3087
T3
X6.437Y-3.2275
X6.537Y-3.2275
X6.637Y-3.2275
T4
X5.2415Y-4.1805
X5.3974Y-4.1805
X5.5533Y-4.1805
X5.7061Y-4.1805
X5.8651Y-4.1805
X6.021Y-4.1805
T5
X6.17Y-4.23
X6.77Y-4.23
T0
M30
